<svg width="1920" height="5051" viewBox="0 0 1920 5051" fill="none" xmlns="http://www.w3.org/2000/svg">
<path d="M1832.4 7026.2C2171.3 6781.3 2458.64 6472.05 2678.02 6116.1C2897.41 5760.15 3044.53 5364.48 3111 4951.68C3177.47 4538.87 3161.98 4117.02 3065.41 3710.2C2968.84 3303.38 2793.09 2919.56 2548.2 2580.66C2303.3 2241.77 1994.05 1954.42 1638.1 1735.04C1282.15 1515.66 886.482 1368.53 473.676 1302.07C60.8704 1235.6 -360.985 1251.09 -767.804 1347.66C-1174.62 1444.22 -1558.44 1619.97 -1897.34 1864.87L-32.4672 4445.53L1832.4 7026.2Z" fill="white"/>
<mask id="path-2-inside-1_645_383" fill="white">
<path d="M1448.41 6496.41C1717.76 6301.77 1946.14 6055.98 2120.5 5773.07C2294.86 5490.17 2411.8 5175.69 2464.63 4847.6C2517.45 4519.51 2505.14 4184.22 2428.39 3860.89C2351.64 3537.55 2211.96 3232.5 2017.32 2963.15C1822.67 2693.79 1576.88 2465.42 1293.98 2291.05C1011.08 2116.69 696.603 1999.76 368.51 1946.93C40.416 1894.1 -294.87 1906.41 -618.206 1983.16C-941.541 2059.91 -1246.59 2199.6 -1515.95 2394.24L-33.7678 4445.32L1448.41 6496.41Z"/>
</mask>
<path d="M1448.41 6496.41C1717.76 6301.77 1946.14 6055.98 2120.5 5773.07C2294.86 5490.17 2411.8 5175.69 2464.63 4847.6C2517.45 4519.51 2505.14 4184.22 2428.39 3860.89C2351.64 3537.55 2211.96 3232.5 2017.32 2963.15C1822.67 2693.79 1576.88 2465.42 1293.98 2291.05C1011.08 2116.69 696.603 1999.76 368.51 1946.93C40.416 1894.1 -294.87 1906.41 -618.206 1983.16C-941.541 2059.91 -1246.59 2199.6 -1515.95 2394.24L-33.7678 4445.32L1448.41 6496.41Z" fill="#F5F7FA" stroke="#DCE6EF" stroke-width="4" mask="url(#path-2-inside-1_645_383)"/>
<mask id="path-3-inside-2_645_383" fill="white">
<path d="M1173.52 6115.47C1393.07 5956.81 1579.22 5756.47 1721.35 5525.88C1863.47 5295.28 1958.78 5038.95 2001.84 4771.52C2044.9 4504.09 2034.87 4230.8 1972.31 3967.25C1909.75 3703.7 1795.89 3455.05 1637.24 3235.5C1478.59 3015.95 1278.24 2829.8 1047.65 2687.68C817.055 2545.55 560.725 2450.24 293.296 2407.18C25.8661 2364.12 -247.426 2374.16 -510.977 2436.72C-774.528 2499.27 -1023.18 2613.13 -1242.73 2771.78L-34.6011 4443.63L1173.52 6115.47Z"/>
</mask>
<path d="M1173.52 6115.47C1393.07 5956.81 1579.22 5756.47 1721.35 5525.88C1863.47 5295.28 1958.78 5038.95 2001.84 4771.52C2044.9 4504.09 2034.87 4230.8 1972.31 3967.25C1909.75 3703.7 1795.89 3455.05 1637.24 3235.5C1478.59 3015.95 1278.24 2829.8 1047.65 2687.68C817.055 2545.55 560.725 2450.24 293.296 2407.18C25.8661 2364.12 -247.426 2374.16 -510.977 2436.72C-774.528 2499.27 -1023.18 2613.13 -1242.73 2771.78L-34.6011 4443.63L1173.52 6115.47Z" fill="#F1F5FA" stroke="#DCE6EF" stroke-width="4" mask="url(#path-3-inside-2_645_383)"/>
<mask id="path-4-inside-3_645_383" fill="white">
<path d="M902.746 5740.76C1073.09 5617.66 1217.52 5462.22 1327.79 5283.31C1438.05 5104.4 1512 4905.52 1545.41 4698.03C1578.82 4490.54 1571.04 4278.5 1522.5 4074.02C1473.96 3869.54 1385.62 3676.62 1262.53 3506.28C1139.44 3335.94 983.995 3191.51 805.084 3081.24C626.172 2970.97 427.294 2897.02 219.803 2863.61C12.3128 2830.2 -199.726 2837.99 -404.208 2886.52C-608.689 2935.06 -801.608 3023.4 -971.95 3146.49L-34.6019 4443.62L902.746 5740.76Z"/>
</mask>
<path d="M902.746 5740.76C1073.09 5617.66 1217.52 5462.22 1327.79 5283.31C1438.05 5104.4 1512 4905.52 1545.41 4698.03C1578.82 4490.54 1571.04 4278.5 1522.5 4074.02C1473.96 3869.54 1385.62 3676.62 1262.53 3506.28C1139.44 3335.94 983.995 3191.51 805.084 3081.24C626.172 2970.97 427.294 2897.02 219.803 2863.61C12.3128 2830.2 -199.726 2837.99 -404.208 2886.52C-608.689 2935.06 -801.608 3023.4 -971.95 3146.49L-34.6019 4443.62L902.746 5740.76Z" fill="#EBF1F8" stroke="#DCE6EF" stroke-width="4" mask="url(#path-4-inside-3_645_383)"/>
<mask id="path-5-inside-4_645_383" fill="white">
<path d="M646.917 5385.14C770.73 5295.67 875.708 5182.69 955.857 5052.65C1036.01 4922.61 1089.76 4778.05 1114.04 4627.24C1138.32 4476.42 1132.66 4322.3 1097.38 4173.68C1062.1 4025.05 997.897 3884.83 908.426 3761.01C818.955 3637.2 705.973 3532.22 575.932 3452.07C445.89 3371.92 301.335 3318.17 150.521 3293.89C-0.293213 3269.61 -154.414 3275.27 -303.041 3310.55C-451.668 3345.83 -591.891 3410.03 -715.704 3499.5L-34.3932 4442.32L646.917 5385.14Z"/>
</mask>
<path d="M646.917 5385.14C770.73 5295.67 875.708 5182.69 955.857 5052.65C1036.01 4922.61 1089.76 4778.05 1114.04 4627.24C1138.32 4476.42 1132.66 4322.3 1097.38 4173.68C1062.1 4025.05 997.897 3884.83 908.426 3761.01C818.955 3637.2 705.973 3532.22 575.932 3452.07C445.89 3371.92 301.335 3318.17 150.521 3293.89C-0.293213 3269.61 -154.414 3275.27 -303.041 3310.55C-451.668 3345.83 -591.891 3410.03 -715.704 3499.5L-34.3932 4442.32L646.917 5385.14Z" fill="#E7EEF6" stroke="#DCE6EF" stroke-width="4" mask="url(#path-5-inside-4_645_383)"/>
</svg>
