<svg width="1920" height="2507" viewBox="0 0 1920 2507" fill="none" xmlns="http://www.w3.org/2000/svg">
<path d="M4344.91 3342.12C4344.91 2903.22 4258.46 2468.63 4090.51 2063.14C3922.55 1657.66 3676.37 1289.23 3366.03 978.883C3055.68 668.539 2687.25 422.36 2281.77 254.403C1876.28 86.4463 1441.69 -1.91846e-05 1002.79 0C563.9 1.91846e-05 129.305 86.4464 -276.179 254.403C-681.663 422.361 -1050.1 668.539 -1360.44 978.883C-1670.78 1289.23 -1916.96 1657.66 -2084.92 2063.14C-2252.88 2468.63 -2339.32 2903.22 -2339.32 3342.12L1002.79 3342.12L4344.91 3342.12Z" fill="white"/>
<mask id="path-2-inside-1_829_1358" fill="white">
<path d="M3658.09 3343.09C3658.09 2994.27 3589.39 2648.85 3455.89 2326.58C3322.4 2004.31 3126.74 1711.48 2880.09 1464.82C2633.43 1218.16 2340.6 1022.5 2018.33 889.013C1696.05 755.523 1350.64 686.816 1001.81 686.816C652.987 686.816 307.575 755.523 -14.699 889.014C-336.973 1022.5 -629.799 1218.16 -876.457 1464.82C-1123.12 1711.48 -1318.78 2004.31 -1452.27 2326.58C-1585.76 2648.85 -1654.46 2994.27 -1654.46 3343.09L1001.81 3343.09L3658.09 3343.09Z"/>
</mask>
<path d="M3658.09 3343.09C3658.09 2994.27 3589.39 2648.85 3455.89 2326.58C3322.4 2004.31 3126.74 1711.48 2880.09 1464.82C2633.43 1218.16 2340.6 1022.5 2018.33 889.013C1696.05 755.523 1350.64 686.816 1001.81 686.816C652.987 686.816 307.575 755.523 -14.699 889.014C-336.973 1022.5 -629.799 1218.16 -876.457 1464.82C-1123.12 1711.48 -1318.78 2004.31 -1452.27 2326.58C-1585.76 2648.85 -1654.46 2994.27 -1654.46 3343.09L1001.81 3343.09L3658.09 3343.09Z" fill="#F5F7FA" stroke="#DCE6EF" stroke-width="4" mask="url(#path-2-inside-1_829_1358)"/>
<mask id="path-3-inside-2_829_1358" fill="white">
<path d="M3164.99 3342.76C3164.99 3058.43 3108.99 2776.88 3000.18 2514.2C2891.37 2251.51 2731.89 2012.83 2530.84 1811.78C2329.79 1610.73 2091.11 1451.24 1828.42 1342.43C1565.73 1233.63 1284.19 1177.62 999.859 1177.62C715.529 1177.62 433.984 1233.63 171.297 1342.43C-91.389 1451.24 -330.072 1610.73 -531.123 1811.78C-732.174 2012.83 -891.657 2251.51 -1000.47 2514.2C-1109.27 2776.88 -1165.28 3058.43 -1165.28 3342.76L999.859 3342.76L3164.99 3342.76Z"/>
</mask>
<path d="M3164.99 3342.76C3164.99 3058.43 3108.99 2776.88 3000.18 2514.2C2891.37 2251.51 2731.89 2012.83 2530.84 1811.78C2329.79 1610.73 2091.11 1451.24 1828.42 1342.43C1565.73 1233.63 1284.19 1177.62 999.859 1177.62C715.529 1177.62 433.984 1233.63 171.297 1342.43C-91.389 1451.24 -330.072 1610.73 -531.123 1811.78C-732.174 2012.83 -891.657 2251.51 -1000.47 2514.2C-1109.27 2776.88 -1165.28 3058.43 -1165.28 3342.76L999.859 3342.76L3164.99 3342.76Z" fill="#F1F5FA" stroke="#DCE6EF" stroke-width="4" mask="url(#path-3-inside-2_829_1358)"/>
<mask id="path-4-inside-3_829_1358" fill="white">
<path d="M2679.72 3342.76C2679.72 3122.15 2636.27 2903.71 2551.85 2699.9C2467.43 2496.09 2343.69 2310.9 2187.7 2154.92C2031.71 1998.93 1846.52 1875.19 1642.71 1790.77C1438.9 1706.35 1220.46 1662.89 999.857 1662.89C779.254 1662.89 560.812 1706.35 357.001 1790.77C153.191 1875.19 -31.9957 1998.93 -187.985 2154.92C-343.975 2310.9 -467.713 2496.09 -552.134 2699.9C-636.555 2903.71 -680.006 3122.15 -680.006 3342.76L999.857 3342.76H2679.72Z"/>
</mask>
<path d="M2679.72 3342.76C2679.72 3122.15 2636.27 2903.71 2551.85 2699.9C2467.43 2496.09 2343.69 2310.9 2187.7 2154.92C2031.71 1998.93 1846.52 1875.19 1642.71 1790.77C1438.9 1706.35 1220.46 1662.89 999.857 1662.89C779.254 1662.89 560.812 1706.35 357.001 1790.77C153.191 1875.19 -31.9957 1998.93 -187.985 2154.92C-343.975 2310.9 -467.713 2496.09 -552.134 2699.9C-636.555 2903.71 -680.006 3122.15 -680.006 3342.76L999.857 3342.76H2679.72Z" fill="#EBF1F8" stroke="#DCE6EF" stroke-width="4" mask="url(#path-4-inside-3_829_1358)"/>
<mask id="path-5-inside-4_829_1358" fill="white">
<path d="M2219.89 3341.78C2219.89 3181.44 2188.3 3022.66 2126.94 2874.52C2065.58 2726.38 1975.64 2591.78 1862.26 2478.4C1748.88 2365.02 1614.28 2275.08 1466.14 2213.72C1318 2152.36 1159.22 2120.77 998.88 2120.77C838.535 2120.77 679.76 2152.36 531.621 2213.72C383.482 2275.08 248.879 2365.02 135.498 2478.4C22.1167 2591.78 -67.822 2726.38 -129.183 2874.52C-190.545 3022.66 -222.127 3181.44 -222.127 3341.78L998.88 3341.78H2219.89Z"/>
</mask>
<path d="M2219.89 3341.78C2219.89 3181.44 2188.3 3022.66 2126.94 2874.52C2065.58 2726.38 1975.64 2591.78 1862.26 2478.4C1748.88 2365.02 1614.28 2275.08 1466.14 2213.72C1318 2152.36 1159.22 2120.77 998.88 2120.77C838.535 2120.77 679.76 2152.36 531.621 2213.72C383.482 2275.08 248.879 2365.02 135.498 2478.4C22.1167 2591.78 -67.822 2726.38 -129.183 2874.52C-190.545 3022.66 -222.127 3181.44 -222.127 3341.78L998.88 3341.78H2219.89Z" fill="#E7EEF6" stroke="#DCE6EF" stroke-width="4" mask="url(#path-5-inside-4_829_1358)"/>
</svg>
