<svg width="360" height="1134" viewBox="0 0 360 1134" fill="none" xmlns="http://www.w3.org/2000/svg">
<path d="M-24.5001 1134C94.8058 1134 212.944 1110.5 323.168 1064.84C433.392 1019.19 533.544 952.269 617.906 867.906C702.268 783.544 769.188 683.392 814.845 573.168C860.501 462.944 884 344.806 884 225.5C884 106.194 860.501 -11.9437 814.845 -122.168C769.188 -232.392 702.268 -332.545 617.906 -416.907C533.544 -501.269 433.392 -568.188 323.168 -613.845C212.944 -659.501 94.8058 -683 -24.5001 -683L-24.5 225.5L-24.5001 1134Z" fill="white"/>
<mask id="path-2-inside-1_866_988" fill="white">
<path d="M-24.7664 947.302C70.0566 947.302 163.951 928.625 251.556 892.338C339.161 856.051 418.761 802.864 485.811 735.814C552.861 668.764 606.048 589.164 642.336 501.559C678.623 413.954 697.3 320.059 697.3 225.236C697.3 130.413 678.623 36.5183 642.336 -51.0868C606.048 -138.692 552.861 -218.292 485.811 -285.342C418.761 -352.392 339.161 -405.579 251.556 -441.866C163.951 -478.153 70.0566 -496.83 -24.7664 -496.83L-24.7664 225.236L-24.7664 947.302Z"/>
</mask>
<path d="M-24.7664 947.302C70.0566 947.302 163.951 928.625 251.556 892.338C339.161 856.051 418.761 802.864 485.811 735.814C552.861 668.764 606.048 589.164 642.336 501.559C678.623 413.954 697.3 320.059 697.3 225.236C697.3 130.413 678.623 36.5183 642.336 -51.0868C606.048 -138.692 552.861 -218.292 485.811 -285.342C418.761 -352.392 339.161 -405.579 251.556 -441.866C163.951 -478.153 70.0566 -496.83 -24.7664 -496.83L-24.7664 225.236L-24.7664 947.302Z" fill="#F5F7FA" stroke="#DCE6EF" stroke-width="4" mask="url(#path-2-inside-1_866_988)"/>
<mask id="path-3-inside-2_866_988" fill="white">
<path d="M-24.6746 813.258C52.6159 813.258 129.149 798.035 200.556 768.457C271.963 738.879 336.846 695.527 391.498 640.874C446.151 586.221 489.503 521.339 519.081 449.932C548.659 378.525 563.882 301.992 563.882 224.701C563.882 147.411 548.659 70.8775 519.081 -0.529543C489.503 -71.9366 446.151 -136.819 391.498 -191.471C336.845 -246.124 271.963 -289.477 200.556 -319.054C129.149 -348.632 52.6158 -363.855 -24.6746 -363.855L-24.6745 224.701L-24.6746 813.258Z"/>
</mask>
<path d="M-24.6746 813.258C52.6159 813.258 129.149 798.035 200.556 768.457C271.963 738.879 336.846 695.527 391.498 640.874C446.151 586.221 489.503 521.339 519.081 449.932C548.659 378.525 563.882 301.992 563.882 224.701C563.882 147.411 548.659 70.8775 519.081 -0.529543C489.503 -71.9366 446.151 -136.819 391.498 -191.471C336.845 -246.124 271.963 -289.477 200.556 -319.054C129.149 -348.632 52.6158 -363.855 -24.6746 -363.855L-24.6745 224.701L-24.6746 813.258Z" fill="#F1F5FA" stroke="#DCE6EF" stroke-width="4" mask="url(#path-3-inside-2_866_988)"/>
<mask id="path-4-inside-3_866_988" fill="white">
<path d="M-24.6753 681.35C35.292 681.35 94.6721 669.538 150.075 646.59C205.477 623.641 255.817 590.005 298.221 547.602C340.624 505.199 374.26 454.859 397.208 399.456C420.157 344.053 431.968 284.673 431.968 224.706C431.968 164.739 420.157 105.359 397.208 49.9561C374.26 -5.44641 340.624 -55.7864 298.221 -98.1897C255.817 -140.593 205.477 -174.229 150.075 -197.178C94.6721 -220.126 35.292 -231.938 -24.6753 -231.938L-24.6753 224.706L-24.6753 681.35Z"/>
</mask>
<path d="M-24.6753 681.35C35.292 681.35 94.6721 669.538 150.075 646.59C205.477 623.641 255.817 590.005 298.221 547.602C340.624 505.199 374.26 454.859 397.208 399.456C420.157 344.053 431.968 284.673 431.968 224.706C431.968 164.739 420.157 105.359 397.208 49.9561C374.26 -5.44641 340.624 -55.7864 298.221 -98.1897C255.817 -140.593 205.477 -174.229 150.075 -197.178C94.6721 -220.126 35.292 -231.938 -24.6753 -231.938L-24.6753 224.706L-24.6753 681.35Z" fill="#EBF1F8" stroke="#DCE6EF" stroke-width="4" mask="url(#path-4-inside-3_866_988)"/>
<mask id="path-5-inside-4_866_988" fill="white">
<path d="M-24.4086 556.345C19.1786 556.345 62.3389 547.76 102.608 531.08C142.878 514.4 179.467 489.952 210.288 459.131C241.109 428.31 265.557 391.721 282.237 351.451C298.917 311.182 307.502 268.022 307.502 224.434C307.502 180.847 298.917 137.687 282.237 97.4176C265.557 57.1483 241.109 20.5587 210.288 -10.2621C179.467 -41.0829 142.878 -65.5313 102.608 -82.2114C62.3389 -98.8914 19.1786 -107.477 -24.4086 -107.477L-24.4086 224.434L-24.4086 556.345Z"/>
</mask>
<path d="M-24.4086 556.345C19.1786 556.345 62.3389 547.76 102.608 531.08C142.878 514.4 179.467 489.952 210.288 459.131C241.109 428.31 265.557 391.721 282.237 351.451C298.917 311.182 307.502 268.022 307.502 224.434C307.502 180.847 298.917 137.687 282.237 97.4176C265.557 57.1483 241.109 20.5587 210.288 -10.2621C179.467 -41.0829 142.878 -65.5313 102.608 -82.2114C62.3389 -98.8914 19.1786 -107.477 -24.4086 -107.477L-24.4086 224.434L-24.4086 556.345Z" fill="#E7EEF6" stroke="#DCE6EF" stroke-width="4" mask="url(#path-5-inside-4_866_988)"/>
</svg>
