<svg width="360" height="1060" viewBox="0 0 360 1060" fill="none" xmlns="http://www.w3.org/2000/svg">
<path d="M544 1.12929e-05C419.638 9.80986e-06 296.494 24.4949 181.599 72.0861C66.7035 119.677 -37.693 189.433 -125.63 277.37C-213.567 365.307 -283.323 469.703 -330.914 584.599C-378.505 699.494 -403 822.638 -403 947C-403 1071.36 -378.505 1194.51 -330.914 1309.4C-283.323 1424.3 -213.567 1528.69 -125.63 1616.63C-37.693 1704.57 66.7035 1774.32 181.599 1821.91C296.494 1869.51 419.638 1894 544 1894L544 947L544 1.12929e-05Z" fill="white"/>
<mask id="path-2-inside-1_866_994" fill="white">
<path d="M544.278 194.611C445.436 194.611 347.563 214.079 256.245 251.904C164.928 289.729 81.9544 345.17 12.0629 415.061C-57.8285 484.953 -113.269 567.926 -151.094 659.243C-188.919 750.561 -208.388 848.435 -208.388 947.276C-208.388 1046.12 -188.919 1143.99 -151.094 1235.31C-113.269 1326.63 -57.8285 1409.6 12.0629 1479.49C81.9544 1549.38 164.928 1604.82 256.245 1642.65C347.563 1680.47 445.436 1699.94 544.278 1699.94L544.278 947.276L544.278 194.611Z"/>
</mask>
<path d="M544.278 194.611C445.436 194.611 347.563 214.079 256.245 251.904C164.928 289.729 81.9544 345.17 12.0629 415.061C-57.8285 484.953 -113.269 567.926 -151.094 659.243C-188.919 750.561 -208.388 848.435 -208.388 947.276C-208.388 1046.12 -188.919 1143.99 -151.094 1235.31C-113.269 1326.63 -57.8285 1409.6 12.0629 1479.49C81.9544 1549.38 164.928 1604.82 256.245 1642.65C347.563 1680.47 445.436 1699.94 544.278 1699.94L544.278 947.276L544.278 194.611Z" fill="#F5F7FA" stroke="#DCE6EF" stroke-width="4" mask="url(#path-2-inside-1_866_994)"/>
<mask id="path-3-inside-2_866_994" fill="white">
<path d="M544.182 334.333C463.616 334.333 383.839 350.202 309.406 381.033C234.973 411.864 167.342 457.054 110.373 514.023C53.4043 570.991 8.21434 638.623 -22.6169 713.056C-53.448 787.489 -69.3166 867.266 -69.3166 947.832C-69.3166 1028.4 -53.448 1108.17 -22.6168 1182.61C8.21435 1257.04 53.4043 1324.67 110.373 1381.64C167.342 1438.61 234.973 1483.8 309.406 1514.63C383.839 1545.46 463.616 1561.33 544.182 1561.33L544.182 947.832L544.182 334.333Z"/>
</mask>
<path d="M544.182 334.333C463.616 334.333 383.839 350.202 309.406 381.033C234.973 411.864 167.342 457.054 110.373 514.023C53.4043 570.991 8.21434 638.623 -22.6169 713.056C-53.448 787.489 -69.3166 867.266 -69.3166 947.832C-69.3166 1028.4 -53.448 1108.17 -22.6168 1182.61C8.21435 1257.04 53.4043 1324.67 110.373 1381.64C167.342 1438.61 234.973 1483.8 309.406 1514.63C383.839 1545.46 463.616 1561.33 544.182 1561.33L544.182 947.832L544.182 334.333Z" fill="#F1F5FA" stroke="#DCE6EF" stroke-width="4" mask="url(#path-3-inside-2_866_994)"/>
<mask id="path-4-inside-3_866_994" fill="white">
<path d="M544.183 471.832C481.674 471.832 419.778 484.144 362.027 508.065C304.277 531.986 251.804 567.048 207.603 611.248C163.403 655.448 128.342 707.921 104.421 765.672C80.4997 823.422 68.1877 885.319 68.1877 947.827C68.1878 1010.34 80.4997 1072.23 104.421 1129.98C128.342 1187.73 163.403 1240.21 207.603 1284.41C251.804 1328.61 304.277 1363.67 362.027 1387.59C419.778 1411.51 481.674 1423.82 544.183 1423.82L544.183 947.827L544.183 471.832Z"/>
</mask>
<path d="M544.183 471.832C481.674 471.832 419.778 484.144 362.027 508.065C304.277 531.986 251.804 567.048 207.603 611.248C163.403 655.448 128.342 707.921 104.421 765.672C80.4997 823.422 68.1877 885.319 68.1877 947.827C68.1878 1010.34 80.4997 1072.23 104.421 1129.98C128.342 1187.73 163.403 1240.21 207.603 1284.41C251.804 1328.61 304.277 1363.67 362.027 1387.59C419.778 1411.51 481.674 1423.82 544.183 1423.82L544.183 947.827L544.183 471.832Z" fill="#EBF1F8" stroke="#DCE6EF" stroke-width="4" mask="url(#path-4-inside-3_866_994)"/>
<mask id="path-5-inside-4_866_994" fill="white">
<path d="M543.905 602.135C498.471 602.135 453.481 611.084 411.505 628.471C369.529 645.858 331.389 671.342 299.262 703.469C267.136 735.596 241.651 773.736 224.264 815.712C206.877 857.688 197.928 902.677 197.928 948.111C197.928 993.546 206.877 1038.54 224.264 1080.51C241.651 1122.49 267.136 1160.63 299.262 1192.75C331.389 1224.88 369.53 1250.37 411.505 1267.75C453.481 1285.14 498.471 1294.09 543.905 1294.09L543.905 948.111L543.905 602.135Z"/>
</mask>
<path d="M543.905 602.135C498.471 602.135 453.481 611.084 411.505 628.471C369.529 645.858 331.389 671.342 299.262 703.469C267.136 735.596 241.651 773.736 224.264 815.712C206.877 857.688 197.928 902.677 197.928 948.111C197.928 993.546 206.877 1038.54 224.264 1080.51C241.651 1122.49 267.136 1160.63 299.262 1192.75C331.389 1224.88 369.53 1250.37 411.505 1267.75C453.481 1285.14 498.471 1294.09 543.905 1294.09L543.905 948.111L543.905 602.135Z" fill="#E7EEF6" stroke="#DCE6EF" stroke-width="4" mask="url(#path-5-inside-4_866_994)"/>
</svg>
