<svg width="1920" height="2812" viewBox="0 0 1920 2812" fill="none" xmlns="http://www.w3.org/2000/svg">
<path d="M-1892.05 -0.000735806C-1892.05 369.276 -1819.31 734.938 -1677.99 1076.11C-1536.68 1417.27 -1329.55 1727.27 -1068.43 1988.38C-807.311 2249.5 -497.318 2456.63 -156.151 2597.95C185.017 2739.27 550.678 2812 919.955 2812C1289.23 2812 1654.89 2739.27 1996.06 2597.95C2337.23 2456.63 2647.22 2249.5 2908.34 1988.38C3169.46 1727.27 3376.59 1417.27 3517.9 1076.11C3659.22 734.938 3731.96 369.277 3731.96 -0.000488281L919.955 -0.000489974L-1892.05 -0.000735806Z" fill="white"/>
<mask id="path-2-inside-1_829_1352" fill="white">
<path d="M-1314.17 -0.822901C-1314.17 292.675 -1256.36 583.298 -1144.04 854.455C-1031.73 1125.61 -867.101 1371.99 -659.567 1579.52C-452.033 1787.06 -205.655 1951.68 65.5017 2064C336.658 2176.32 627.282 2234.12 920.779 2234.12C1214.28 2234.12 1504.9 2176.32 1776.06 2064C2047.21 1951.68 2293.59 1787.06 2501.13 1579.52C2708.66 1371.99 2873.28 1125.61 2985.6 854.455C3097.92 583.298 3155.73 292.675 3155.73 -0.822754L920.779 -0.822705L-1314.17 -0.822901Z"/>
</mask>
<path d="M-1314.17 -0.822901C-1314.17 292.675 -1256.36 583.298 -1144.04 854.455C-1031.73 1125.61 -867.101 1371.99 -659.567 1579.52C-452.033 1787.06 -205.655 1951.68 65.5017 2064C336.658 2176.32 627.282 2234.12 920.779 2234.12C1214.28 2234.12 1504.9 2176.32 1776.06 2064C2047.21 1951.68 2293.59 1787.06 2501.13 1579.52C2708.66 1371.99 2873.28 1125.61 2985.6 854.455C3097.92 583.298 3155.73 292.675 3155.73 -0.822754L920.779 -0.822705L-1314.17 -0.822901Z" fill="#F5F7FA" stroke="#DCE6EF" stroke-width="4" mask="url(#path-2-inside-1_829_1352)"/>
<mask id="path-3-inside-2_829_1352" fill="white">
<path d="M-899.284 -0.540846C-899.284 238.689 -852.164 475.577 -760.615 696.597C-669.065 917.617 -534.879 1118.44 -365.718 1287.6C-196.557 1456.76 4.26687 1590.95 225.287 1682.5C446.307 1774.05 683.194 1821.17 922.424 1821.17C1161.65 1821.17 1398.54 1774.05 1619.56 1682.5C1840.58 1590.95 2041.41 1456.76 2210.57 1287.6C2379.73 1118.44 2513.91 917.617 2605.46 696.597C2697.01 475.577 2744.13 238.689 2744.13 -0.540649L922.424 -0.540687L-899.284 -0.540846Z"/>
</mask>
<path d="M-899.284 -0.540846C-899.284 238.689 -852.164 475.577 -760.615 696.597C-669.065 917.617 -534.879 1118.44 -365.718 1287.6C-196.557 1456.76 4.26687 1590.95 225.287 1682.5C446.307 1774.05 683.194 1821.17 922.424 1821.17C1161.65 1821.17 1398.54 1774.05 1619.56 1682.5C1840.58 1590.95 2041.41 1456.76 2210.57 1287.6C2379.73 1118.44 2513.91 917.617 2605.46 696.597C2697.01 475.577 2744.13 238.689 2744.13 -0.540649L922.424 -0.540687L-899.284 -0.540846Z" fill="#F1F5FA" stroke="#DCE6EF" stroke-width="4" mask="url(#path-3-inside-2_829_1352)"/>
<mask id="path-4-inside-3_829_1352" fill="white">
<path d="M-490.984 -0.541873C-490.984 185.07 -454.425 368.864 -383.394 540.346C-312.364 711.829 -208.253 867.642 -77.0058 998.889C54.2415 1130.14 210.054 1234.25 381.537 1305.28C553.02 1376.31 736.814 1412.87 922.425 1412.87C1108.04 1412.87 1291.83 1376.31 1463.31 1305.28C1634.8 1234.25 1790.61 1130.14 1921.86 998.889C2053.1 867.642 2157.21 711.829 2228.24 540.346C2299.28 368.864 2335.83 185.07 2335.83 -0.541748L922.425 -0.54175L-490.984 -0.541873Z"/>
</mask>
<path d="M-490.984 -0.541873C-490.984 185.07 -454.425 368.864 -383.394 540.346C-312.364 711.829 -208.253 867.642 -77.0058 998.889C54.2415 1130.14 210.054 1234.25 381.537 1305.28C553.02 1376.31 736.814 1412.87 922.425 1412.87C1108.04 1412.87 1291.83 1376.31 1463.31 1305.28C1634.8 1234.25 1790.61 1130.14 1921.86 998.889C2053.1 867.642 2157.21 711.829 2228.24 540.346C2299.28 368.864 2335.83 185.07 2335.83 -0.541748L922.425 -0.54175L-490.984 -0.541873Z" fill="#EBF1F8" stroke="#DCE6EF" stroke-width="4" mask="url(#path-4-inside-3_829_1352)"/>
<mask id="path-5-inside-4_829_1352" fill="white">
<path d="M-104.086 0.282047C-104.086 135.194 -77.5131 268.784 -25.8847 393.426C25.7437 518.068 101.417 631.321 196.814 726.718C292.21 822.114 405.463 897.787 530.105 949.416C654.747 1001.04 788.338 1027.62 923.249 1027.62C1058.16 1027.62 1191.75 1001.04 1316.39 949.416C1441.04 897.787 1554.29 822.115 1649.68 726.718C1745.08 631.321 1820.75 518.068 1872.38 393.426C1924.01 268.784 1950.58 135.194 1950.58 0.282104L923.249 0.282137L-104.086 0.282047Z"/>
</mask>
<path d="M-104.086 0.282047C-104.086 135.194 -77.5131 268.784 -25.8847 393.426C25.7437 518.068 101.417 631.321 196.814 726.718C292.21 822.114 405.463 897.787 530.105 949.416C654.747 1001.04 788.338 1027.62 923.249 1027.62C1058.16 1027.62 1191.75 1001.04 1316.39 949.416C1441.04 897.787 1554.29 822.115 1649.68 726.718C1745.08 631.321 1820.75 518.068 1872.38 393.426C1924.01 268.784 1950.58 135.194 1950.58 0.282104L923.249 0.282137L-104.086 0.282047Z" fill="#E7EEF6" stroke="#DCE6EF" stroke-width="4" mask="url(#path-5-inside-4_829_1352)"/>
</svg>
