<svg width="1407" height="617" viewBox="0 0 1407 617" fill="none" xmlns="http://www.w3.org/2000/svg">
<path d="M85.1922 320.665C81.8475 243.2 120.869 93.1734 303.713 112.79C532.269 137.312 372.838 479.497 636.513 483.398C900.188 487.299 775.319 53.7163 986.593 36.4399C1197.87 19.1635 1037.3 516.717 1316.05 483.398" stroke="#0BACF0" stroke-width="3" stroke-dasharray="4 4"/>
<circle cx="85.5" cy="314.5" r="47.5" fill="#0BACF0"/>
<path d="M70.1857 298C67.3291 298 65 300.329 65 303.186V325.814C65 328.671 67.3291 331 70.1857 331H101.3C104.157 331 106.486 328.671 106.486 325.814V303.186C106.486 300.329 104.157 298 101.3 298H70.1857ZM70.1857 299.886H101.3C103.145 299.886 104.6 301.341 104.6 303.186V304.6H66.8857V303.186C66.8857 301.341 68.3412 299.886 70.1857 299.886ZM71.1286 300.829C70.3475 300.829 69.7143 301.462 69.7143 302.243C69.7143 303.024 70.3475 303.657 71.1286 303.657C71.9097 303.657 72.5429 303.024 72.5429 302.243C72.5429 301.462 71.9097 300.829 71.1286 300.829ZM75.3714 300.829C74.5903 300.829 73.9571 301.462 73.9571 302.243C73.9571 303.024 74.5903 303.657 75.3714 303.657C76.1525 303.657 76.7857 303.024 76.7857 302.243C76.7857 301.462 76.1525 300.829 75.3714 300.829ZM79.6143 300.829C78.8332 300.829 78.2 301.462 78.2 302.243C78.2 303.024 78.8332 303.657 79.6143 303.657C80.3954 303.657 81.0286 303.024 81.0286 302.243C81.0286 301.462 80.3954 300.829 79.6143 300.829ZM66.8857 306.486H104.6V325.814C104.6 327.659 103.145 329.114 101.3 329.114H70.1857C68.3412 329.114 66.8857 327.659 66.8857 325.814V306.486ZM85.6103 308.371C85.4489 308.396 85.2966 308.462 85.1683 308.563L77.154 314.692C77.0389 314.78 76.9458 314.894 76.882 315.024C76.8181 315.154 76.7851 315.298 76.7857 315.443V326.286C76.7857 326.536 76.8851 326.776 77.0619 326.952C77.2387 327.129 77.4785 327.229 77.7286 327.229H83.3857C83.6358 327.229 83.8756 327.129 84.0524 326.952C84.2292 326.776 84.3285 326.536 84.3286 326.286V320.629H87.1571V326.286C87.1572 326.536 87.2565 326.776 87.4333 326.952C87.6101 327.129 87.8499 327.229 88.1 327.229H93.7571C94.0072 327.229 94.247 327.129 94.4238 326.952C94.6006 326.776 94.7 326.536 94.7 326.286V315.443C94.7006 315.298 94.6676 315.154 94.6038 315.024C94.5399 314.894 94.4468 314.78 94.3317 314.692L86.3174 308.563C86.2183 308.485 86.1046 308.429 85.9832 308.396C85.8618 308.363 85.735 308.355 85.6103 308.371ZM85.7429 310.493L92.8143 315.9V325.343H89.0429V319.686C89.0428 319.436 88.9435 319.196 88.7667 319.019C88.5899 318.842 88.3501 318.743 88.1 318.743H83.3857C83.1357 318.743 82.8959 318.842 82.719 319.019C82.5422 319.196 82.4429 319.436 82.4429 319.686V325.343H78.6714V315.9L85.7429 310.493Z" fill="white"/>
<circle cx="299.5" cy="113.5" r="47.5" fill="#0BACF0"/>
<path d="M319.667 105.586L311.601 97.2576C311.268 96.9141 310.769 96.9141 310.437 97.2576L307.609 100.177C307.193 100.606 306.778 100.864 306.279 101.121L304.449 100.606C302.786 100.177 301.04 100.263 299.459 100.864C298.378 101.293 297.38 101.894 296.549 102.753C296.133 102.581 295.717 102.495 295.385 102.409C294.22 102.237 293.139 101.636 292.308 100.778L289.48 97.8586C289.314 97.6869 289.148 97.601 288.898 97.601C288.649 97.601 288.482 97.6869 288.316 97.8586L280.249 106.187C279.917 106.53 279.917 107.045 280.249 107.389L283.077 110.308C283.909 111.167 284.491 112.283 284.657 113.485C284.823 114.429 285.156 115.374 285.572 116.146L284.574 117.348C283.576 118.636 283.742 120.525 284.99 121.556C285.489 121.985 286.154 122.242 286.819 122.242C286.902 122.242 286.985 122.242 287.152 122.242C287.235 123.015 287.568 123.788 288.233 124.303C288.732 124.732 289.397 124.99 290.062 124.99C290.146 124.99 290.229 124.99 290.395 124.99C290.478 125.763 290.811 126.535 291.476 127.051C291.975 127.48 292.64 127.737 293.306 127.737C293.389 127.737 293.472 127.737 293.638 127.737C293.721 128.51 294.054 129.197 294.719 129.712C295.218 130.141 295.884 130.399 296.549 130.399C297.214 130.399 297.879 130.141 298.378 129.712L298.711 130.056C299.293 130.657 300.125 131 300.873 131C301.538 131 302.204 130.742 302.786 130.227C303.285 129.712 303.617 129.111 303.701 128.424C303.867 128.424 304.033 128.51 304.2 128.51C304.948 128.51 305.696 128.167 306.195 127.652C306.528 127.308 306.778 126.965 306.861 126.535C307.36 126.879 307.942 127.051 308.524 127.051C309.272 127.051 310.021 126.793 310.52 126.192C311.102 125.591 311.351 124.818 311.351 124.045C311.351 124.045 311.351 124.045 311.435 124.045C312.1 124.045 312.765 123.788 313.347 123.273C313.929 122.758 314.262 121.985 314.262 121.126C314.262 120.354 314.012 119.495 313.43 118.98L312.599 118.121L313.514 117.177C314.595 116.061 315.343 114.601 315.593 113.056C315.759 111.854 316.341 110.737 317.173 109.879L320 106.96C320 106.444 320 105.929 319.667 105.586ZM286.071 120.268C285.572 119.838 285.489 119.066 285.904 118.551L288.399 115.46C288.649 115.202 288.981 115.03 289.314 115.03C289.563 115.03 289.896 115.116 290.062 115.288C290.561 115.717 290.644 116.49 290.229 117.005L287.734 120.096C287.401 120.611 286.57 120.697 286.071 120.268ZM289.231 122.929C288.732 122.5 288.649 121.727 289.064 121.212L291.559 118.121L292.89 116.49C293.139 116.232 293.472 116.061 293.805 116.061C294.054 116.061 294.387 116.146 294.553 116.318C294.802 116.49 294.969 116.833 294.969 117.177C294.969 117.52 294.886 117.864 294.719 118.121L294.304 118.636L290.977 122.843C290.561 123.273 289.73 123.359 289.231 122.929ZM292.391 125.677C292.141 125.505 291.975 125.162 291.975 124.818C291.975 124.475 292.058 124.131 292.225 123.874L295.551 119.667C295.8 119.409 296.133 119.237 296.466 119.237C296.715 119.237 297.048 119.323 297.214 119.495C297.464 119.667 297.63 120.01 297.63 120.354C297.63 120.697 297.547 121.04 297.38 121.298L294.054 125.505C293.721 125.934 292.89 126.02 292.391 125.677ZM295.551 128.338C295.301 128.167 295.135 127.823 295.135 127.48C295.135 127.136 295.218 126.793 295.385 126.535L297.879 123.444C298.129 123.187 298.462 123.015 298.794 123.015C299.044 123.015 299.376 123.101 299.543 123.273C299.792 123.444 299.958 123.788 299.958 124.131C299.958 124.475 299.875 124.818 299.709 125.076L297.214 128.167C296.881 128.682 296.05 128.768 295.551 128.338ZM301.372 128.854C300.873 129.283 300.125 129.197 299.626 128.682L299.293 128.338L300.79 126.364L301.455 127.051C301.705 127.308 301.788 127.652 301.788 127.995C301.788 128.253 301.622 128.596 301.372 128.854ZM312.017 121.813C311.518 122.242 310.769 122.157 310.27 121.641L301.705 112.884C301.372 112.54 300.873 112.54 300.541 112.884C300.208 113.227 300.208 113.742 300.541 114.086L309.106 122.929L309.189 123.015C309.688 123.53 309.688 124.303 309.189 124.818C308.69 125.333 307.942 125.333 307.443 124.818L304.2 121.47L298.794 115.889C298.462 115.545 297.963 115.545 297.63 115.889C297.297 116.232 297.297 116.747 297.63 117.091L303.035 122.672L304.865 124.561C305.114 124.818 305.198 125.076 305.198 125.419C305.198 125.763 305.031 126.106 304.865 126.278C304.366 126.793 303.617 126.793 303.119 126.278L301.622 124.732C301.705 124.475 301.705 124.217 301.705 123.874C301.622 123.101 301.289 122.414 300.624 121.899C300.208 121.556 299.792 121.384 299.293 121.298C299.376 120.955 299.459 120.525 299.376 120.182C299.293 119.409 298.96 118.722 298.295 118.207C297.796 117.778 297.214 117.606 296.632 117.52C296.632 117.348 296.632 117.177 296.632 117.005C296.549 116.232 296.216 115.545 295.551 115.03C295.052 114.601 294.387 114.343 293.721 114.343C293.056 114.343 292.391 114.601 291.892 115.03C291.726 114.601 291.476 114.258 291.143 113.914C290.644 113.485 289.979 113.227 289.314 113.227C288.482 113.227 287.651 113.657 287.069 114.343L286.736 114.773C286.486 114.258 286.403 113.742 286.32 113.227C286.071 111.682 285.322 110.222 284.241 109.106L281.996 106.788L288.898 99.6616L291.143 101.98C292.225 103.096 293.638 103.869 295.135 104.126L291.809 107.303C291.31 107.732 291.06 108.419 291.06 109.02C291.06 109.707 291.31 110.308 291.726 110.823C292.474 111.682 293.638 111.854 294.636 111.338L298.545 109.278C299.127 109.02 299.709 108.848 300.374 109.02C300.956 109.106 301.455 109.364 301.871 109.793L312.183 120.096C312.432 120.354 312.516 120.697 312.516 121.04C312.432 121.298 312.266 121.641 312.017 121.813ZM315.676 108.419C314.595 109.535 313.846 110.995 313.597 112.54C313.43 113.742 312.848 114.859 312.017 115.717L311.102 116.662L302.869 108.419C302.204 107.732 301.455 107.389 300.541 107.217C299.543 107.045 298.545 107.217 297.63 107.646L293.721 109.707C293.389 109.879 293.056 109.793 292.807 109.535C292.64 109.364 292.557 109.192 292.64 108.934C292.64 108.677 292.723 108.505 292.89 108.419L297.713 103.869C298.378 103.182 299.21 102.667 300.125 102.323C301.455 101.808 302.786 101.808 304.116 102.152L305.946 102.667C306.029 102.667 306.029 102.667 306.112 102.667C306.362 102.838 306.611 102.838 306.861 102.667C307.609 102.323 308.274 101.808 308.857 101.207L311.102 98.8889L318.004 106.015L315.676 108.419Z" fill="white"/>
<circle cx="664.5" cy="476.5" r="47.5" fill="#0BACF0"/>
<path d="M646.8 497.997H663.6C664.342 497.997 665.054 497.702 665.579 497.177C666.104 496.652 666.399 495.939 666.399 495.197V484.697H668.506C668.506 485.068 668.653 485.424 668.916 485.687C669.178 485.95 669.534 486.097 669.906 486.097V487.497C669.906 487.913 670.03 488.32 670.262 488.666C670.494 489.011 670.823 489.28 671.208 489.438C670.799 490.138 670.589 490.937 670.601 491.748C670.601 493.653 671.668 494.65 672.61 495.528L672.916 495.817C673.356 496.298 673.723 496.84 674.006 497.427C674.074 497.561 674.17 497.678 674.288 497.771C674.406 497.864 674.542 497.93 674.688 497.966C674.834 498.001 674.986 498.004 675.133 497.975C675.28 497.947 675.419 497.886 675.541 497.799C676.58 497.054 678.999 495.01 678.999 492.157C679.001 491.213 678.739 490.287 678.243 489.484C678.663 489.349 679.03 489.083 679.291 488.726C679.552 488.369 679.693 487.939 679.694 487.497V486.097C680.066 486.097 680.422 485.95 680.684 485.687C680.947 485.424 681.094 485.068 681.094 484.697H684.599C684.804 484.697 685.006 484.652 685.192 484.565C685.378 484.478 685.542 484.351 685.673 484.194C685.805 484.037 685.9 483.852 685.952 483.654C686.004 483.456 686.013 483.249 685.976 483.047L684.831 476.747C684.773 476.425 684.603 476.133 684.352 475.923C684.1 475.713 683.783 475.598 683.455 475.597H681.093V465.098C681.093 460.934 677.282 457.549 675.643 456.287C675.401 456.101 675.104 456 674.799 456C674.494 456 674.197 456.101 673.955 456.287C672.316 457.549 668.506 460.934 668.506 465.098V475.597H666.399V462.998C666.399 462.255 666.104 461.543 665.579 461.018C665.054 460.493 664.342 460.198 663.6 460.198H646.8C646.057 460.198 645.345 460.493 644.82 461.018C644.295 461.543 644 462.255 644 462.998V495.197C644 495.939 644.295 496.652 644.82 497.177C645.345 497.702 646.057 497.997 646.8 497.997ZM663.6 496.597H646.8C646.429 496.597 646.073 496.449 645.81 496.187C645.547 495.924 645.4 495.568 645.4 495.197V492.397H665V495.197C665 495.568 664.852 495.924 664.589 496.187C664.327 496.449 663.971 496.597 663.6 496.597ZM665 490.997H645.4V467.198H665V476.199C664.883 476.363 664.804 476.55 664.766 476.747L663.622 483.047C663.585 483.249 663.594 483.456 663.646 483.654C663.698 483.853 663.793 484.037 663.925 484.194C664.056 484.352 664.221 484.478 664.406 484.565C664.592 484.652 664.795 484.697 665 484.697V490.997ZM679.694 476.297V484.697H676.899V477.697C676.899 477.326 676.752 476.97 676.489 476.707C676.227 476.445 675.871 476.297 675.499 476.297H674.099C673.728 476.297 673.372 476.445 673.109 476.707C672.847 476.97 672.699 477.326 672.699 477.697V484.697H669.906V465.798H679.693L679.694 476.297ZM675.499 485.397H674.099V477.697H675.499V485.397ZM675.049 496.418C674.737 495.831 674.346 495.291 673.885 494.812L673.565 494.51C672.725 493.727 671.999 493.047 671.999 491.75C671.985 491.348 672.058 490.948 672.212 490.576C672.366 490.205 672.598 489.871 672.893 489.597H676.532C676.876 489.928 677.148 490.326 677.331 490.766C677.515 491.207 677.606 491.68 677.599 492.157C677.599 494.134 675.923 495.723 675.048 496.418H675.049ZM678.294 487.497C678.294 487.683 678.221 487.861 678.089 487.992C677.958 488.123 677.78 488.197 677.594 488.197H671.999C671.814 488.197 671.636 488.123 671.504 487.992C671.373 487.861 671.299 487.683 671.299 487.497V486.097H672.895C673.017 486.309 673.192 486.485 673.404 486.608C673.615 486.731 673.855 486.796 674.099 486.797H675.499C675.744 486.796 675.984 486.731 676.196 486.608C676.407 486.486 676.583 486.309 676.705 486.097H678.296L678.294 487.497ZM683.454 476.997L684.599 483.297H681.093V476.997H683.454ZM674.789 457.398C675.865 458.227 679.218 461.057 679.648 464.398H669.951C670.38 461.055 673.733 458.225 674.789 457.398ZM668.506 483.297H665L666.143 476.997H668.505L668.506 483.297ZM646.8 461.598H663.6C663.971 461.598 664.327 461.745 664.589 462.008C664.852 462.27 665 462.626 665 462.998V465.798H645.4V462.998C645.4 462.626 645.547 462.27 645.81 462.008C646.073 461.745 646.429 461.598 646.8 461.598Z" fill="white"/>
<path d="M674.799 474.197C675.488 474.198 676.162 473.994 676.736 473.612C677.311 473.231 677.759 472.688 678.025 472.052C678.292 471.416 678.364 470.715 678.233 470.038C678.103 469.361 677.774 468.738 677.29 468.247C677.283 468.239 677.281 468.228 677.272 468.22C677.264 468.212 677.253 468.21 677.246 468.202C676.836 467.799 676.333 467.503 675.782 467.341C675.231 467.178 674.648 467.153 674.085 467.269C673.523 467.385 672.997 467.638 672.555 468.005C672.113 468.372 671.768 468.842 671.551 469.374C671.333 469.906 671.251 470.484 671.309 471.056C671.368 471.627 671.567 472.176 671.888 472.652C672.209 473.129 672.642 473.519 673.15 473.789C673.658 474.058 674.224 474.198 674.799 474.197ZM674.799 468.597C675.11 468.599 675.417 468.67 675.697 468.807L674.304 470.202C674.237 470.266 674.183 470.343 674.147 470.429C674.11 470.514 674.091 470.606 674.09 470.699C674.089 470.792 674.107 470.884 674.142 470.97C674.177 471.056 674.229 471.134 674.295 471.2C674.361 471.266 674.439 471.318 674.525 471.353C674.611 471.388 674.703 471.406 674.796 471.405C674.889 471.404 674.981 471.385 675.066 471.348C675.152 471.312 675.229 471.258 675.293 471.191L676.688 469.798C676.825 470.078 676.897 470.385 676.898 470.697C676.898 471.113 676.775 471.519 676.545 471.864C676.314 472.209 675.986 472.478 675.602 472.637C675.218 472.796 674.796 472.838 674.389 472.757C673.981 472.676 673.607 472.476 673.314 472.182C673.02 471.888 672.82 471.514 672.739 471.107C672.658 470.7 672.699 470.277 672.858 469.894C673.017 469.51 673.287 469.182 673.632 468.951C673.977 468.72 674.383 468.597 674.799 468.597Z" fill="white"/>
<path d="M650.237 480.658L654.557 483.125C654.752 483.238 654.974 483.297 655.199 483.298C655.423 483.298 655.643 483.239 655.836 483.127L660.16 480.658C660.353 480.549 660.514 480.39 660.626 480.199C660.738 480.008 660.798 479.79 660.799 479.569V474.427C660.796 474.358 660.787 474.289 660.771 474.221L660.767 474.191C660.733 474.014 660.662 473.846 660.557 473.699C660.453 473.551 660.318 473.428 660.162 473.337L655.841 470.869C655.647 470.757 655.426 470.698 655.201 470.698C654.977 470.698 654.756 470.757 654.561 470.869L650.236 473.338C650.08 473.429 649.945 473.552 649.841 473.699C649.737 473.846 649.666 474.014 649.632 474.191L649.628 474.221C649.612 474.289 649.603 474.358 649.6 474.427V479.569C649.601 479.79 649.66 480.008 649.772 480.199C649.884 480.39 650.045 480.548 650.237 480.658ZM655.199 481.88L651 479.481V475.503L654.383 477.479C654.42 477.5 654.461 477.509 654.499 477.528V479.098C654.499 479.283 654.573 479.461 654.705 479.593C654.836 479.724 655.014 479.798 655.199 479.798C655.385 479.798 655.563 479.724 655.694 479.593C655.826 479.461 655.899 479.283 655.899 479.098V477.526C655.939 477.507 655.982 477.498 656.021 477.476L659.399 475.503V479.481L655.199 481.88ZM655.199 472.115L658.852 474.202L655.321 476.264C655.284 476.286 655.242 476.297 655.199 476.298C655.159 476.298 655.119 476.287 655.083 476.268L651.547 474.202L655.199 472.115Z" fill="white"/>
<path d="M657.999 464.398H658.699C658.884 464.398 659.062 464.324 659.194 464.193C659.325 464.062 659.399 463.884 659.399 463.698C659.399 463.512 659.325 463.334 659.194 463.203C659.062 463.072 658.884 462.998 658.699 462.998H657.999C657.813 462.998 657.635 463.072 657.504 463.203C657.373 463.334 657.299 463.512 657.299 463.698C657.299 463.884 657.373 464.062 657.504 464.193C657.635 464.324 657.813 464.398 657.999 464.398Z" fill="white"/>
<path d="M651.7 464.398H655.2C655.386 464.398 655.564 464.324 655.695 464.193C655.826 464.062 655.9 463.884 655.9 463.698C655.9 463.512 655.826 463.334 655.695 463.203C655.564 463.072 655.386 462.998 655.2 462.998H651.7C651.514 462.998 651.336 463.072 651.205 463.203C651.074 463.334 651 463.512 651 463.698C651 463.884 651.074 464.062 651.205 464.193C651.336 464.324 651.514 464.398 651.7 464.398Z" fill="white"/>
<path d="M656.6 493.797H653.8C653.614 493.797 653.436 493.871 653.305 494.002C653.173 494.133 653.1 494.311 653.1 494.497C653.1 494.683 653.173 494.861 653.305 494.992C653.436 495.123 653.614 495.197 653.8 495.197H656.6C656.785 495.197 656.963 495.123 657.094 494.992C657.226 494.861 657.3 494.683 657.3 494.497C657.3 494.311 657.226 494.133 657.094 494.002C656.963 493.871 656.785 493.797 656.6 493.797Z" fill="white"/>
<path d="M660.476 482.677L655.302 485.374C655.271 485.389 655.237 485.397 655.202 485.397C655.167 485.397 655.133 485.389 655.102 485.374L649.922 482.674C649.757 482.588 649.565 482.571 649.388 482.627C649.211 482.683 649.063 482.807 648.978 482.971C648.892 483.136 648.875 483.328 648.931 483.505C648.987 483.682 649.11 483.83 649.275 483.916L654.455 486.618C654.685 486.735 654.939 486.796 655.197 486.796C655.455 486.796 655.709 486.735 655.939 486.618L661.119 483.918C661.284 483.833 661.407 483.685 661.463 483.508C661.519 483.331 661.502 483.139 661.416 482.974C661.331 482.81 661.183 482.686 661.006 482.63C660.829 482.574 660.637 482.591 660.472 482.677H660.476Z" fill="white"/>
<circle cx="996.5" cy="47.5" r="47.5" fill="#0BACF0"/>
<path d="M984.749 38.7756C985.362 39.2596 986.137 39.5499 986.911 39.5499C987.685 39.5499 988.459 39.2596 989.072 38.7756C989.363 38.5498 989.427 38.1626 989.201 37.8723C988.976 37.5819 988.588 37.5174 988.298 37.7432C987.911 38.0659 987.427 38.2272 986.911 38.2594C986.395 38.2272 985.911 38.0659 985.524 37.7432C985.233 37.5174 984.846 37.5819 984.62 37.8723C984.394 38.1626 984.459 38.5821 984.749 38.7756Z" fill="white"/>
<path d="M1004.24 38.7756C1005.5 39.808 1007.3 39.808 1008.56 38.7756C1008.85 38.5498 1008.92 38.1626 1008.69 37.8723C1008.46 37.5819 1008.08 37.5174 1007.79 37.7432C1006.98 38.4207 1005.82 38.4207 1005.01 37.7432C1004.72 37.5174 1004.33 37.5819 1004.11 37.8723C1003.91 38.1626 1003.95 38.5821 1004.24 38.7756Z" fill="white"/>
<path d="M990.137 47.1637V50.4223C990.137 50.4545 990.137 50.519 990.17 50.5513C990.428 52.7774 991.428 54.8745 993.009 56.4876C992.847 57.0684 992.46 58.004 991.557 58.1653C989.686 58.4879 986.105 60.0043 985.879 63.4886C985.685 64.7792 985.653 66.0697 985.814 67.3602C985.846 67.6828 986.137 67.9409 986.459 67.9409C986.492 67.9409 986.492 67.9409 986.524 67.9409C986.879 67.9086 987.137 67.586 987.105 67.2311C986.879 64.9405 987.137 63.7467 987.137 63.7145C987.137 63.6822 987.137 63.65 987.137 63.6177C987.266 61.2303 989.395 60.1656 990.718 59.7139L993.428 62.5853C993.654 62.9402 994.073 63.1338 994.493 63.1338C994.848 63.1338 995.17 63.0047 995.428 62.7789L996.558 61.4238C996.59 61.3916 996.59 61.3916 996.622 61.3593C996.654 61.3916 996.654 61.3916 996.687 61.4238L997.751 62.7143L997.816 62.7789C998.074 63.0047 998.397 63.1338 998.752 63.1338C998.816 63.1338 998.881 63.1338 998.945 63.1338C999.3 63.0692 999.623 62.8757 999.816 62.5853L1002.49 59.7784C1003.82 60.2624 1005.85 61.3593 1005.98 63.65C1005.98 63.6822 1005.98 63.6822 1005.98 63.7145C1006.11 64.9082 1006.11 66.1019 1005.98 67.2956C1005.95 67.6505 1006.2 67.9732 1006.56 68.0054C1006.91 68.0377 1007.24 67.7796 1007.27 67.4247C1007.4 66.1342 1007.4 64.8759 1007.24 63.5854C1006.98 60.0365 1003.37 58.4879 1001.53 58.1653C1000.66 58.004 1000.24 57.1652 1000.07 56.5844C1001.88 54.8745 1003.04 52.0999 1003.04 50.0674C1003.04 50.0351 1003.04 50.0351 1003.04 50.0028C1003.04 50.0028 1003.04 50.0028 1003.04 49.9706V47.1315C1003.04 45.3893 1001.72 43.9697 1000.07 43.9697H993.106C991.46 44.002 990.137 45.4215 990.137 47.1637ZM995.622 60.4882L994.493 61.8432C994.461 61.8755 994.461 61.8755 994.428 61.8432L992.138 59.359C992.493 59.23 992.847 59.0687 993.106 58.8106L995.654 60.3914C995.654 60.3914 995.687 60.4237 995.687 60.456C995.654 60.456 995.654 60.456 995.622 60.4882ZM996.719 59.359C996.687 59.3913 996.622 59.4558 996.59 59.4881C996.558 59.4558 996.493 59.3913 996.461 59.359L993.88 57.7782C993.944 57.6491 994.009 57.4878 994.073 57.3587C995.558 58.3911 997.493 58.4234 999.01 57.4233C999.074 57.5523 999.139 57.6814 999.203 57.8427L996.816 59.3268L996.719 59.359ZM1001.01 59.3913L998.784 61.7465L998.719 61.8432C998.687 61.8432 998.687 61.8432 998.655 61.811L997.622 60.5527L997.558 60.4882C997.526 60.4882 997.526 60.456 997.526 60.4237C997.526 60.3914 997.526 60.3914 997.558 60.3592L1000.04 58.8428C1000.3 59.1009 1000.62 59.2622 1001.01 59.3913ZM996.59 56.8748C993.977 56.8748 991.718 53.1969 991.46 50.5836C992.073 49.7125 992.525 49.8415 993.59 50.0996C994.719 50.39 996.235 50.8094 998.171 49.5512C999.074 48.9382 999.881 48.7123 1000.53 48.9382C1001.07 49.164 1001.49 49.5834 1001.75 50.1319C1001.72 52.7452 999.365 56.8748 996.59 56.8748ZM1001.75 47.1637V48.1316C1001.49 47.9703 1001.24 47.809 1000.95 47.7122C999.913 47.3573 998.719 47.6154 997.429 48.4542C995.977 49.3899 994.912 49.0995 993.912 48.8414C993.46 48.7123 992.977 48.6156 992.525 48.5833C992.138 48.5833 991.783 48.6801 991.428 48.8414V47.1315C991.428 46.0991 992.17 45.228 993.106 45.228H1000.07C1000.98 45.2602 1001.75 46.1313 1001.75 47.1637Z" fill="white"/>
<path d="M997.978 53.7774C997.171 54.4549 996.01 54.4549 995.203 53.7774C994.913 53.5516 994.526 53.6161 994.3 53.9065C994.074 54.1968 994.139 54.584 994.429 54.8098C995.687 55.8422 997.494 55.8422 998.752 54.8098C999.042 54.584 999.107 54.1968 998.881 53.9065C998.655 53.6161 998.268 53.5516 997.978 53.7774Z" fill="white"/>
<path d="M981.846 42.1633C979.975 42.4859 976.394 44.0023 976.168 47.4867C975.974 48.7772 975.942 50.0677 976.103 51.3582C976.136 51.6808 976.426 51.9389 976.749 51.9389C976.781 51.9389 976.781 51.9389 976.813 51.9389C977.168 51.9066 977.426 51.584 977.394 51.2291C977.168 48.9385 977.426 47.7448 977.426 47.7448C977.426 47.7125 977.426 47.6802 977.426 47.648C977.555 45.2605 979.684 44.1959 981.007 43.7442L983.717 46.6156C983.943 46.9705 984.363 47.164 984.782 47.164C985.137 47.164 985.459 47.035 985.718 46.8091L986.847 45.4541C986.879 45.4218 986.879 45.4218 986.911 45.3896C986.944 45.4218 986.944 45.4218 986.976 45.4541L988.04 46.7446L988.105 46.8091C988.331 47.0027 988.653 47.1318 988.944 47.164C988.944 46.6478 989.073 46.1316 989.234 45.6477L989.105 45.7767L989.041 45.8735C989.008 45.8735 989.008 45.8735 988.976 45.8413L987.944 44.583L987.879 44.5185C987.847 44.5185 987.847 44.4862 987.847 44.454C987.847 44.4217 987.847 44.4217 987.879 44.3894L990.363 42.8731C990.621 43.0989 990.912 43.2602 991.234 43.357C991.847 43.0021 992.557 42.8086 993.235 42.8086H993.848C993.235 42.5182 992.557 42.3246 991.88 42.1956C991.009 42.0343 990.589 41.1954 990.428 40.6147C992.235 38.9048 993.396 36.1302 993.396 34.0976C993.396 34.0654 993.396 34.0654 993.396 34.0331C993.396 34.0331 993.396 34.0331 993.396 34.0009V31.1617C993.396 29.4196 992.073 28 990.428 28H983.427C981.782 28 980.459 29.4196 980.459 31.1617V34.4203C980.459 34.4525 980.459 34.5171 980.491 34.5493C980.749 36.7754 981.749 38.8725 983.33 40.4857C983.169 41.0664 982.782 42.002 981.846 42.1633ZM987.105 43.2925L987.04 43.357C987.008 43.3893 986.944 43.4538 986.911 43.4861C986.879 43.4538 986.814 43.3893 986.782 43.357L984.201 41.7762C984.266 41.6471 984.33 41.4858 984.395 41.3567C985.137 41.873 986.008 42.1311 986.911 42.1311C987.782 42.1311 988.589 41.873 989.331 41.4213C989.396 41.5503 989.46 41.6794 989.525 41.8407L987.105 43.2925ZM981.749 31.1617C981.749 30.1293 982.491 29.2582 983.427 29.2582H990.396C991.331 29.2582 992.073 30.0971 992.073 31.1617V32.1296C991.815 31.9683 991.557 31.807 991.267 31.7102C990.234 31.3553 989.041 31.6134 987.75 32.4522C986.298 33.3879 985.234 33.0975 984.233 32.8394C983.782 32.7104 983.298 32.6136 982.846 32.5813C982.459 32.5813 982.104 32.6781 981.749 32.8394V31.1617ZM981.782 34.5493C982.395 33.6782 982.846 33.8073 983.911 34.0654C985.04 34.3557 986.556 34.7752 988.492 33.5169C989.428 32.9039 990.234 32.7104 990.88 32.9039C991.428 33.1298 991.847 33.5492 992.106 34.0976C992.073 36.7109 989.718 40.8405 986.944 40.8405C984.298 40.8405 982.04 37.1949 981.782 34.5493ZM983.427 42.7763L985.976 44.3572C985.976 44.3572 986.008 44.3894 986.008 44.4217C986.008 44.454 985.976 44.454 985.976 44.4862L984.846 45.8413C984.814 45.8735 984.814 45.8735 984.782 45.8413L982.459 43.3248C982.814 43.228 983.137 43.0344 983.427 42.7763Z" fill="white"/>
<path d="M1001.46 42.1633C1000.78 42.2924 1000.14 42.4859 999.494 42.7763H1000.14C1000.85 42.7763 1001.53 42.9699 1002.14 43.2925C1002.43 43.1957 1002.72 43.0344 1002.98 42.8086L1005.46 44.3249C1005.46 44.3249 1005.49 44.3572 1005.49 44.3894C1005.49 44.4217 1005.46 44.4217 1005.46 44.454L1005.4 44.5185L1004.37 45.7767C1004.37 45.7767 1004.33 45.809 1004.3 45.809L1004.24 45.7122L1004.14 45.6154C1004.3 46.0994 1004.4 46.5833 1004.43 47.0995C1004.72 47.0672 1005.01 46.9382 1005.24 46.7446L1005.3 46.6801L1006.37 45.3896C1006.4 45.3573 1006.4 45.3573 1006.43 45.3251C1006.46 45.3573 1006.46 45.3573 1006.5 45.3896L1007.62 46.7446C1007.88 46.9705 1008.21 47.0995 1008.56 47.0995C1008.98 47.0995 1009.37 46.9059 1009.62 46.551L1012.33 43.6797C1013.66 44.1313 1015.79 45.2283 1015.92 47.5834C1015.92 47.6157 1015.92 47.648 1015.92 47.6802C1015.92 47.6802 1016.17 48.874 1015.95 51.1969C1015.92 51.5518 1016.17 51.8744 1016.53 51.9066C1016.56 51.9066 1016.56 51.9066 1016.59 51.9066C1016.92 51.9066 1017.21 51.6485 1017.24 51.3259C1017.4 50.0354 1017.4 48.7449 1017.17 47.4544C1016.88 44.0023 1013.33 42.4859 1011.46 42.1633C1010.53 42.002 1010.14 41.0664 1010.01 40.4857C1011.59 38.8725 1012.59 36.8077 1012.85 34.5493C1012.85 34.5171 1012.88 34.4525 1012.88 34.4203V31.1617C1012.88 29.4196 1011.56 28 1009.91 28H1002.91C1001.27 28 999.946 29.4196 999.946 31.1617V34.0009C999.946 34.0009 999.946 34.0009 999.946 34.0331C999.946 34.0654 999.946 34.0654 999.946 34.0976C999.946 36.1625 1001.11 38.9048 1002.91 40.6147C1002.75 41.1632 1002.33 42.002 1001.46 42.1633ZM1006.4 43.4861C1006.37 43.4538 1006.3 43.3893 1006.27 43.357L1006.2 43.2925L1003.82 41.8084C1003.88 41.6794 1003.95 41.5503 1004.01 41.389C1005.53 42.3892 1007.46 42.3569 1008.95 41.3245C1009.01 41.4535 1009.04 41.5826 1009.14 41.7439L1006.56 43.3248C1006.5 43.3893 1006.43 43.4216 1006.4 43.4861ZM1010.85 43.3248L1008.5 45.809C1008.5 45.809 1008.46 45.809 1008.43 45.809L1007.3 44.454C1007.33 44.454 1007.3 44.4217 1007.3 44.4217C1007.3 44.3894 1007.3 44.3894 1007.33 44.3572L1009.88 42.7763C1010.17 43.0344 1010.5 43.228 1010.85 43.3248ZM1001.24 31.1617C1001.24 30.1293 1001.98 29.2582 1002.91 29.2582H1009.88C1010.82 29.2582 1011.56 30.0971 1011.56 31.1617V32.8717C1011.24 32.7104 1010.85 32.6136 1010.46 32.6136C1009.98 32.6458 1009.53 32.7104 1009.08 32.8717C1008.04 33.162 1006.98 33.4201 1005.56 32.4845C1004.27 31.6457 1003.08 31.3876 1002.04 31.7425C1001.75 31.8393 1001.49 31.9683 1001.24 32.1619V31.1617ZM1001.24 34.0976C1001.46 33.5492 1001.91 33.1298 1002.46 32.9039C1003.11 32.6781 1003.91 32.9039 1004.85 33.5169C1006.79 34.7752 1008.3 34.3557 1009.43 34.0654C1010.46 33.775 1010.95 33.646 1011.56 34.5493C1011.3 37.1626 1009.04 40.8405 1006.43 40.8405C1003.62 40.8405 1001.27 36.7432 1001.24 34.0976Z" fill="white"/>
<circle cx="1307.5" cy="476.5" r="47.5" fill="#0BACF0"/>
<path d="M1321.32 464.729C1322.83 464.729 1324.08 462.826 1324.08 461.317C1324.08 459.807 1322.83 458.561 1321.32 458.561C1319.81 458.561 1318.56 459.807 1318.56 461.317C1318.56 462.826 1319.81 464.729 1321.32 464.729ZM1321.32 459.807C1322.11 459.807 1322.76 460.464 1322.76 461.251C1322.76 462.104 1322.04 463.351 1321.32 463.351C1320.6 463.351 1319.88 462.104 1319.88 461.251C1319.88 460.464 1320.53 459.807 1321.32 459.807Z" fill="white"/>
<path d="M1294.55 464.729C1296.06 464.729 1297.3 462.826 1297.3 461.317C1297.3 459.807 1296.06 458.561 1294.55 458.561C1293.04 458.561 1291.79 459.807 1291.79 461.317C1291.79 462.826 1293.04 464.729 1294.55 464.729ZM1294.55 459.807C1295.33 459.807 1295.99 460.464 1295.99 461.251C1295.99 462.104 1295.27 463.351 1294.55 463.351C1293.83 463.351 1293.1 462.104 1293.1 461.251C1293.1 460.464 1293.76 459.807 1294.55 459.807Z" fill="white"/>
<path d="M1321.32 491.636C1322.83 491.636 1324.08 489.732 1324.08 488.223C1324.08 486.714 1322.83 485.467 1321.32 485.467C1319.81 485.467 1318.56 486.714 1318.56 488.223C1318.56 489.732 1319.81 491.636 1321.32 491.636ZM1321.32 486.779C1322.11 486.779 1322.76 487.436 1322.76 488.223C1322.76 489.076 1322.04 490.323 1321.32 490.323C1320.6 490.323 1319.88 489.076 1319.88 488.223C1319.88 487.436 1320.53 486.779 1321.32 486.779Z" fill="white"/>
<path d="M1294.55 485.467C1293.04 485.467 1291.79 486.714 1291.79 488.223C1291.79 489.798 1293.04 491.636 1294.55 491.636C1296.06 491.636 1297.3 489.732 1297.3 488.223C1297.3 486.714 1296.06 485.467 1294.55 485.467ZM1294.55 490.323C1293.83 490.323 1293.1 489.076 1293.1 488.223C1293.1 487.436 1293.76 486.779 1294.55 486.779C1295.33 486.779 1295.99 487.436 1295.99 488.223C1295.99 489.076 1295.27 490.323 1294.55 490.323Z" fill="white"/>
<path d="M1321.32 482.906C1319.22 482.906 1317.32 483.759 1315.94 485.138L1313.18 482.381C1314.56 481.003 1315.48 479.1 1315.48 477C1315.48 475.425 1315.02 473.981 1314.17 472.8L1317.12 469.781C1318.3 470.569 1319.75 471.028 1321.26 471.028C1325.46 471.028 1328.8 467.616 1328.8 463.481C1328.87 459.412 1325.46 456 1321.32 456C1317.19 456 1313.78 459.412 1313.78 463.547C1313.78 465.647 1314.69 467.616 1316.14 468.994L1313.32 471.75C1311.94 470.306 1310.03 469.453 1307.93 469.453C1305.83 469.453 1303.93 470.306 1302.55 471.75L1299.8 468.994C1301.24 467.616 1302.16 465.647 1302.16 463.547C1302.09 459.412 1298.68 456 1294.55 456C1290.41 456 1287 459.412 1287 463.547C1287 467.616 1290.35 471.094 1294.55 471.094C1296.06 471.094 1297.5 470.634 1298.68 469.847L1301.63 472.8C1300.85 473.981 1300.32 475.425 1300.32 477C1300.32 479.1 1301.17 481.003 1302.62 482.381L1299.86 485.138C1298.48 483.759 1296.58 482.906 1294.48 482.906C1290.41 482.906 1287 486.319 1287 490.453C1287 494.588 1290.35 498 1294.55 498C1298.75 498 1302.09 494.588 1302.09 490.453C1302.09 488.878 1301.57 487.369 1300.78 486.188L1303.73 483.234C1304.92 484.022 1306.36 484.547 1307.93 484.547C1309.51 484.547 1310.95 484.087 1312.13 483.234L1315.09 486.188C1314.23 487.434 1313.78 488.878 1313.78 490.453C1313.78 494.588 1317.12 498 1321.32 498C1325.52 498 1328.87 494.588 1328.87 490.453C1328.87 486.319 1325.46 482.906 1321.32 482.906ZM1316.99 468.009L1317.06 466.828C1317.06 466.697 1317.19 466.5 1317.32 466.434C1317.84 466.172 1318.37 465.909 1318.89 465.713L1320.21 468.075C1320.34 468.272 1320.53 468.403 1320.8 468.403H1321.91C1322.17 468.403 1322.37 468.272 1322.5 468.075L1323.82 465.713C1324.34 465.909 1324.87 466.106 1325.39 466.434C1325.52 466.5 1325.65 466.697 1325.65 466.828L1325.72 468.009C1324.6 469.125 1323.09 469.781 1321.39 469.781C1319.62 469.781 1318.11 469.059 1316.99 468.009ZM1321.32 457.312C1324.73 457.312 1327.56 460.134 1327.56 463.547C1327.56 464.597 1327.29 465.581 1326.83 466.434C1326.7 465.975 1326.44 465.516 1325.98 465.253C1325.19 464.859 1324.41 464.531 1323.62 464.269C1323.36 464.203 1323.03 464.334 1322.9 464.597L1321.52 467.091H1321.19L1319.75 464.597C1319.62 464.334 1319.29 464.203 1319.03 464.269C1318.24 464.466 1317.45 464.794 1316.73 465.253C1316.27 465.516 1315.94 465.909 1315.81 466.434C1315.35 465.581 1315.09 464.597 1315.09 463.547C1315.09 460.134 1317.91 457.312 1321.32 457.312ZM1294.55 457.312C1297.96 457.312 1300.78 460.134 1300.78 463.547C1300.78 464.597 1300.52 465.581 1300.06 466.434C1299.93 465.975 1299.67 465.516 1299.21 465.253C1298.42 464.859 1297.63 464.531 1296.84 464.269C1296.58 464.203 1296.25 464.334 1296.12 464.597L1294.74 467.091H1294.42L1293.04 464.597C1292.91 464.334 1292.58 464.203 1292.32 464.269C1291.53 464.466 1290.74 464.794 1290.02 465.253C1289.56 465.516 1289.23 465.909 1289.1 466.434C1288.64 465.581 1288.38 464.597 1288.38 463.547C1288.31 460.134 1291.13 457.312 1294.55 457.312ZM1290.22 468.009L1290.28 466.828C1290.28 466.697 1290.41 466.5 1290.54 466.434C1291.07 466.172 1291.59 465.909 1292.12 465.713L1293.43 468.075C1293.56 468.272 1293.76 468.403 1294.02 468.403H1295.14C1295.4 468.403 1295.6 468.272 1295.73 468.075L1297.04 465.713C1297.57 465.909 1298.09 466.106 1298.62 466.434C1298.75 466.5 1298.88 466.697 1298.88 466.828L1298.94 468.009C1297.83 469.125 1296.32 469.781 1294.61 469.781C1292.84 469.781 1291.33 469.059 1290.22 468.009ZM1290.22 494.916L1290.28 493.734C1290.28 493.603 1290.41 493.406 1290.54 493.341C1291.07 493.078 1291.59 492.816 1292.12 492.619L1293.43 494.981C1293.56 495.178 1293.76 495.309 1294.02 495.309H1295.14C1295.4 495.309 1295.6 495.178 1295.73 494.981L1297.04 492.619C1297.57 492.816 1298.09 493.013 1298.62 493.341C1298.75 493.406 1298.88 493.603 1298.88 493.734L1298.94 494.916C1297.83 496.031 1296.32 496.688 1294.61 496.688C1292.84 496.688 1291.33 496.031 1290.22 494.916ZM1300.06 493.341C1299.93 492.881 1299.67 492.422 1299.21 492.159C1298.42 491.766 1297.63 491.438 1296.84 491.175C1296.58 491.109 1296.25 491.241 1296.12 491.503L1294.74 493.997H1294.42L1293.04 491.503C1292.91 491.241 1292.58 491.109 1292.32 491.175C1291.53 491.372 1290.74 491.7 1290.02 492.159C1289.56 492.422 1289.23 492.816 1289.1 493.341C1288.64 492.487 1288.38 491.503 1288.38 490.453C1288.38 487.041 1291.2 484.219 1294.61 484.219C1298.02 484.219 1300.85 487.041 1300.85 490.453C1300.78 491.503 1300.52 492.487 1300.06 493.341ZM1307.93 470.766C1311.35 470.766 1314.17 473.587 1314.17 477C1314.17 478.05 1313.91 479.034 1313.45 479.888C1313.32 479.428 1313.05 478.969 1312.59 478.706C1311.81 478.312 1311.02 477.984 1310.23 477.722C1309.97 477.656 1309.64 477.787 1309.51 478.05L1308.13 480.544H1307.8L1306.43 478.05C1306.29 477.787 1305.97 477.656 1305.7 477.722C1304.92 477.919 1304.13 478.247 1303.41 478.706C1302.95 478.969 1302.62 479.363 1302.49 479.888C1302.03 479.034 1301.77 478.05 1301.77 477C1301.7 473.587 1304.52 470.766 1307.93 470.766ZM1303.6 481.462L1303.67 480.281C1303.67 480.15 1303.8 479.953 1303.93 479.888C1304.46 479.625 1304.98 479.362 1305.51 479.166L1306.82 481.528C1306.95 481.725 1307.15 481.856 1307.41 481.856H1308.53C1308.79 481.856 1308.98 481.725 1309.12 481.528L1310.43 479.166C1310.95 479.362 1311.48 479.559 1312 479.888C1312.13 479.953 1312.27 480.15 1312.27 480.281L1312.33 481.462C1311.22 482.578 1309.71 483.234 1308 483.234C1306.23 483.234 1304.72 482.578 1303.6 481.462ZM1321.32 484.219C1324.73 484.219 1327.56 487.041 1327.56 490.453C1327.56 491.503 1327.29 492.487 1326.83 493.341C1326.7 492.881 1326.44 492.422 1325.98 492.159C1325.19 491.766 1324.41 491.438 1323.62 491.175C1323.36 491.109 1323.03 491.241 1322.9 491.503L1321.52 493.997H1321.19L1319.75 491.503C1319.62 491.241 1319.29 491.109 1319.03 491.175C1318.24 491.372 1317.45 491.7 1316.73 492.159C1316.27 492.422 1315.94 492.816 1315.81 493.341C1315.35 492.487 1315.09 491.503 1315.09 490.453C1315.09 487.041 1317.91 484.219 1321.32 484.219ZM1316.99 494.916L1317.06 493.734C1317.06 493.603 1317.19 493.406 1317.32 493.341C1317.84 493.078 1318.37 492.816 1318.89 492.619L1320.21 494.981C1320.34 495.178 1320.53 495.309 1320.8 495.309H1321.91C1322.17 495.309 1322.37 495.178 1322.5 494.981L1323.82 492.619C1324.34 492.816 1324.87 493.013 1325.39 493.341C1325.52 493.406 1325.65 493.603 1325.65 493.734L1325.72 494.916C1324.54 496.031 1323.03 496.688 1321.32 496.688C1319.62 496.688 1318.11 496.031 1316.99 494.916Z" fill="white"/>
<path d="M1307.93 478.182C1309.44 478.182 1310.69 476.279 1310.69 474.77C1310.69 473.261 1309.44 472.014 1307.93 472.014C1306.42 472.014 1305.18 473.261 1305.18 474.77C1305.18 476.279 1306.42 478.182 1307.93 478.182ZM1307.93 473.261C1308.72 473.261 1309.38 473.917 1309.38 474.704C1309.38 475.557 1308.66 476.804 1307.93 476.804C1307.21 476.804 1306.49 475.557 1306.49 474.704C1306.49 473.917 1307.15 473.261 1307.93 473.261Z" fill="white"/>
<path d="M56.149 395.98C56.149 391.8 52.989 388.84 49.009 388.84C45.069 388.84 41.849 391.8 41.849 395.98C41.849 400.18 45.069 403.14 49.009 403.14C52.969 403.14 56.149 400.18 56.149 395.98ZM44.729 395.98C44.729 393.14 46.469 391.36 49.009 391.36C51.529 391.36 53.269 393.14 53.269 395.98C53.269 398.82 51.529 400.64 49.009 400.64C46.469 400.64 44.729 398.82 44.729 395.98ZM57.1721 397.46C57.1721 400.94 59.4521 403.18 62.6521 403.18C65.4121 403.18 67.2721 401.62 67.8721 399.26H64.8521C64.5121 400.26 63.7921 400.78 62.6321 400.78C61.0721 400.78 60.0321 399.62 60.0321 397.46C60.0321 395.3 61.0721 394.12 62.6321 394.12C63.7921 394.12 64.5321 394.72 64.8521 395.66H67.8721C67.2721 393.18 65.4121 391.74 62.6521 391.74C59.4521 391.74 57.1721 393.98 57.1721 397.46ZM70.0234 399.56C70.0234 402.1 71.4434 403 73.5634 403H75.3234V400.64H74.0234C73.1434 400.64 72.8434 400.32 72.8434 399.58V394.22H75.3234V391.92H72.8434V389.18H70.0234V391.92H68.7034V394.22H70.0234V399.56ZM80.9429 402.8H90.8229V400.48H84.9229C87.2429 398.52 90.5029 395.88 90.5029 392.5C90.5029 389.96 88.9229 388.1 85.7829 388.1C83.1629 388.1 81.0229 389.64 80.9229 392.98H83.6429C83.6629 391.44 84.4029 390.48 85.7429 390.48C87.1229 390.48 87.7029 391.36 87.7029 392.66C87.7029 395.34 84.2429 397.92 80.9429 400.72V402.8ZM92.2473 395.52C92.2473 399.78 93.5273 402.96 97.6473 402.96C101.767 402.96 103.047 399.78 103.047 395.52C103.047 391.3 101.767 388.14 97.6473 388.14C93.5273 388.14 92.2473 391.3 92.2473 395.52ZM100.287 395.52C100.287 398.12 100.007 400.36 97.6473 400.36C95.2873 400.36 95.0073 398.12 95.0073 395.52C95.0073 393.02 95.2873 390.74 97.6473 390.74C100.007 390.74 100.287 393.02 100.287 395.52ZM104.677 402.8H114.557V400.48H108.657C110.977 398.52 114.237 395.88 114.237 392.5C114.237 389.96 112.657 388.1 109.517 388.1C106.897 388.1 104.757 389.64 104.657 392.98H107.377C107.397 391.44 108.137 390.48 109.477 390.48C110.857 390.48 111.437 391.36 111.437 392.66C111.437 395.34 107.977 397.92 104.677 400.72V402.8ZM115.981 395.52C115.981 399.78 117.261 402.96 121.381 402.96C125.501 402.96 126.781 399.78 126.781 395.52C126.781 391.3 125.501 388.14 121.381 388.14C117.261 388.14 115.981 391.3 115.981 395.52ZM124.021 395.52C124.021 398.12 123.741 400.36 121.381 400.36C119.021 400.36 118.741 398.12 118.741 395.52C118.741 393.02 119.021 390.74 121.381 390.74C123.741 390.74 124.021 393.02 124.021 395.52Z" fill="#0BACF0"/>
<path d="M634.116 560H637.076L632.056 546.02H628.796L623.776 560H626.716L627.636 557.34H633.196L634.116 560ZM632.436 555.1H628.396L630.416 549.26L632.436 555.1ZM641.413 550.52V548.92H638.613V565.28H641.413V558.42C642.093 559.32 643.333 560.18 645.073 560.18C647.913 560.18 650.133 557.88 650.133 554.42C650.133 550.96 647.913 548.74 645.073 548.74C643.353 548.74 642.073 549.58 641.413 550.52ZM647.273 554.42C647.273 556.52 645.853 557.72 644.333 557.72C642.833 557.72 641.413 556.56 641.413 554.46C641.413 552.36 642.833 551.2 644.333 551.2C645.853 551.2 647.273 552.32 647.273 554.42ZM654.627 554.48C654.627 552.34 655.627 551.7 657.287 551.7H658.027V548.76C656.487 548.76 655.327 549.5 654.627 550.64V548.92H651.827V560H654.627V554.48ZM663.519 559.8H673.399V557.48H667.499C669.819 555.52 673.079 552.88 673.079 549.5C673.079 546.96 671.499 545.1 668.359 545.1C665.739 545.1 663.599 546.64 663.499 549.98H666.219C666.239 548.44 666.979 547.48 668.319 547.48C669.699 547.48 670.279 548.36 670.279 549.66C670.279 552.34 666.819 554.92 663.519 557.72V559.8ZM674.823 552.52C674.823 556.78 676.103 559.96 680.223 559.96C684.343 559.96 685.623 556.78 685.623 552.52C685.623 548.3 684.343 545.14 680.223 545.14C676.103 545.14 674.823 548.3 674.823 552.52ZM682.863 552.52C682.863 555.12 682.583 557.36 680.223 557.36C677.863 557.36 677.583 555.12 677.583 552.52C677.583 550.02 677.863 547.74 680.223 547.74C682.583 547.74 682.863 550.02 682.863 552.52ZM687.253 559.8H697.133V557.48H691.233C693.553 555.52 696.813 552.88 696.813 549.5C696.813 546.96 695.233 545.1 692.093 545.1C689.473 545.1 687.333 546.64 687.233 549.98H689.953C689.973 548.44 690.713 547.48 692.053 547.48C693.433 547.48 694.013 548.36 694.013 549.66C694.013 552.34 690.553 554.92 687.253 557.72V559.8ZM700.157 560H703.037V545.42H698.217V548H700.157V560Z" fill="#0BACF0"/>
<path d="M956.863 136H959.663V130.1H964.123V127.88H959.663V124.3H965.483V122.04H956.863V136ZM971.888 127.04C973.328 127.04 974.488 127.96 974.528 129.42H969.268C969.488 127.9 970.548 127.04 971.888 127.04ZM977.148 132.52H974.128C973.768 133.26 973.108 133.86 971.908 133.86C970.508 133.86 969.388 132.94 969.248 131.3H977.348C977.408 130.94 977.428 130.58 977.428 130.22C977.428 126.92 975.168 124.74 971.968 124.74C968.688 124.74 966.408 126.96 966.408 130.46C966.408 133.94 968.748 136.18 971.968 136.18C974.708 136.18 976.548 134.56 977.148 132.52ZM981.932 126.54V121.2H979.132V136H981.932V134.42C982.612 135.38 983.852 136.18 985.592 136.18C988.432 136.18 990.652 133.88 990.652 130.42C990.652 126.96 988.432 124.74 985.592 124.74C983.912 124.74 982.612 125.52 981.932 126.54ZM987.792 130.42C987.792 132.52 986.372 133.72 984.852 133.72C983.352 133.72 981.932 132.56 981.932 130.46C981.932 128.36 983.352 127.2 984.852 127.2C986.372 127.2 987.792 128.32 987.792 130.42ZM996.292 135.8H1006.17V133.48H1000.27C1002.59 131.52 1005.85 128.88 1005.85 125.5C1005.85 122.96 1004.27 121.1 1001.13 121.1C998.512 121.1 996.372 122.64 996.272 125.98H998.992C999.012 124.44 999.752 123.48 1001.09 123.48C1002.47 123.48 1003.05 124.36 1003.05 125.66C1003.05 128.34 999.592 130.92 996.292 133.72V135.8ZM1007.6 128.52C1007.6 132.78 1008.88 135.96 1013 135.96C1017.12 135.96 1018.4 132.78 1018.4 128.52C1018.4 124.3 1017.12 121.14 1013 121.14C1008.88 121.14 1007.6 124.3 1007.6 128.52ZM1015.64 128.52C1015.64 131.12 1015.36 133.36 1013 133.36C1010.64 133.36 1010.36 131.12 1010.36 128.52C1010.36 126.02 1010.64 123.74 1013 123.74C1015.36 123.74 1015.64 126.02 1015.64 128.52ZM1020.03 135.8H1029.91V133.48H1024.01C1026.33 131.52 1029.59 128.88 1029.59 125.5C1029.59 122.96 1028.01 121.1 1024.87 121.1C1022.25 121.1 1020.11 122.64 1020.01 125.98H1022.73C1022.75 124.44 1023.49 123.48 1024.83 123.48C1026.21 123.48 1026.79 124.36 1026.79 125.66C1026.79 128.34 1023.33 130.92 1020.03 133.72V135.8ZM1032.93 136H1035.81V121.42H1030.99V124H1032.93V136Z" fill="#0BACF0"/>
<path d="M1263.79 565H1266.59V555.92L1270.35 565H1272.47L1276.21 555.92V565H1279.01V551.04H1275.85L1271.41 561.42L1266.97 551.04H1263.79V565ZM1280.72 559.42C1280.72 562.88 1282.96 565.18 1285.76 565.18C1287.52 565.18 1288.78 564.34 1289.44 563.38V565H1292.26V553.92H1289.44V555.5C1288.78 554.58 1287.56 553.74 1285.78 553.74C1282.96 553.74 1280.72 555.96 1280.72 559.42ZM1289.44 559.46C1289.44 561.56 1288.04 562.72 1286.5 562.72C1285 562.72 1283.58 561.52 1283.58 559.42C1283.58 557.32 1285 556.2 1286.5 556.2C1288.04 556.2 1289.44 557.36 1289.44 559.46ZM1299.37 561.66L1296.51 553.92H1293.37L1297.81 564.72L1295.41 570.24H1298.39L1305.25 553.92H1302.27L1299.37 561.66ZM1310.37 564.8H1320.25V562.48H1314.35C1316.67 560.52 1319.93 557.88 1319.93 554.5C1319.93 551.96 1318.35 550.1 1315.21 550.1C1312.59 550.1 1310.45 551.64 1310.35 554.98H1313.07C1313.09 553.44 1313.83 552.48 1315.17 552.48C1316.55 552.48 1317.13 553.36 1317.13 554.66C1317.13 557.34 1313.67 559.92 1310.37 562.72V564.8ZM1321.67 557.52C1321.67 561.78 1322.95 564.96 1327.07 564.96C1331.19 564.96 1332.47 561.78 1332.47 557.52C1332.47 553.3 1331.19 550.14 1327.07 550.14C1322.95 550.14 1321.67 553.3 1321.67 557.52ZM1329.71 557.52C1329.71 560.12 1329.43 562.36 1327.07 562.36C1324.71 562.36 1324.43 560.12 1324.43 557.52C1324.43 555.02 1324.71 552.74 1327.07 552.74C1329.43 552.74 1329.71 555.02 1329.71 557.52ZM1334.1 564.8H1343.98V562.48H1338.08C1340.4 560.52 1343.66 557.88 1343.66 554.5C1343.66 551.96 1342.08 550.1 1338.94 550.1C1336.32 550.1 1334.18 551.64 1334.08 554.98H1336.8C1336.82 553.44 1337.56 552.48 1338.9 552.48C1340.28 552.48 1340.86 553.36 1340.86 554.66C1340.86 557.34 1337.4 559.92 1334.1 562.72V564.8ZM1347.01 565H1349.89V550.42H1345.07V553H1347.01V565Z" fill="#0BACF0"/>
<path d="M264.696 180.02V189.62L258.356 180.02H255.556V194H258.356V184.42L264.696 194H267.496V180.02H264.696ZM280.623 188.46C280.623 184.96 278.123 182.74 274.923 182.74C271.723 182.74 269.223 184.96 269.223 188.46C269.223 191.94 271.643 194.18 274.843 194.18C278.063 194.18 280.623 191.94 280.623 188.46ZM272.063 188.46C272.063 186.24 273.403 185.18 274.883 185.18C276.363 185.18 277.743 186.24 277.743 188.46C277.743 190.66 276.323 191.74 274.843 191.74C273.343 191.74 272.063 190.66 272.063 188.46ZM281.157 182.92L285.237 194H288.637L292.737 182.92H289.757L286.957 191.42L284.157 182.92H281.157ZM297.916 193.8H307.796V191.48H301.896C304.216 189.52 307.476 186.88 307.476 183.5C307.476 180.96 305.896 179.1 302.756 179.1C300.136 179.1 297.996 180.64 297.896 183.98H300.616C300.636 182.44 301.376 181.48 302.716 181.48C304.096 181.48 304.676 182.36 304.676 183.66C304.676 186.34 301.216 188.92 297.916 191.72V193.8ZM309.22 186.52C309.22 190.78 310.5 193.96 314.62 193.96C318.74 193.96 320.02 190.78 320.02 186.52C320.02 182.3 318.74 179.14 314.62 179.14C310.5 179.14 309.22 182.3 309.22 186.52ZM317.26 186.52C317.26 189.12 316.98 191.36 314.62 191.36C312.26 191.36 311.98 189.12 311.98 186.52C311.98 184.02 312.26 181.74 314.62 181.74C316.98 181.74 317.26 184.02 317.26 186.52ZM321.65 193.8H331.53V191.48H325.63C327.95 189.52 331.21 186.88 331.21 183.5C331.21 180.96 329.63 179.1 326.49 179.1C323.87 179.1 321.73 180.64 321.63 183.98H324.35C324.37 182.44 325.11 181.48 326.45 181.48C327.83 181.48 328.41 182.36 328.41 183.66C328.41 186.34 324.95 188.92 321.65 191.72V193.8ZM332.954 186.52C332.954 190.78 334.234 193.96 338.354 193.96C342.474 193.96 343.754 190.78 343.754 186.52C343.754 182.3 342.474 179.14 338.354 179.14C334.234 179.14 332.954 182.3 332.954 186.52ZM340.994 186.52C340.994 189.12 340.714 191.36 338.354 191.36C335.994 191.36 335.714 189.12 335.714 186.52C335.714 184.02 335.994 181.74 338.354 181.74C340.714 181.74 340.994 184.02 340.994 186.52Z" fill="#0BACF0"/>
<path d="M30.1182 429H31.9422V424.136H35.6222V422.648H31.9422V419.368H36.6622V417.88H30.1182V429ZM38.0806 429H39.9046V420.184H38.0806V429ZM39.0086 419.016C39.6486 419.016 40.1606 418.504 40.1606 417.848C40.1606 417.192 39.6486 416.68 39.0086 416.68C38.3526 416.68 37.8406 417.192 37.8406 417.848C37.8406 418.504 38.3526 419.016 39.0086 419.016ZM43.8513 424.36C43.8513 422.488 44.6833 421.928 46.0273 421.928H46.4913V420.04C45.2433 420.04 44.3633 420.584 43.8513 421.464V420.184H42.0273V429H43.8513V424.36ZM54.4719 426.536C54.3759 423.352 49.3999 424.344 49.3999 422.568C49.3999 421.976 49.9119 421.576 50.8879 421.576C51.8799 421.576 52.4719 422.104 52.5359 422.872H54.3599C54.2639 421.112 52.9519 420.04 50.9519 420.04C48.8719 420.04 47.5599 421.176 47.5599 422.584C47.5599 425.816 52.6799 424.824 52.6799 426.552C52.6799 427.16 52.1199 427.608 51.0639 427.608C50.0559 427.608 49.3679 427.016 49.3039 426.296H47.4159C47.4959 427.896 48.9839 429.144 51.0959 429.144C53.1759 429.144 54.4719 428.024 54.4719 426.536ZM56.4588 426.552C56.4588 428.344 57.4348 429 59.0028 429H60.4428V427.48H59.3228C58.5548 427.48 58.2988 427.208 58.2988 426.552V421.672H60.4428V420.184H58.2988V417.992H56.4588V420.184H55.4188V421.672H56.4588V426.552ZM64.6962 420.184L68.0402 429H70.2162L73.5762 420.184H71.6402L69.1442 427.368L66.6482 420.184H64.6962ZM78.3949 421.576C79.7549 421.576 80.8269 422.44 80.8589 423.8H75.9789C76.1709 422.408 77.1629 421.576 78.3949 421.576ZM82.5229 426.376H80.5549C80.2189 427.064 79.5949 427.608 78.4749 427.608C77.1309 427.608 76.0909 426.728 75.9629 425.272H82.6989C82.7469 424.968 82.7629 424.68 82.7629 424.376C82.7629 421.784 80.9869 420.04 78.4749 420.04C75.8669 420.04 74.0749 421.816 74.0749 424.584C74.0749 427.352 75.9469 429.144 78.4749 429.144C80.6349 429.144 82.0269 427.912 82.5229 426.376ZM86.1099 424.36C86.1099 422.488 86.9419 421.928 88.2859 421.928H88.7499V420.04C87.5019 420.04 86.6219 420.584 86.1099 421.464V420.184H84.2859V429H86.1099V424.36ZM96.7306 426.536C96.6346 423.352 91.6586 424.344 91.6586 422.568C91.6586 421.976 92.1706 421.576 93.1466 421.576C94.1386 421.576 94.7306 422.104 94.7946 422.872H96.6186C96.5226 421.112 95.2106 420.04 93.2106 420.04C91.1306 420.04 89.8186 421.176 89.8186 422.584C89.8186 425.816 94.9386 424.824 94.9386 426.552C94.9386 427.16 94.3786 427.608 93.3226 427.608C92.3146 427.608 91.6266 427.016 91.5626 426.296H89.6746C89.7546 427.896 91.2426 429.144 93.3546 429.144C95.4346 429.144 96.7306 428.024 96.7306 426.536ZM98.4294 429H100.253V420.184H98.4294V429ZM99.3574 419.016C99.9974 419.016 100.509 418.504 100.509 417.848C100.509 417.192 99.9974 416.68 99.3574 416.68C98.7014 416.68 98.1894 417.192 98.1894 417.848C98.1894 418.504 98.7014 419.016 99.3574 419.016ZM110.776 424.584C110.776 421.816 108.792 420.04 106.28 420.04C103.768 420.04 101.784 421.816 101.784 424.584C101.784 427.352 103.688 429.144 106.2 429.144C108.728 429.144 110.776 427.352 110.776 424.584ZM103.64 424.584C103.64 422.584 104.872 421.624 106.248 421.624C107.608 421.624 108.904 422.584 108.904 424.584C108.904 426.584 107.56 427.56 106.2 427.56C104.824 427.56 103.64 426.584 103.64 424.584ZM118.563 429H120.371V423.8C120.371 421.336 118.819 420.04 116.755 420.04C115.699 420.04 114.723 420.472 114.131 421.192V420.184H112.307V429H114.131V424.072C114.131 422.456 115.011 421.624 116.355 421.624C117.683 421.624 118.563 422.456 118.563 424.072V429ZM134.71 424.584C134.71 421.816 132.726 420.04 130.214 420.04C127.702 420.04 125.718 421.816 125.718 424.584C125.718 427.352 127.622 429.144 130.134 429.144C132.662 429.144 134.71 427.352 134.71 424.584ZM127.574 424.584C127.574 422.584 128.806 421.624 130.182 421.624C131.542 421.624 132.838 422.584 132.838 424.584C132.838 426.584 131.494 427.56 130.134 427.56C128.758 427.56 127.574 426.584 127.574 424.584ZM136.465 429H138.305V421.672H139.937V420.184H138.305V419.56C138.305 418.552 138.689 418.168 139.809 418.168V416.648C137.505 416.648 136.465 417.528 136.465 419.56V420.184H135.425V421.672H136.465V429ZM17.8426 450H19.7626L21.5386 443.488L23.3146 450H25.2346L27.9706 441.184H26.1786L24.3546 448.24L22.5626 441.184H20.6586L18.7866 448.272L16.9466 441.184H15.0906L17.8426 450ZM32.7738 442.576C34.1338 442.576 35.2058 443.44 35.2378 444.8H30.3578C30.5498 443.408 31.5418 442.576 32.7738 442.576ZM36.9018 447.376H34.9338C34.5978 448.064 33.9738 448.608 32.8538 448.608C31.5098 448.608 30.4698 447.728 30.3418 446.272H37.0778C37.1258 445.968 37.1418 445.68 37.1418 445.376C37.1418 442.784 35.3658 441.04 32.8538 441.04C30.2458 441.04 28.4538 442.816 28.4538 445.584C28.4538 448.352 30.3258 450.144 32.8538 450.144C35.0138 450.144 36.4058 448.912 36.9018 447.376ZM40.4888 442.496V438.16H38.6648V450H40.4888V448.72C41.0648 449.488 42.1048 450.144 43.5608 450.144C45.8808 450.144 47.7048 448.272 47.7048 445.552C47.7048 442.832 45.8968 441.04 43.5608 441.04C42.1688 441.04 41.0648 441.696 40.4888 442.496ZM45.8488 445.552C45.8488 447.456 44.5368 448.56 43.1608 448.56C41.8008 448.56 40.4888 447.488 40.4888 445.584C40.4888 443.696 41.8008 442.624 43.1608 442.624C44.5368 442.624 45.8488 443.648 45.8488 445.552ZM55.8125 447.536C55.7165 444.352 50.7405 445.344 50.7405 443.568C50.7405 442.976 51.2525 442.576 52.2285 442.576C53.2205 442.576 53.8125 443.104 53.8765 443.872H55.7005C55.6045 442.112 54.2925 441.04 52.2925 441.04C50.2125 441.04 48.9005 442.176 48.9005 443.584C48.9005 446.816 54.0205 445.824 54.0205 447.552C54.0205 448.16 53.4605 448.608 52.4045 448.608C51.3965 448.608 50.7085 448.016 50.6445 447.296H48.7565C48.8365 448.896 50.3245 450.144 52.4365 450.144C54.5165 450.144 55.8125 449.024 55.8125 447.536ZM57.5114 450H59.3354V441.184H57.5114V450ZM58.4394 440.016C59.0794 440.016 59.5914 439.504 59.5914 438.848C59.5914 438.192 59.0794 437.68 58.4394 437.68C57.7834 437.68 57.2714 438.192 57.2714 438.848C57.2714 439.504 57.7834 440.016 58.4394 440.016ZM61.7461 447.552C61.7461 449.344 62.7221 450 64.2901 450H65.7301V448.48H64.6101C63.8421 448.48 63.5861 448.208 63.5861 447.552V442.672H65.7301V441.184H63.5861V438.992H61.7461V441.184H60.7061V442.672H61.7461V447.552ZM70.8513 442.576C72.2113 442.576 73.2833 443.44 73.3153 444.8H68.4353C68.6273 443.408 69.6193 442.576 70.8513 442.576ZM74.9793 447.376H73.0113C72.6753 448.064 72.0513 448.608 70.9313 448.608C69.5873 448.608 68.5473 447.728 68.4193 446.272H75.1553C75.2033 445.968 75.2193 445.68 75.2193 445.376C75.2193 442.784 73.4433 441.04 70.9313 441.04C68.3233 441.04 66.5313 442.816 66.5313 445.584C66.5313 448.352 68.4033 450.144 70.9313 450.144C73.0913 450.144 74.4833 448.912 74.9793 447.376ZM80.6265 450H82.4505V438.16H80.6265V450ZM83.9653 445.552C83.9653 448.272 85.8053 450.144 88.0933 450.144C89.5653 450.144 90.6213 449.44 91.1813 448.688V450H93.0213V441.184H91.1813V442.464C90.6373 441.744 89.6133 441.04 88.1253 441.04C85.8053 441.04 83.9653 442.832 83.9653 445.552ZM91.1813 445.584C91.1813 447.488 89.8853 448.56 88.5093 448.56C87.1493 448.56 85.8373 447.456 85.8373 445.552C85.8373 443.648 87.1493 442.624 88.5093 442.624C89.8853 442.624 91.1813 443.696 91.1813 445.584ZM103.129 441.184H101.305V446.096C101.305 447.712 100.425 448.544 99.081 448.544C97.753 448.544 96.873 447.712 96.873 446.096V441.184H95.065V446.368C95.065 448.832 96.633 450.128 98.697 450.128C99.737 450.128 100.729 449.696 101.305 448.944V450H103.129V441.184ZM111.52 450H113.328V444.8C113.328 442.336 111.776 441.04 109.712 441.04C108.656 441.04 107.68 441.472 107.088 442.192V441.184H105.264V450H107.088V445.072C107.088 443.456 107.968 442.624 109.312 442.624C110.64 442.624 111.52 443.456 111.52 445.072V450ZM114.774 445.584C114.774 448.352 116.566 450.144 119.094 450.144C121.254 450.144 122.662 448.944 123.158 447.216H121.19C120.854 448.128 120.182 448.608 119.094 448.608C117.622 448.608 116.646 447.52 116.646 445.584C116.646 443.664 117.622 442.576 119.094 442.576C120.182 442.576 120.886 443.12 121.19 443.968H123.158C122.662 442.112 121.254 441.04 119.094 441.04C116.566 441.04 114.774 442.832 114.774 445.584ZM124.704 450H126.528V445.072C126.528 443.456 127.408 442.624 128.752 442.624C130.08 442.624 130.96 443.456 130.96 445.072V450H132.768V444.8C132.768 442.336 131.232 441.04 129.264 441.04C128.128 441.04 127.136 441.472 126.528 442.208V438.16H124.704V450ZM138.535 442.576C139.895 442.576 140.967 443.44 140.999 444.8H136.119C136.311 443.408 137.303 442.576 138.535 442.576ZM142.663 447.376H140.695C140.359 448.064 139.735 448.608 138.615 448.608C137.271 448.608 136.231 447.728 136.103 446.272H142.839C142.887 445.968 142.903 445.68 142.903 445.376C142.903 442.784 141.127 441.04 138.615 441.04C136.007 441.04 134.215 442.816 134.215 445.584C134.215 448.352 136.087 450.144 138.615 450.144C140.775 450.144 142.167 448.912 142.663 447.376ZM143.818 445.552C143.818 448.272 145.658 450.144 147.978 450.144C149.418 450.144 150.474 449.472 151.034 448.672V450H152.874V438.16H151.034V442.416C150.362 441.584 149.146 441.04 147.994 441.04C145.658 441.04 143.818 442.832 143.818 445.552ZM151.034 445.584C151.034 447.488 149.738 448.56 148.362 448.56C147.002 448.56 145.69 447.456 145.69 445.552C145.69 443.648 147.002 442.624 148.362 442.624C149.738 442.624 151.034 443.696 151.034 445.584Z" fill="#535353"/>
<path d="M618.427 586H620.347L616.363 574.864H614.251L610.267 586H612.171L612.971 583.728H617.627L618.427 586ZM617.115 582.24H613.483L615.307 577.072L617.115 582.24ZM623.631 578.48V577.184H621.807V590.192H623.631V584.72C624.207 585.408 625.247 586.144 626.703 586.144C629.023 586.144 630.847 584.272 630.847 581.552C630.847 578.832 629.023 577.04 626.703 577.04C625.263 577.04 624.191 577.744 623.631 578.48ZM628.991 581.552C628.991 583.456 627.679 584.56 626.303 584.56C624.943 584.56 623.631 583.488 623.631 581.584C623.631 579.696 624.943 578.624 626.303 578.624C627.679 578.624 628.991 579.648 628.991 581.552ZM634.203 578.48V577.184H632.379V590.192H634.203V584.72C634.779 585.408 635.819 586.144 637.275 586.144C639.595 586.144 641.419 584.272 641.419 581.552C641.419 578.832 639.595 577.04 637.275 577.04C635.835 577.04 634.763 577.744 634.203 578.48ZM639.563 581.552C639.563 583.456 638.251 584.56 636.875 584.56C635.515 584.56 634.203 583.488 634.203 581.584C634.203 579.696 635.515 578.624 636.875 578.624C638.251 578.624 639.563 579.648 639.563 581.552ZM646.835 586H648.659V574.16H646.835V586ZM650.173 581.552C650.173 584.272 652.013 586.144 654.301 586.144C655.773 586.144 656.829 585.44 657.389 584.688V586H659.229V577.184H657.389V578.464C656.845 577.744 655.821 577.04 654.333 577.04C652.013 577.04 650.173 578.832 650.173 581.552ZM657.389 581.584C657.389 583.488 656.093 584.56 654.717 584.56C653.357 584.56 652.045 583.456 652.045 581.552C652.045 579.648 653.357 578.624 654.717 578.624C656.093 578.624 657.389 579.696 657.389 581.584ZM669.337 577.184H667.513V582.096C667.513 583.712 666.633 584.544 665.289 584.544C663.961 584.544 663.081 583.712 663.081 582.096V577.184H661.273V582.368C661.273 584.832 662.841 586.128 664.905 586.128C665.945 586.128 666.937 585.696 667.513 584.944V586H669.337V577.184ZM677.728 586H679.536V580.8C679.536 578.336 677.984 577.04 675.92 577.04C674.864 577.04 673.888 577.472 673.296 578.192V577.184H671.472V586H673.296V581.072C673.296 579.456 674.176 578.624 675.52 578.624C676.848 578.624 677.728 579.456 677.728 581.072V586ZM680.982 581.584C680.982 584.352 682.774 586.144 685.302 586.144C687.462 586.144 688.87 584.944 689.366 583.216H687.398C687.062 584.128 686.39 584.608 685.302 584.608C683.83 584.608 682.854 583.52 682.854 581.584C682.854 579.664 683.83 578.576 685.302 578.576C686.39 578.576 687.094 579.12 687.398 579.968H689.366C688.87 578.112 687.462 577.04 685.302 577.04C682.774 577.04 680.982 578.832 680.982 581.584ZM690.912 586H692.736V581.072C692.736 579.456 693.616 578.624 694.96 578.624C696.288 578.624 697.168 579.456 697.168 581.072V586H698.976V580.8C698.976 578.336 697.44 577.04 695.472 577.04C694.336 577.04 693.344 577.472 692.736 578.208V574.16H690.912V586ZM704.743 578.576C706.103 578.576 707.175 579.44 707.207 580.8H702.327C702.519 579.408 703.511 578.576 704.743 578.576ZM708.871 583.376H706.903C706.567 584.064 705.943 584.608 704.823 584.608C703.479 584.608 702.439 583.728 702.311 582.272H709.047C709.095 581.968 709.111 581.68 709.111 581.376C709.111 578.784 707.335 577.04 704.823 577.04C702.215 577.04 700.423 578.816 700.423 581.584C700.423 584.352 702.295 586.144 704.823 586.144C706.983 586.144 708.375 584.912 708.871 583.376ZM710.026 581.552C710.026 584.272 711.866 586.144 714.186 586.144C715.626 586.144 716.682 585.472 717.242 584.672V586H719.082V574.16H717.242V578.416C716.57 577.584 715.354 577.04 714.202 577.04C711.866 577.04 710.026 578.832 710.026 581.552ZM717.242 581.584C717.242 583.488 715.946 584.56 714.57 584.56C713.21 584.56 711.898 583.456 711.898 581.552C711.898 579.648 713.21 578.624 714.57 578.624C715.946 578.624 717.242 579.696 717.242 581.584Z" fill="#535353"/>
<path d="M940.923 162H942.747V157.136H946.427V155.648H942.747V152.368H947.467V150.88H940.923V162ZM948.885 162H950.709V153.184H948.885V162ZM949.813 152.016C950.453 152.016 950.965 151.504 950.965 150.848C950.965 150.192 950.453 149.68 949.813 149.68C949.157 149.68 948.645 150.192 948.645 150.848C948.645 151.504 949.157 152.016 949.813 152.016ZM954.656 157.36C954.656 155.488 955.488 154.928 956.832 154.928H957.296V153.04C956.048 153.04 955.168 153.584 954.656 154.464V153.184H952.832V162H954.656V157.36ZM965.277 159.536C965.181 156.352 960.205 157.344 960.205 155.568C960.205 154.976 960.717 154.576 961.693 154.576C962.685 154.576 963.277 155.104 963.341 155.872H965.165C965.069 154.112 963.757 153.04 961.757 153.04C959.677 153.04 958.365 154.176 958.365 155.584C958.365 158.816 963.485 157.824 963.485 159.552C963.485 160.16 962.925 160.608 961.869 160.608C960.861 160.608 960.173 160.016 960.109 159.296H958.221C958.301 160.896 959.789 162.144 961.901 162.144C963.981 162.144 965.277 161.024 965.277 159.536ZM967.263 159.552C967.263 161.344 968.239 162 969.807 162H971.247V160.48H970.127C969.359 160.48 969.103 160.208 969.103 159.552V154.672H971.247V153.184H969.103V150.992H967.263V153.184H966.223V154.672H967.263V159.552ZM977.549 162H979.389V150.336H976.061V152H977.549V162ZM981.623 156.016C981.623 159.408 982.519 161.968 985.783 161.968C989.047 161.968 989.943 159.408 989.943 156.016C989.943 152.688 989.047 150.128 985.783 150.128C982.519 150.128 981.623 152.688 981.623 156.016ZM988.151 156.016C988.151 158.304 987.911 160.304 985.783 160.304C983.655 160.304 983.415 158.304 983.415 156.016C983.415 153.84 983.655 151.792 985.783 151.792C987.911 151.792 988.151 153.84 988.151 156.016ZM991.841 162H993.665V158.208L996.929 162H999.393L995.329 157.6L999.393 153.184H996.865L993.665 157.04V150.16H991.841V162ZM1003.7 157.584C1003.7 160.352 1005.5 162.144 1008.02 162.144C1010.18 162.144 1011.59 160.944 1012.09 159.216H1010.12C1009.78 160.128 1009.11 160.608 1008.02 160.608C1006.55 160.608 1005.58 159.52 1005.58 157.584C1005.58 155.664 1006.55 154.576 1008.02 154.576C1009.11 154.576 1009.82 155.12 1010.12 155.968H1012.09C1011.59 154.112 1010.18 153.04 1008.02 153.04C1005.5 153.04 1003.7 154.832 1003.7 157.584ZM1013.63 162H1015.46V150.16H1013.63V162ZM1017.58 162H1019.4V153.184H1017.58V162ZM1018.51 152.016C1019.15 152.016 1019.66 151.504 1019.66 150.848C1019.66 150.192 1019.15 149.68 1018.51 149.68C1017.85 149.68 1017.34 150.192 1017.34 150.848C1017.34 151.504 1017.85 152.016 1018.51 152.016ZM1025.24 154.576C1026.6 154.576 1027.67 155.44 1027.7 156.8H1022.82C1023.02 155.408 1024.01 154.576 1025.24 154.576ZM1029.37 159.376H1027.4C1027.06 160.064 1026.44 160.608 1025.32 160.608C1023.98 160.608 1022.94 159.728 1022.81 158.272H1029.54C1029.59 157.968 1029.61 157.68 1029.61 157.376C1029.61 154.784 1027.83 153.04 1025.32 153.04C1022.71 153.04 1020.92 154.816 1020.92 157.584C1020.92 160.352 1022.79 162.144 1025.32 162.144C1027.48 162.144 1028.87 160.912 1029.37 159.376ZM1037.39 162H1039.19V156.8C1039.19 154.336 1037.64 153.04 1035.58 153.04C1034.52 153.04 1033.55 153.472 1032.95 154.192V153.184H1031.13V162H1032.95V157.072C1032.95 155.456 1033.83 154.624 1035.18 154.624C1036.51 154.624 1037.39 155.456 1037.39 157.072V162ZM1041.54 159.552C1041.54 161.344 1042.51 162 1044.08 162H1045.52V160.48H1044.4C1043.63 160.48 1043.38 160.208 1043.38 159.552V154.672H1045.52V153.184H1043.38V150.992H1041.54V153.184H1040.5V154.672H1041.54V159.552ZM1053.51 159.536C1053.41 156.352 1048.43 157.344 1048.43 155.568C1048.43 154.976 1048.95 154.576 1049.92 154.576C1050.91 154.576 1051.51 155.104 1051.57 155.872H1053.39C1053.3 154.112 1051.99 153.04 1049.99 153.04C1047.91 153.04 1046.59 154.176 1046.59 155.584C1046.59 158.816 1051.71 157.824 1051.71 159.552C1051.71 160.16 1051.15 160.608 1050.1 160.608C1049.09 160.608 1048.4 160.016 1048.34 159.296H1046.45C1046.53 160.896 1048.02 162.144 1050.13 162.144C1052.21 162.144 1053.51 161.024 1053.51 159.536Z" fill="#535353"/>
<path d="M1228.76 579.864H1222.62V591H1228.76V589.512H1224.44V586.104H1228.28V584.616H1224.44V581.352H1228.76V579.864ZM1236.99 591H1238.8V585.8C1238.8 583.336 1237.25 582.04 1235.19 582.04C1234.13 582.04 1233.15 582.472 1232.56 583.192V582.184H1230.74V591H1232.56V586.072C1232.56 584.456 1233.44 583.624 1234.79 583.624C1236.11 583.624 1236.99 584.456 1236.99 586.072V591ZM1240.25 586.552C1240.25 589.272 1242.09 591.144 1244.41 591.144C1245.85 591.144 1246.91 590.424 1247.47 589.672V591.144C1247.47 592.904 1246.41 593.768 1245 593.768C1243.74 593.768 1242.76 593.144 1242.49 592.232H1240.68C1240.91 594.184 1242.65 595.352 1245 595.352C1247.75 595.352 1249.31 593.544 1249.31 591.144V582.184H1247.47V583.464C1246.92 582.712 1245.85 582.04 1244.41 582.04C1242.09 582.04 1240.25 583.832 1240.25 586.552ZM1247.47 586.584C1247.47 588.488 1246.17 589.56 1244.79 589.56C1243.43 589.56 1242.12 588.456 1242.12 586.552C1242.12 584.648 1243.43 583.624 1244.79 583.624C1246.17 583.624 1247.47 584.696 1247.47 586.584ZM1250.82 586.552C1250.82 589.272 1252.66 591.144 1254.95 591.144C1256.42 591.144 1257.48 590.44 1258.04 589.688V591H1259.88V582.184H1258.04V583.464C1257.49 582.744 1256.47 582.04 1254.98 582.04C1252.66 582.04 1250.82 583.832 1250.82 586.552ZM1258.04 586.584C1258.04 588.488 1256.74 589.56 1255.36 589.56C1254 589.56 1252.69 588.456 1252.69 586.552C1252.69 584.648 1254 583.624 1255.36 583.624C1256.74 583.624 1258.04 584.696 1258.04 586.584ZM1261.39 586.552C1261.39 589.272 1263.23 591.144 1265.55 591.144C1266.99 591.144 1268.05 590.424 1268.61 589.672V591.144C1268.61 592.904 1267.55 593.768 1266.14 593.768C1264.88 593.768 1263.9 593.144 1263.63 592.232H1261.82C1262.05 594.184 1263.79 595.352 1266.14 595.352C1268.9 595.352 1270.45 593.544 1270.45 591.144V582.184H1268.61V583.464C1268.06 582.712 1266.99 582.04 1265.55 582.04C1263.23 582.04 1261.39 583.832 1261.39 586.552ZM1268.61 586.584C1268.61 588.488 1267.31 589.56 1265.94 589.56C1264.58 589.56 1263.26 588.456 1263.26 586.552C1263.26 584.648 1264.58 583.624 1265.94 583.624C1267.31 583.624 1268.61 584.696 1268.61 586.584ZM1276.28 583.576C1277.64 583.576 1278.72 584.44 1278.75 585.8H1273.87C1274.06 584.408 1275.05 583.576 1276.28 583.576ZM1280.41 588.376H1278.44C1278.11 589.064 1277.48 589.608 1276.36 589.608C1275.02 589.608 1273.98 588.728 1273.85 587.272H1280.59C1280.64 586.968 1280.65 586.68 1280.65 586.376C1280.65 583.784 1278.88 582.04 1276.36 582.04C1273.76 582.04 1271.96 583.816 1271.96 586.584C1271.96 589.352 1273.84 591.144 1276.36 591.144C1278.52 591.144 1279.92 589.912 1280.41 588.376ZM1294.67 591H1296.48V585.8C1296.48 583.336 1294.91 582.04 1292.85 582.04C1291.57 582.04 1290.32 582.712 1289.78 583.784C1289.17 582.632 1288 582.04 1286.61 582.04C1285.55 582.04 1284.59 582.472 1284 583.192V582.184H1282.18V591H1284V586.072C1284 584.456 1284.88 583.624 1286.22 583.624C1287.55 583.624 1288.43 584.456 1288.43 586.072V591H1290.24V586.072C1290.24 584.456 1291.12 583.624 1292.46 583.624C1293.79 583.624 1294.67 584.456 1294.67 586.072V591ZM1302.24 583.576C1303.6 583.576 1304.67 584.44 1304.7 585.8H1299.82C1300.02 584.408 1301.01 583.576 1302.24 583.576ZM1306.37 588.376H1304.4C1304.06 589.064 1303.44 589.608 1302.32 589.608C1300.98 589.608 1299.94 588.728 1299.81 587.272H1306.54C1306.59 586.968 1306.61 586.68 1306.61 586.376C1306.61 583.784 1304.83 582.04 1302.32 582.04C1299.71 582.04 1297.92 583.816 1297.92 586.584C1297.92 589.352 1299.79 591.144 1302.32 591.144C1304.48 591.144 1305.87 589.912 1306.37 588.376ZM1314.39 591H1316.2V585.8C1316.2 583.336 1314.64 582.04 1312.58 582.04C1311.52 582.04 1310.55 582.472 1309.96 583.192V582.184H1308.13V591H1309.96V586.072C1309.96 584.456 1310.84 583.624 1312.18 583.624C1313.51 583.624 1314.39 584.456 1314.39 586.072V591ZM1318.54 588.552C1318.54 590.344 1319.51 591 1321.08 591H1322.52V589.48H1321.4C1320.63 589.48 1320.38 589.208 1320.38 588.552V583.672H1322.52V582.184H1320.38V579.992H1318.54V582.184H1317.5V583.672H1318.54V588.552ZM1329.64 583.48V582.184H1327.82V595.192H1329.64V589.72C1330.22 590.408 1331.26 591.144 1332.71 591.144C1335.03 591.144 1336.86 589.272 1336.86 586.552C1336.86 583.832 1335.03 582.04 1332.71 582.04C1331.27 582.04 1330.2 582.744 1329.64 583.48ZM1335 586.552C1335 588.456 1333.69 589.56 1332.31 589.56C1330.95 589.56 1329.64 588.488 1329.64 586.584C1329.64 584.696 1330.95 583.624 1332.31 583.624C1333.69 583.624 1335 584.648 1335 586.552ZM1338.39 591H1340.21V579.16H1338.39V591ZM1341.73 586.552C1341.73 589.272 1343.57 591.144 1345.85 591.144C1347.33 591.144 1348.38 590.44 1348.94 589.688V591H1350.78V582.184H1348.94V583.464C1348.4 582.744 1347.37 582.04 1345.89 582.04C1343.57 582.04 1341.73 583.832 1341.73 586.552ZM1348.94 586.584C1348.94 588.488 1347.65 589.56 1346.27 589.56C1344.91 589.56 1343.6 588.456 1343.6 586.552C1343.6 584.648 1344.91 583.624 1346.27 583.624C1347.65 583.624 1348.94 584.696 1348.94 586.584ZM1353.19 588.552C1353.19 590.344 1354.17 591 1355.74 591H1357.18V589.48H1356.06C1355.29 589.48 1355.03 589.208 1355.03 588.552V583.672H1357.18V582.184H1355.03V579.992H1353.19V582.184H1352.15V583.672H1353.19V588.552ZM1358.81 591H1360.65V583.672H1362.28V582.184H1360.65V581.56C1360.65 580.552 1361.03 580.168 1362.15 580.168V578.648C1359.85 578.648 1358.81 579.528 1358.81 581.56V582.184H1357.77V583.672H1358.81V591ZM1372.03 586.584C1372.03 583.816 1370.04 582.04 1367.53 582.04C1365.02 582.04 1363.04 583.816 1363.04 586.584C1363.04 589.352 1364.94 591.144 1367.45 591.144C1369.98 591.144 1372.03 589.352 1372.03 586.584ZM1364.89 586.584C1364.89 584.584 1366.12 583.624 1367.5 583.624C1368.86 583.624 1370.16 584.584 1370.16 586.584C1370.16 588.584 1368.81 589.56 1367.45 589.56C1366.08 589.56 1364.89 588.584 1364.89 586.584ZM1375.38 586.36C1375.38 584.488 1376.21 583.928 1377.56 583.928H1378.02V582.04C1376.77 582.04 1375.89 582.584 1375.38 583.464V582.184H1373.56V591H1375.38V586.36ZM1391.92 591H1393.73V585.8C1393.73 583.336 1392.16 582.04 1390.1 582.04C1388.82 582.04 1387.57 582.712 1387.03 583.784C1386.42 582.632 1385.25 582.04 1383.86 582.04C1382.8 582.04 1381.84 582.472 1381.25 583.192V582.184H1379.43V591H1381.25V586.072C1381.25 584.456 1382.13 583.624 1383.48 583.624C1384.8 583.624 1385.68 584.456 1385.68 586.072V591H1387.49V586.072C1387.49 584.456 1388.37 583.624 1389.72 583.624C1391.04 583.624 1391.92 584.456 1391.92 586.072V591ZM1271.88 612H1273.7V600.16H1271.88V612ZM1275.22 607.552C1275.22 610.272 1277.06 612.144 1279.35 612.144C1280.82 612.144 1281.87 611.44 1282.43 610.688V612H1284.27V603.184H1282.43V604.464C1281.89 603.744 1280.87 603.04 1279.38 603.04C1277.06 603.04 1275.22 604.832 1275.22 607.552ZM1282.43 607.584C1282.43 609.488 1281.14 610.56 1279.76 610.56C1278.4 610.56 1277.09 609.456 1277.09 607.552C1277.09 605.648 1278.4 604.624 1279.76 604.624C1281.14 604.624 1282.43 605.696 1282.43 607.584ZM1294.38 603.184H1292.56V608.096C1292.56 609.712 1291.68 610.544 1290.33 610.544C1289.01 610.544 1288.13 609.712 1288.13 608.096V603.184H1286.32V608.368C1286.32 610.832 1287.89 612.128 1289.95 612.128C1290.99 612.128 1291.98 611.696 1292.56 610.944V612H1294.38V603.184ZM1302.77 612H1304.58V606.8C1304.58 604.336 1303.03 603.04 1300.96 603.04C1299.91 603.04 1298.93 603.472 1298.34 604.192V603.184H1296.52V612H1298.34V607.072C1298.34 605.456 1299.22 604.624 1300.56 604.624C1301.89 604.624 1302.77 605.456 1302.77 607.072V612ZM1306.03 607.584C1306.03 610.352 1307.82 612.144 1310.35 612.144C1312.51 612.144 1313.91 610.944 1314.41 609.216H1312.44C1312.11 610.128 1311.43 610.608 1310.35 610.608C1308.87 610.608 1307.9 609.52 1307.9 607.584C1307.9 605.664 1308.87 604.576 1310.35 604.576C1311.43 604.576 1312.14 605.12 1312.44 605.968H1314.41C1313.91 604.112 1312.51 603.04 1310.35 603.04C1307.82 603.04 1306.03 604.832 1306.03 607.584ZM1315.96 612H1317.78V607.072C1317.78 605.456 1318.66 604.624 1320 604.624C1321.33 604.624 1322.21 605.456 1322.21 607.072V612H1324.02V606.8C1324.02 604.336 1322.48 603.04 1320.52 603.04C1319.38 603.04 1318.39 603.472 1317.78 604.208V600.16H1315.96V612ZM1329.79 604.576C1331.15 604.576 1332.22 605.44 1332.25 606.8H1327.37C1327.56 605.408 1328.55 604.576 1329.79 604.576ZM1333.91 609.376H1331.95C1331.61 610.064 1330.99 610.608 1329.87 610.608C1328.52 610.608 1327.48 609.728 1327.35 608.272H1334.09C1334.14 607.968 1334.15 607.68 1334.15 607.376C1334.15 604.784 1332.38 603.04 1329.87 603.04C1327.26 603.04 1325.47 604.816 1325.47 607.584C1325.47 610.352 1327.34 612.144 1329.87 612.144C1332.03 612.144 1333.42 610.912 1333.91 609.376ZM1335.07 607.552C1335.07 610.272 1336.91 612.144 1339.23 612.144C1340.67 612.144 1341.73 611.472 1342.29 610.672V612H1344.13V600.16H1342.29V604.416C1341.61 603.584 1340.4 603.04 1339.25 603.04C1336.91 603.04 1335.07 604.832 1335.07 607.552ZM1342.29 607.584C1342.29 609.488 1340.99 610.56 1339.61 610.56C1338.25 610.56 1336.94 609.456 1336.94 607.552C1336.94 605.648 1338.25 604.624 1339.61 604.624C1340.99 604.624 1342.29 605.696 1342.29 607.584Z" fill="#535353"/>
<path d="M254.249 220H256.073V215.136H259.753V213.648H256.073V210.368H260.793V208.88H254.249V220ZM262.212 220H264.036V211.184H262.212V220ZM263.14 210.016C263.78 210.016 264.292 209.504 264.292 208.848C264.292 208.192 263.78 207.68 263.14 207.68C262.484 207.68 261.972 208.192 261.972 208.848C261.972 209.504 262.484 210.016 263.14 210.016ZM267.982 215.36C267.982 213.488 268.814 212.928 270.158 212.928H270.622V211.04C269.374 211.04 268.494 211.584 267.982 212.464V211.184H266.158V220H267.982V215.36ZM278.603 217.536C278.507 214.352 273.531 215.344 273.531 213.568C273.531 212.976 274.043 212.576 275.019 212.576C276.011 212.576 276.603 213.104 276.667 213.872H278.491C278.395 212.112 277.083 211.04 275.083 211.04C273.003 211.04 271.691 212.176 271.691 213.584C271.691 216.816 276.811 215.824 276.811 217.552C276.811 218.16 276.251 218.608 275.195 218.608C274.187 218.608 273.499 218.016 273.435 217.296H271.547C271.627 218.896 273.115 220.144 275.227 220.144C277.307 220.144 278.603 219.024 278.603 217.536ZM280.59 217.552C280.59 219.344 281.566 220 283.134 220H284.574V218.48H283.454C282.686 218.48 282.43 218.208 282.43 217.552V212.672H284.574V211.184H282.43V208.992H280.59V211.184H279.55V212.672H280.59V217.552ZM291.691 212.48V211.184H289.867V224.192H291.691V218.72C292.267 219.408 293.307 220.144 294.763 220.144C297.083 220.144 298.907 218.272 298.907 215.552C298.907 212.832 297.083 211.04 294.763 211.04C293.323 211.04 292.251 211.744 291.691 212.48ZM297.051 215.552C297.051 217.456 295.739 218.56 294.363 218.56C293.003 218.56 291.691 217.488 291.691 215.584C291.691 213.696 293.003 212.624 294.363 212.624C295.739 212.624 297.051 213.648 297.051 215.552ZM299.831 215.552C299.831 218.272 301.671 220.144 303.959 220.144C305.431 220.144 306.487 219.44 307.047 218.688V220H308.887V211.184H307.047V212.464C306.503 211.744 305.479 211.04 303.991 211.04C301.671 211.04 299.831 212.832 299.831 215.552ZM307.047 215.584C307.047 217.488 305.751 218.56 304.375 218.56C303.015 218.56 301.703 217.456 301.703 215.552C301.703 213.648 303.015 212.624 304.375 212.624C305.751 212.624 307.047 213.696 307.047 215.584ZM312.835 215.36C312.835 213.488 313.667 212.928 315.011 212.928H315.475V211.04C314.227 211.04 313.347 211.584 312.835 212.464V211.184H311.011V220H312.835V215.36ZM317.167 217.552C317.167 219.344 318.143 220 319.711 220H321.151V218.48H320.031C319.263 218.48 319.007 218.208 319.007 217.552V212.672H321.151V211.184H319.007V208.992H317.167V211.184H316.127V212.672H317.167V217.552ZM328.817 220H330.625V214.8C330.625 212.336 329.073 211.04 327.009 211.04C325.953 211.04 324.977 211.472 324.385 212.192V211.184H322.561V220H324.385V215.072C324.385 213.456 325.265 212.624 326.609 212.624C327.937 212.624 328.817 213.456 328.817 215.072V220ZM336.391 212.576C337.751 212.576 338.823 213.44 338.855 214.8H333.975C334.167 213.408 335.159 212.576 336.391 212.576ZM340.519 217.376H338.551C338.215 218.064 337.591 218.608 336.471 218.608C335.127 218.608 334.087 217.728 333.959 216.272H340.695C340.743 215.968 340.759 215.68 340.759 215.376C340.759 212.784 338.983 211.04 336.471 211.04C333.863 211.04 332.071 212.816 332.071 215.584C332.071 218.352 333.943 220.144 336.471 220.144C338.631 220.144 340.023 218.912 340.519 217.376ZM344.106 215.36C344.106 213.488 344.938 212.928 346.282 212.928H346.746V211.04C345.498 211.04 344.618 211.584 344.106 212.464V211.184H342.282V220H344.106V215.36ZM265.594 236.584C265.594 233.816 263.61 232.04 261.098 232.04C258.586 232.04 256.602 233.816 256.602 236.584C256.602 239.352 258.506 241.144 261.018 241.144C263.546 241.144 265.594 239.352 265.594 236.584ZM258.458 236.584C258.458 234.584 259.69 233.624 261.066 233.624C262.426 233.624 263.722 234.584 263.722 236.584C263.722 238.584 262.378 239.56 261.018 239.56C259.642 239.56 258.458 238.584 258.458 236.584ZM273.381 241H275.189V235.8C275.189 233.336 273.637 232.04 271.573 232.04C270.517 232.04 269.541 232.472 268.949 233.192V232.184H267.125V241H268.949V236.072C268.949 234.456 269.829 233.624 271.173 233.624C272.501 233.624 273.381 234.456 273.381 236.072V241ZM279.068 233.496V229.16H277.244V241H279.068V239.72C279.644 240.488 280.684 241.144 282.14 241.144C284.46 241.144 286.284 239.272 286.284 236.552C286.284 233.832 284.476 232.04 282.14 232.04C280.748 232.04 279.644 232.696 279.068 233.496ZM284.428 236.552C284.428 238.456 283.116 239.56 281.74 239.56C280.38 239.56 279.068 238.488 279.068 236.584C279.068 234.696 280.38 233.624 281.74 233.624C283.116 233.624 284.428 234.648 284.428 236.552ZM296.216 236.584C296.216 233.816 294.232 232.04 291.72 232.04C289.208 232.04 287.224 233.816 287.224 236.584C287.224 239.352 289.128 241.144 291.64 241.144C294.168 241.144 296.216 239.352 296.216 236.584ZM289.08 236.584C289.08 234.584 290.312 233.624 291.688 233.624C293.048 233.624 294.344 234.584 294.344 236.584C294.344 238.584 293 239.56 291.64 239.56C290.264 239.56 289.08 238.584 289.08 236.584ZM297.139 236.552C297.139 239.272 298.979 241.144 301.267 241.144C302.739 241.144 303.795 240.44 304.355 239.688V241H306.195V232.184H304.355V233.464C303.811 232.744 302.787 232.04 301.299 232.04C298.979 232.04 297.139 233.832 297.139 236.552ZM304.355 236.584C304.355 238.488 303.059 239.56 301.683 239.56C300.323 239.56 299.011 238.456 299.011 236.552C299.011 234.648 300.323 233.624 301.683 233.624C303.059 233.624 304.355 234.696 304.355 236.584ZM310.143 236.36C310.143 234.488 310.975 233.928 312.319 233.928H312.783V232.04C311.535 232.04 310.655 232.584 310.143 233.464V232.184H308.319V241H310.143V236.36ZM313.579 236.552C313.579 239.272 315.419 241.144 317.739 241.144C319.179 241.144 320.235 240.472 320.795 239.672V241H322.635V229.16H320.795V233.416C320.123 232.584 318.907 232.04 317.755 232.04C315.419 232.04 313.579 233.832 313.579 236.552ZM320.795 236.584C320.795 238.488 319.499 239.56 318.123 239.56C316.763 239.56 315.451 238.456 315.451 236.552C315.451 234.648 316.763 233.624 318.123 233.624C319.499 233.624 320.795 234.696 320.795 236.584ZM328.471 233.576C329.831 233.576 330.903 234.44 330.935 235.8H326.055C326.247 234.408 327.239 233.576 328.471 233.576ZM332.599 238.376H330.631C330.295 239.064 329.671 239.608 328.551 239.608C327.207 239.608 326.167 238.728 326.039 237.272H332.775C332.823 236.968 332.839 236.68 332.839 236.376C332.839 233.784 331.063 232.04 328.551 232.04C325.943 232.04 324.151 233.816 324.151 236.584C324.151 239.352 326.023 241.144 328.551 241.144C330.711 241.144 332.103 239.912 332.599 238.376ZM333.754 236.552C333.754 239.272 335.594 241.144 337.914 241.144C339.354 241.144 340.41 240.472 340.97 239.672V241H342.81V229.16H340.97V233.416C340.298 232.584 339.082 232.04 337.93 232.04C335.594 232.04 333.754 233.832 333.754 236.552ZM340.97 236.584C340.97 238.488 339.674 239.56 338.298 239.56C336.938 239.56 335.626 238.456 335.626 236.552C335.626 234.648 336.938 233.624 338.298 233.624C339.674 233.624 340.97 234.696 340.97 236.584Z" fill="#535353"/>
</svg>
