<svg width="1920" height="4032" viewBox="0 0 1920 4032" fill="none" xmlns="http://www.w3.org/2000/svg">
<path d="M2007.95 3.79683e-05C1589.83 3.29822e-05 1175.8 82.3555 789.508 242.364C403.213 402.373 52.216 636.901 -243.441 932.559C-539.099 1228.22 -773.627 1579.21 -933.636 1965.51C-1093.64 2351.8 -1176 2765.83 -1176 3183.95C-1176 3602.08 -1093.64 4016.11 -933.636 4402.4C-773.627 4788.7 -539.099 5139.69 -243.441 5435.35C52.2162 5731.01 403.213 5965.54 789.508 6125.54C1175.8 6285.55 1589.83 6367.91 2007.95 6367.91L2007.95 3183.95L2007.95 3.79683e-05Z" fill="white"/>
<mask id="path-2-inside-1_633_383" fill="white">
<path d="M2008.89 654.314C1676.57 654.314 1347.5 719.769 1040.48 846.942C733.455 974.116 454.486 1160.52 219.501 1395.5C-15.4844 1630.49 -201.885 1909.46 -329.058 2216.48C-456.231 2523.5 -521.687 2852.57 -521.686 3184.89C-521.686 3517.21 -456.231 3846.27 -329.058 4153.29C-201.885 4460.32 -15.4843 4739.29 219.501 4974.27C454.487 5209.26 733.455 5395.66 1040.48 5522.83C1347.5 5650 1676.57 5715.46 2008.89 5715.46L2008.89 3184.89L2008.89 654.314Z"/>
</mask>
<path d="M2008.89 654.314C1676.57 654.314 1347.5 719.769 1040.48 846.942C733.455 974.116 454.486 1160.52 219.501 1395.5C-15.4844 1630.49 -201.885 1909.46 -329.058 2216.48C-456.231 2523.5 -521.687 2852.57 -521.686 3184.89C-521.686 3517.21 -456.231 3846.27 -329.058 4153.29C-201.885 4460.32 -15.4843 4739.29 219.501 4974.27C454.487 5209.26 733.455 5395.66 1040.48 5522.83C1347.5 5650 1676.57 5715.46 2008.89 5715.46L2008.89 3184.89L2008.89 654.314Z" fill="#F5F7FA" stroke="#DCE6EF" stroke-width="4" mask="url(#path-2-inside-1_633_383)"/>
<mask id="path-3-inside-2_633_383" fill="white">
<path d="M2008.57 1124.08C1737.69 1124.08 1469.47 1177.43 1219.22 1281.09C968.961 1384.75 741.573 1536.68 550.036 1728.22C358.5 1919.76 206.564 2147.14 102.905 2397.4C-0.753829 2647.65 -54.1064 2915.88 -54.1064 3186.75C-54.1064 3457.62 -0.753793 3725.85 102.905 3976.1C206.564 4226.36 358.5 4453.74 550.037 4645.28C741.573 4836.82 968.961 4988.75 1219.22 5092.41C1469.47 5196.07 1737.69 5249.42 2008.57 5249.42L2008.57 3186.75L2008.57 1124.08Z"/>
</mask>
<path d="M2008.57 1124.08C1737.69 1124.08 1469.47 1177.43 1219.22 1281.09C968.961 1384.75 741.573 1536.68 550.036 1728.22C358.5 1919.76 206.564 2147.14 102.905 2397.4C-0.753829 2647.65 -54.1064 2915.88 -54.1064 3186.75C-54.1064 3457.62 -0.753793 3725.85 102.905 3976.1C206.564 4226.36 358.5 4453.74 550.037 4645.28C741.573 4836.82 968.961 4988.75 1219.22 5092.41C1469.47 5196.07 1737.69 5249.42 2008.57 5249.42L2008.57 3186.75L2008.57 1124.08Z" fill="#F1F5FA" stroke="#DCE6EF" stroke-width="4" mask="url(#path-3-inside-2_633_383)"/>
<mask id="path-4-inside-3_633_383" fill="white">
<path d="M2008.57 1586.38C1798.4 1586.38 1590.3 1627.78 1396.13 1708.21C1201.97 1788.63 1025.55 1906.51 876.937 2055.12C728.33 2203.73 610.448 2380.15 530.022 2574.32C449.596 2768.48 408.201 2976.59 408.201 3186.75C408.201 3396.91 449.596 3605.02 530.022 3799.18C610.448 3993.35 728.33 4169.77 876.938 4318.38C1025.55 4466.99 1201.97 4584.87 1396.13 4665.3C1590.3 4745.72 1798.4 4787.12 2008.57 4787.12L2008.57 3186.75L2008.57 1586.38Z"/>
</mask>
<path d="M2008.57 1586.38C1798.4 1586.38 1590.3 1627.78 1396.13 1708.21C1201.97 1788.63 1025.55 1906.51 876.937 2055.12C728.33 2203.73 610.448 2380.15 530.022 2574.32C449.596 2768.48 408.201 2976.59 408.201 3186.75C408.201 3396.91 449.596 3605.02 530.022 3799.18C610.448 3993.35 728.33 4169.77 876.938 4318.38C1025.55 4466.99 1201.97 4584.87 1396.13 4665.3C1590.3 4745.72 1798.4 4787.12 2008.57 4787.12L2008.57 3186.75L2008.57 1586.38Z" fill="#EBF1F8" stroke="#DCE6EF" stroke-width="4" mask="url(#path-4-inside-3_633_383)"/>
<mask id="path-5-inside-4_633_383" fill="white">
<path d="M2007.63 2024.46C1854.88 2024.46 1703.62 2054.55 1562.49 2113C1421.36 2171.46 1293.13 2257.14 1185.11 2365.16C1077.1 2473.18 991.413 2601.41 932.955 2742.54C874.498 2883.67 844.41 3034.93 844.41 3187.68C844.41 3340.44 874.498 3491.7 932.955 3632.83C991.413 3773.96 1077.1 3902.19 1185.11 4010.21C1293.13 4118.22 1421.36 4203.91 1562.49 4262.36C1703.62 4320.82 1854.88 4350.91 2007.63 4350.91L2007.63 3187.68L2007.63 2024.46Z"/>
</mask>
<path d="M2007.63 2024.46C1854.88 2024.46 1703.62 2054.55 1562.49 2113C1421.36 2171.46 1293.13 2257.14 1185.11 2365.16C1077.1 2473.18 991.413 2601.41 932.955 2742.54C874.498 2883.67 844.41 3034.93 844.41 3187.68C844.41 3340.44 874.498 3491.7 932.955 3632.83C991.413 3773.96 1077.1 3902.19 1185.11 4010.21C1293.13 4118.22 1421.36 4203.91 1562.49 4262.36C1703.62 4320.82 1854.88 4350.91 2007.63 4350.91L2007.63 3187.68L2007.63 2024.46Z" fill="#E7EEF6" stroke="#DCE6EF" stroke-width="4" mask="url(#path-5-inside-4_633_383)"/>
</svg>
