<svg width="108" height="99" viewBox="0 0 108 99" fill="none" xmlns="http://www.w3.org/2000/svg">
<path d="M90.098 0.000892062C86.0507 0.10462 82.7737 3.45734 82.7737 7.53135C82.7737 9.39848 83.4646 11.1158 84.6003 12.4395L69.2138 34.3799C68.3842 34.0621 67.4857 33.8879 66.5481 33.8879C64.6004 33.8879 62.8198 34.6413 61.4808 35.87L48.6262 27.3882C48.9005 26.6096 49.0496 25.7746 49.0496 24.907C49.0496 20.7683 45.655 17.3765 41.5192 17.3765C37.3834 17.3765 33.9996 20.7683 33.9996 24.907C33.9996 26.2165 34.339 27.4529 34.9327 28.5312L21.1956 41.4075C20.0199 40.6469 18.6239 40.203 17.1302 40.203C12.9944 40.203 9.61055 43.5984 9.61055 47.7371C9.61055 51.8758 12.9944 55.2821 17.1302 55.2821C21.2658 55.2821 24.6606 51.8758 24.6606 47.7371C24.6606 46.426 24.3211 45.1903 23.7238 44.1129L37.4646 31.2511C38.6361 32.0103 40.0293 32.4519 41.5192 32.4519C43.4632 32.4519 45.2415 31.7012 46.5829 30.4734L59.4448 38.9588C59.176 39.7313 59.029 40.5612 59.029 41.4219C59.029 45.5606 62.4128 48.9669 66.5486 48.9669C70.6844 48.9669 74.0682 45.5606 74.0682 41.4219C74.0682 39.5566 73.3788 37.8412 72.2453 36.521L87.6209 14.5806C88.4525 14.9015 89.3533 15.0797 90.2938 15.0797C94.4296 15.0797 97.8134 11.6699 97.8134 7.53119C97.8134 3.39249 94.4296 0.000731028 90.2938 0.000731028C90.2308 0.000731028 90.1629 -0.000913785 90.0986 0.000731028L90.098 0.000892062ZM90.2933 3.70464C92.4222 3.70464 94.12 5.38916 94.12 7.53135C94.12 9.67358 92.4222 11.3725 90.2933 11.3725C88.1643 11.3725 86.4774 9.6736 86.4774 7.53135C86.4774 5.38914 88.1643 3.70464 90.2933 3.70464ZM41.5188 21.0804C43.6478 21.0804 45.3455 22.7649 45.3456 24.9071C45.3456 27.0494 43.6478 28.7483 41.5188 28.7483C39.3899 28.7483 37.703 27.0494 37.703 24.9071C37.703 22.7649 39.3899 21.0804 41.5188 21.0804V21.0804ZM85.0306 34.5861C84.7862 34.5852 84.5441 34.6326 84.3181 34.7257C84.0921 34.8188 83.8868 34.9557 83.714 35.1285C83.5411 35.3013 83.4042 35.5066 83.3111 35.7326C83.218 35.9586 83.1706 36.2008 83.1715 36.4452V94.2981H73.026V62.4329C73.0241 61.9417 72.8271 61.4715 72.4784 61.1255C72.1298 60.7796 71.658 60.5863 71.1669 60.5882H60.6415C60.1504 60.5864 59.6787 60.7797 59.33 61.1256C58.9814 61.4715 58.7845 61.9417 58.7825 62.4329V94.2981H48.6406V49.4444C48.6415 49.2 48.594 48.9579 48.5009 48.7319C48.4078 48.5059 48.2709 48.3006 48.0981 48.1278C47.9253 47.955 47.72 47.8181 47.494 47.725C47.2681 47.6319 47.0259 47.5844 46.7815 47.5854H36.2525C36.0081 47.5844 35.766 47.6319 35.54 47.725C35.314 47.8181 35.1087 47.955 34.9359 48.1278C34.7631 48.3006 34.6262 48.5059 34.5331 48.7319C34.44 48.9579 34.3926 49.2 34.3935 49.4444V94.2981H24.2516V75.4322C24.2496 74.9411 24.0527 74.4708 23.704 74.1249C23.3554 73.7789 22.8836 73.5856 22.3924 73.5875H11.8672C11.376 73.5856 10.9042 73.7789 10.5556 74.1249C10.2069 74.4708 10.01 74.9411 10.008 75.4322V94.2981H1.85907C1.36793 94.2962 0.896149 94.4895 0.547508 94.8354C0.198867 95.1814 0.00192783 95.6516 1.40068e-05 96.1428C-0.000936522 96.3872 0.0465006 96.6294 0.13959 96.8553C0.23268 97.0813 0.369581 97.2866 0.5424 97.4595C0.715219 97.6323 0.920538 97.7692 1.14652 97.8623C1.3725 97.9554 1.61467 98.0028 1.85907 98.0018H11.8672H22.3924H36.2525H46.7815H60.6415H71.1669H85.0306H95.5559H105.564C105.808 98.0028 106.051 97.9554 106.277 97.8623C106.503 97.7692 106.708 97.6323 106.881 97.4595C107.053 97.2866 107.19 97.0813 107.283 96.8553C107.377 96.6294 107.424 96.3872 107.423 96.1428C107.421 95.6516 107.224 95.1814 106.876 94.8354C106.527 94.4895 106.055 94.2962 105.564 94.2981H97.415V36.4452C97.416 36.2008 97.3685 35.9586 97.2754 35.7326C97.1823 35.5066 97.0454 35.3013 96.8726 35.1285C96.6997 34.9557 96.4944 34.8188 96.2684 34.7257C96.0425 34.6326 95.8003 34.5852 95.5559 34.5861H85.0306ZM66.548 37.5918C68.677 37.5918 70.3603 39.2798 70.3603 41.4221C70.3603 43.5643 68.677 45.2633 66.548 45.2633C64.4191 45.2633 62.7214 43.5643 62.7214 41.4221C62.7214 39.2798 64.4191 37.5918 66.548 37.5918ZM86.8753 38.2896H93.7113V94.2979H86.8753V38.2896ZM17.1298 43.9103C19.2587 43.9103 20.9565 45.5948 20.9565 47.737C20.9565 49.8792 19.2587 51.5782 17.1298 51.5782C15.0009 51.5782 13.3139 49.8792 13.3139 47.737C13.3139 45.5948 15.0009 43.9103 17.1298 43.9103V43.9103ZM38.1008 51.2925H44.9332V94.2979H38.1008V51.2925ZM62.4862 64.2918H69.3223V94.2979H62.4862V64.2918ZM13.7118 77.2911H20.5478V94.2979H13.7118V77.2911Z" fill="#0BACF0"/>
</svg>
