<svg width="94" height="102" viewBox="0 0 94 102" fill="none" xmlns="http://www.w3.org/2000/svg">
<path d="M91.7187 11.7552H86.9586C86.4298 5.05131 82.8899 0 78.4174 0C74.0133 0 70.3918 5.02995 69.8575 11.7552H65.808C65.2792 5.05131 61.7395 0 57.2709 0C52.8669 0 49.2473 5.02995 48.7112 11.7552H44.6594C44.1311 5.05131 40.5927 0 36.1204 0C31.7163 0 28.0987 5.02995 27.5626 11.7552H23.5132C22.9848 5.05131 19.4464 0 14.9742 0C10.572 0 6.95249 5.02995 6.41466 11.7552H1.70435C0.763794 11.7552 0 12.519 0 13.4595V36.9448C0 37.8854 0.763794 38.6492 1.70435 38.6492H2.29117V94.139C2.29117 97.9262 5.4167 101.006 9.26027 101.006H84.1652C88.0066 101.006 91.1362 97.9262 91.1362 94.139V38.649H91.7189C92.6595 38.649 93.4252 37.8852 93.4252 36.9446V13.4595C93.425 12.519 92.6593 11.7552 91.7187 11.7552ZM78.4174 3.40869C80.6464 3.40869 83.0854 6.76839 83.5544 11.7552H73.2806C73.7254 7.10443 75.9486 3.40869 78.4174 3.40869ZM57.2712 3.40869C59.5002 3.40869 61.9357 6.76839 62.4041 11.7552H52.1344C52.5792 7.10443 54.8024 3.40869 57.2712 3.40869ZM36.1206 3.40869C38.3496 3.40869 40.7899 6.76839 41.2595 11.7552H30.986C31.4308 7.10443 33.6538 3.40869 36.1206 3.40869ZM14.9744 3.40869C17.2034 3.40869 19.6437 6.76839 20.1133 11.7552H9.83803C10.2841 7.10443 12.5073 3.40869 14.9744 3.40869ZM3.40848 15.1637H20.1131C19.7669 18.846 18.3539 21.6303 16.7316 22.8372C15.9956 21.8477 14.8738 21.1644 13.5456 21.1644C11.3158 21.1644 9.50782 22.9721 9.50782 25.2022C9.50782 27.4325 11.3155 29.2402 13.5456 29.2402C15.3644 29.2402 16.8436 28.0159 17.3493 26.3627C20.6568 24.9326 23.0832 20.6201 23.5132 15.1637H41.2593C40.9224 18.748 39.5761 21.4944 38.0075 22.7507C37.2684 21.8088 36.1707 21.1646 34.8805 21.1646C32.6506 21.1646 30.8427 22.9723 30.8427 25.2024C30.8427 27.4327 32.6504 29.2404 34.8805 29.2404C36.7338 29.2404 38.2292 27.9664 38.704 26.2642C41.9051 24.7442 44.2388 20.5046 44.6596 15.1639H62.4038C62.0758 18.661 60.7865 21.3444 59.2679 22.6402C58.5275 21.7579 57.4576 21.1648 56.2156 21.1648C53.9853 21.1648 52.1775 22.9725 52.1775 25.2026C52.1775 27.4329 53.9853 29.2406 56.2156 29.2406C58.1036 29.2406 59.6169 27.9177 60.0587 26.1669C63.1538 24.564 65.3962 20.39 65.808 15.1641H83.5544C83.2339 18.5734 81.9972 21.1978 80.5268 22.5284C79.7877 21.705 78.7435 21.1648 77.55 21.1648C75.3201 21.1648 73.5122 22.9725 73.5122 25.2026C73.5122 27.4329 75.3199 29.2406 77.55 29.2406C79.4726 29.2406 81.0055 27.8691 81.4128 26.0694C84.4056 24.3909 86.5556 20.2756 86.9586 15.1641H90.0122V35.2407H89.4295H3.9953H3.40848V15.1637ZM84.165 97.5932H61.4544L87.7232 86.4434V94.139C87.7232 96.0449 86.1294 97.5932 84.165 97.5932ZM78.6962 78.9813C78.9958 78.7191 79.3664 78.586 79.7367 78.586C80.0905 78.586 80.4485 78.7066 80.7396 78.9481L86.1708 83.3971L62.0946 93.6186L78.6962 78.9813ZM70.5306 81.6362V78.9024H73.6315L70.5306 81.6362ZM87.7232 80.2627L82.8996 76.3095C81.4905 75.1615 79.6476 74.9036 78.0393 75.4896H68.8241C67.8836 75.4896 67.1178 76.2553 67.1178 77.1959V84.6445L52.4298 97.593H9.26006C7.2978 97.593 5.69964 96.0447 5.69964 94.1387V38.649H87.7232V80.2627Z" fill="#0BACF0"/>
<path d="M15.1389 55.4916H24.5988C25.5394 55.4916 26.3032 54.7259 26.3032 53.7853V44.3254C26.3032 43.3849 25.5394 42.6211 24.5988 42.6211H15.1389C14.1984 42.6211 13.4346 43.3849 13.4346 44.3254V53.7853C13.4348 54.7259 14.1984 55.4916 15.1389 55.4916ZM16.8433 46.0298H22.8945V52.081H16.8433V46.0298V46.0298Z" fill="#0BACF0"/>
<path d="M33.0344 55.4916H42.4943C43.4349 55.4916 44.1987 54.7259 44.1987 53.7853V44.3254C44.1987 43.3849 43.4349 42.6211 42.4943 42.6211H33.0344C32.0939 42.6211 31.3301 43.3849 31.3301 44.3254V53.7853C31.3303 54.7259 32.0939 55.4916 33.0344 55.4916ZM34.7388 46.0298H40.79V52.081H34.7388V46.0298Z" fill="#0BACF0"/>
<path d="M50.9304 55.4916H60.3923C61.3328 55.4916 62.0986 54.7259 62.0986 53.7853V44.3254C62.0986 43.3849 61.3328 42.6211 60.3923 42.6211H50.9304C49.9899 42.6211 49.2261 43.3849 49.2261 44.3254V53.7853C49.2261 54.7259 49.9899 55.4916 50.9304 55.4916ZM52.6348 46.0298H58.686V52.081H52.6348V46.0298Z" fill="#0BACF0"/>
<path d="M68.8245 55.4916H78.2885C79.229 55.4916 79.9947 54.7259 79.9947 53.7853V44.3254C79.9947 43.3849 79.229 42.6211 78.2885 42.6211H68.8245C67.8839 42.6211 67.1182 43.3849 67.1182 44.3254V53.7853C67.1182 54.7259 67.8839 55.4916 68.8245 55.4916ZM70.5307 46.0298H76.582V52.081H70.5307V46.0298Z" fill="#0BACF0"/>
<path d="M15.1389 71.9272H24.5988C25.5394 71.9272 26.3032 71.1614 26.3032 70.2209V60.761C26.3032 59.8204 25.5394 59.0547 24.5988 59.0547H15.1389C14.1984 59.0547 13.4346 59.8204 13.4346 60.761V70.2209C13.4348 71.1612 14.1984 71.9272 15.1389 71.9272ZM16.8433 62.4673H22.8945V68.5144H16.8433V62.4673V62.4673Z" fill="#0BACF0"/>
<path d="M33.0344 71.9272H42.4943C43.4349 71.9272 44.1987 71.1614 44.1987 70.2209V60.761C44.1987 59.8204 43.4349 59.0547 42.4943 59.0547H33.0344C32.0939 59.0547 31.3301 59.8204 31.3301 60.761V70.2209C31.3303 71.1612 32.0939 71.9272 33.0344 71.9272ZM34.7388 62.4673H40.79V68.5144H34.7388V62.4673Z" fill="#0BACF0"/>
<path d="M50.9304 71.9272H60.3923C61.3328 71.9272 62.0986 71.1614 62.0986 70.2209V60.761C62.0986 59.8204 61.3328 59.0547 60.3923 59.0547H50.9304C49.9899 59.0547 49.2261 59.8204 49.2261 60.761V70.2209C49.2261 71.1612 49.9899 71.9272 50.9304 71.9272ZM52.6348 62.4673H58.686V68.5144H52.6348V62.4673Z" fill="#0BACF0"/>
<path d="M68.8245 71.9272H78.2885C79.229 71.9272 79.9947 71.1614 79.9947 70.2209V60.761C79.9947 59.8204 79.229 59.0547 78.2885 59.0547H68.8245C67.8839 59.0547 67.1182 59.8204 67.1182 60.761V70.2209C67.1182 71.1612 67.8839 71.9272 68.8245 71.9272ZM70.5307 62.4673H76.582V68.5144H70.5307V62.4673Z" fill="#0BACF0"/>
<path d="M15.1389 88.3627H24.5988C25.5394 88.3627 26.3032 87.597 26.3032 86.6564V77.1965C26.3032 76.256 25.5394 75.4902 24.5988 75.4902H15.1389C14.1984 75.4902 13.4346 76.256 13.4346 77.1965V86.6564C13.4348 87.597 14.1984 88.3627 15.1389 88.3627ZM16.8433 78.9028H22.8945V84.9499H16.8433V78.9028V78.9028Z" fill="#0BACF0"/>
<path d="M33.0344 88.3627H42.4943C43.4349 88.3627 44.1987 87.597 44.1987 86.6564V77.1965C44.1987 76.256 43.4349 75.4902 42.4943 75.4902H33.0344C32.0939 75.4902 31.3301 76.256 31.3301 77.1965V86.6564C31.3303 87.597 32.0939 88.3627 33.0344 88.3627ZM34.7388 78.9028H40.79V84.9499H34.7388V78.9028Z" fill="#0BACF0"/>
<path d="M50.9304 88.3627H60.3923C61.3328 88.3627 62.0986 87.597 62.0986 86.6564V77.1965C62.0986 76.256 61.3328 75.4902 60.3923 75.4902H50.9304C49.9899 75.4902 49.2261 76.256 49.2261 77.1965V86.6564C49.2261 87.597 49.9899 88.3627 50.9304 88.3627ZM52.6348 78.9028H58.686V84.9499H52.6348V78.9028Z" fill="#0BACF0"/>
</svg>
