<svg width="104" height="111" viewBox="0 0 104 111" fill="none" xmlns="http://www.w3.org/2000/svg">
<path d="M81.4002 7.40137H61.0504V11.1013H81.4002C82.8722 11.1013 84.2838 11.6861 85.3246 12.7269C86.3654 13.7677 86.9502 15.1793 86.9502 16.6513V18.5013H74.0003V22.2012H86.9502V71.3849L82.1661 66.6008H83.2502V62.9009H78.3441C76.8548 61.6875 74.9926 61.0249 73.0716 61.0249C71.1506 61.0249 69.2884 61.6875 67.7991 62.9009H61.0504V66.6008H65.1888C64.7762 67.7877 64.6352 69.0521 64.7763 70.3008H61.0504V74.0008H66.075C66.3857 74.4716 66.7434 74.9099 67.1424 75.3087L69.5344 77.7007H61.0504V81.4007H73.2344L76.9344 85.1007H61.0504V88.8006H75.4803C74.9598 89.9909 74.5601 91.2305 74.287 92.5006H35.1506V75.8507H31.4507V101.751C31.4536 104.203 32.4291 106.554 34.1632 108.288C35.8972 110.022 38.2483 110.997 40.7006 111H81.4002V107.3C81.4004 106.88 81.2575 106.472 80.9951 106.144C79.0335 103.711 77.8537 100.741 77.6107 97.625C77.3677 94.5089 78.0728 91.3921 79.6335 88.6841L81.156 86.0182C81.3559 85.6665 81.4351 85.259 81.3813 84.8581C81.3275 84.4571 81.1437 84.0848 80.8582 83.7983L69.7583 72.6984C68.9013 71.814 68.4265 70.6281 68.4362 69.3967C68.4459 68.1652 68.9394 66.987 69.8102 66.1162C70.6809 65.2454 71.8592 64.7519 73.0906 64.7422C74.322 64.7325 75.5079 65.2074 76.3923 66.0643L91.1922 80.8642L93.8081 78.2483L90.6501 75.0848V56.931L95.7801 63.1192C98.4358 66.154 99.8997 70.0495 99.9001 74.0822V111H103.6V74.0822C103.606 69.1711 101.831 64.4245 98.6051 60.7216L90.6501 51.1331V16.6513C90.6472 14.199 89.6717 11.8479 87.9377 10.1138C86.2036 8.37979 83.8526 7.4043 81.4002 7.40137V7.40137ZM40.7006 107.3C39.2287 107.3 37.817 106.716 36.7762 105.675C35.7354 104.634 35.1506 103.222 35.1506 101.751V96.2006H73.9115C73.8628 100.162 75.0458 104.041 77.297 107.3H40.7006Z" fill="#0BACF0"/>
<path d="M62.9002 99.9004H59.2002V103.6H62.9002V99.9004Z" fill="#0BACF0"/>
<path d="M38.8506 75.85V86.9499C38.8506 87.4405 39.0455 87.9111 39.3924 88.258C39.7394 88.605 40.2099 88.7999 40.7006 88.7999H55.5004C55.9911 88.7999 56.4616 88.605 56.8086 88.258C57.1555 87.9111 57.3504 87.4405 57.3504 86.9499V74H53.6504V85.0999H42.5506V75.85H38.8506Z" fill="#0BACF0"/>
<path d="M83.2503 55.5H72.1504V59.2H83.2503V55.5Z" fill="#0BACF0"/>
<path d="M83.2503 48.1006H72.1504V51.8006H83.2503V48.1006Z" fill="#0BACF0"/>
<path d="M83.2501 33.3008H77.7002V37.0007H83.2501V33.3008Z" fill="#0BACF0"/>
<path d="M83.25 40.7002H75.8501V44.4002H83.25V40.7002Z" fill="#0BACF0"/>
<path d="M83.2499 25.9004H74V29.6004H83.2499V25.9004Z" fill="#0BACF0"/>
<path d="M0.478299 38.242L6.69979 45.1202L4.75176 54.1852C4.65526 54.6334 4.72863 55.1014 4.95764 55.4986C5.18666 55.8958 5.555 56.1938 5.99125 56.3348L14.8194 59.182L17.6646 68.0101C17.8057 68.4463 18.1037 68.8147 18.5009 69.0437C18.898 69.2727 19.3661 69.3461 19.8143 69.2496L28.8792 67.3015L35.7575 73.523C36.0976 73.8309 36.54 74.0013 36.9988 74.0013C37.4576 74.0013 37.9 73.8309 38.2402 73.523L45.1184 67.3015L54.1833 69.2496C54.6315 69.3461 55.0996 69.2727 55.4968 69.0437C55.894 68.8147 56.192 68.4463 56.333 68.0101L59.182 59.182L68.0101 56.3367C68.4463 56.1957 68.8147 55.8977 69.0437 55.5005C69.2727 55.1033 69.3461 54.6352 69.2496 54.187L67.3015 45.1221L73.523 38.2439C73.8309 37.9037 74.0013 37.4613 74.0013 37.0025C74.0013 36.5437 73.8309 36.1013 73.523 35.7612L67.3015 28.8829L69.2496 19.818C69.3461 19.3698 69.2727 18.9017 69.0437 18.5046C68.8147 18.1074 68.4463 17.8094 68.0101 17.6683L59.182 14.8194L56.3367 5.99125C56.1957 5.555 55.8977 5.18666 55.5005 4.95764C55.1033 4.72863 54.6352 4.65526 54.187 4.75176L45.1221 6.69979L38.242 0.478299C37.9018 0.170463 37.4594 0 37.0007 0C36.5419 0 36.0995 0.170463 35.7593 0.478299L28.8811 6.69979L19.8162 4.75176C19.368 4.65526 18.8999 4.72863 18.5027 4.95764C18.1055 5.18666 17.8075 5.555 17.6665 5.99125L14.8194 14.8194L5.99125 17.6646C5.555 17.8057 5.18666 18.1037 4.95764 18.5009C4.72863 18.898 4.65526 19.3661 4.75176 19.8143L6.69979 28.8792L0.478299 35.7593C0.170463 36.0995 0 36.5419 0 37.0007C0 37.4594 0.170463 37.9018 0.478299 38.242ZM10.0797 30.6571C10.2765 30.4395 10.4187 30.1782 10.4946 29.8948C10.5706 29.6114 10.578 29.3141 10.5163 29.0272L8.71997 20.669L16.8599 18.0457C17.1392 17.9557 17.393 17.8006 17.6005 17.5931C17.808 17.3856 17.9631 17.1318 18.0531 16.8525L20.6764 8.71257L29.0346 10.5089C29.3215 10.5692 29.6185 10.5611 29.9017 10.4853C30.1849 10.4094 30.4462 10.2679 30.6645 10.0723L37.0007 4.34476L43.3406 10.0797C43.5581 10.2765 43.8194 10.4187 44.1028 10.4946C44.3862 10.5706 44.6836 10.578 44.9704 10.5163L53.3286 8.71997L55.9519 16.8599C56.0419 17.1392 56.1971 17.393 56.4045 17.6005C56.612 17.808 56.8659 17.9631 57.1451 18.0531L65.2851 20.6764L63.4887 29.0346C63.427 29.3215 63.4345 29.6188 63.5104 29.9022C63.5863 30.1856 63.7285 30.4469 63.9253 30.6645L69.6566 37.0007L63.9216 43.3406C63.7248 43.5581 63.5826 43.8194 63.5067 44.1028C63.4308 44.3862 63.4234 44.6836 63.485 44.9704L65.2814 53.3286L57.1414 55.9519C56.8622 56.0419 56.6083 56.1971 56.4008 56.4045C56.1934 56.612 56.0382 56.8659 55.9482 57.1451L53.3249 65.2851L44.9667 63.4887C44.6799 63.427 44.3825 63.4345 44.0991 63.5104C43.8157 63.5863 43.5544 63.7285 43.3369 63.9253L37.0007 69.6566L30.6608 63.9216C30.4432 63.7248 30.1819 63.5826 29.8985 63.5067C29.6151 63.4308 29.3178 63.4234 29.0309 63.485L20.6727 65.2814L18.0494 57.1414C17.9594 56.8622 17.8043 56.6083 17.5968 56.4008C17.3893 56.1934 17.1355 56.0382 16.8562 55.9482L8.71627 53.3249L10.5126 44.9667C10.5743 44.6799 10.5669 44.3825 10.4909 44.0991C10.415 43.8157 10.2728 43.5544 10.076 43.3369L4.34476 37.0007L10.0797 30.6571Z" fill="#0BACF0"/>
<path d="M18.2793 45.7799C19.0493 46.2708 19.9017 46.6186 20.7953 46.8066L22.2383 54.0216C22.324 54.4391 22.5512 54.8142 22.8815 55.0835C23.2119 55.3529 23.6251 55.4999 24.0513 55.4997H31.4512C31.729 55.4999 32.0033 55.4375 32.2537 55.3172C32.5041 55.1969 32.7242 55.0218 32.8976 54.8048C33.0711 54.5878 33.1934 54.3346 33.2556 54.0638C33.3178 53.7931 33.3182 53.5118 33.2568 53.2409L31.6066 45.9464L49.7365 48.0868C49.8076 48.0957 49.8793 48.1 49.951 48.0998C50.2268 48.0998 50.4991 48.0382 50.748 47.9194C50.9969 47.8006 51.2161 47.6277 51.3895 47.4133C51.5629 47.1989 51.6863 46.9484 51.7504 46.6802C51.8146 46.412 51.818 46.1328 51.7603 45.8631L46.2104 19.9634C46.1465 19.6654 46.0101 19.3879 45.8132 19.1554C45.6163 18.9229 45.365 18.7426 45.0816 18.6305C44.7983 18.5185 44.4916 18.4782 44.1889 18.5132C43.8863 18.5482 43.5969 18.6574 43.3466 18.8312L26.0511 30.8394L20.7972 31.9735C19.329 32.2904 17.9876 33.0354 16.9428 34.1144C15.8979 35.1935 15.1964 36.5581 14.927 38.0357C14.6575 39.5134 14.8321 41.0377 15.4288 42.4162C16.0255 43.7946 17.0175 44.9651 18.2793 45.7799V45.7799ZM43.1746 23.4543L47.5997 44.1093L30.7649 42.1206L28.8797 33.3868L43.1746 23.4543ZM29.1369 51.7997H25.5683L24.5489 46.703L27.8234 45.9963L29.1369 51.7997ZM19.1248 37.2848C19.4013 36.8541 19.7605 36.4826 20.1816 36.1918C20.6027 35.9009 21.0772 35.6964 21.5779 35.5902L25.3833 34.7688L26.4063 39.5103L27.0261 42.3852L23.2188 43.2047C22.4657 43.3667 21.6816 43.3019 20.9654 43.0184C20.2492 42.7348 19.6331 42.2454 19.1949 41.6119C18.7568 40.9783 18.5163 40.2291 18.5038 39.4589C18.4913 38.6888 18.7074 37.9322 19.1248 37.2848Z" fill="#0BACF0"/>
<path d="M57.3504 29.6006H53.6504V33.3006H57.3504V29.6006Z" fill="#0BACF0"/>
<path d="M54.673 20.5456L50.9731 22.3955L52.6278 25.7049L56.3277 23.8549L54.673 20.5456Z" fill="#0BACF0"/>
<path d="M57.3504 38.8506H53.6504V42.5506H57.3504V38.8506Z" fill="#0BACF0"/>
</svg>
