<svg width="100" height="119" viewBox="0 0 100 119" fill="none" xmlns="http://www.w3.org/2000/svg">
<path d="M47.9923 99.7993C29.2391 99.7993 11.9256 89.6262 2.7697 73.2723C2.25144 72.351 2.57775 71.1801 3.4991 70.6618C4.42044 70.1436 5.59132 70.4699 6.10957 71.3913C14.5936 86.555 30.6403 95.9604 47.9923 95.9604C74.4618 95.9604 95.979 74.4432 95.979 47.9738C95.979 30.6218 86.5736 14.5751 71.4098 6.09102C70.4885 5.57276 70.1621 4.40189 70.6804 3.48054C71.1987 2.5592 72.3695 2.23289 73.2909 2.75115C89.6447 11.907 99.8179 29.2206 99.8179 47.9738C99.8179 76.5546 76.5732 99.7993 47.9923 99.7993Z" fill="#0BACF0"/>
<path d="M77.8598 20.0248C77.3608 20.0248 76.8809 19.8329 76.497 19.4682C75.7484 18.7196 75.7484 17.5103 76.497 16.7617L92.6973 0.561444C93.4459 -0.187148 94.6551 -0.187148 95.4037 0.561444C96.1523 1.31004 96.1523 2.5193 95.4037 3.26789L79.2034 19.4682C78.8387 19.8329 78.3589 20.0248 77.8598 20.0248Z" fill="#0BACF0"/>
<path d="M1.92426 95.9574C1.4252 95.9574 0.945337 95.7655 0.561444 95.4008C-0.187148 94.6522 -0.187148 93.4429 0.561444 92.6944L16.7617 76.4941C17.5103 75.7455 18.7196 75.7455 19.4682 76.4941C20.2168 77.2427 20.2168 78.4519 19.4682 79.2005L3.26789 95.4008C2.90319 95.7655 2.42333 95.9574 1.92426 95.9574Z" fill="#0BACF0"/>
<path d="M47.9895 92.1187C23.6507 92.1187 3.8418 72.3098 3.8418 47.971C3.8418 23.6321 23.6507 3.82324 47.9895 3.82324C72.3283 3.82324 92.1372 23.6321 92.1372 47.971C92.1372 72.3098 72.3283 92.1187 47.9895 92.1187ZM47.9895 7.66217C25.7621 7.66217 7.68073 25.7435 7.68073 47.971C7.68073 70.1984 25.7621 88.2798 47.9895 88.2798C70.2169 88.2798 88.2983 70.1984 88.2983 47.971C88.2983 25.7435 70.2169 7.66217 47.9895 7.66217Z" fill="#0BACF0"/>
<path d="M90.0463 53.7301H65.266C61.024 53.7301 57.5882 50.2943 57.5882 46.0523C57.5882 43.9984 58.3943 42.079 59.8339 40.6202C61.2927 39.1806 63.2122 38.3744 65.266 38.3744H69.1049C70.1223 38.3744 71.082 37.9713 71.8114 37.2419C72.5408 36.5125 72.9439 35.5528 72.9439 34.5355C72.9439 32.4241 71.2164 30.6965 69.1049 30.6965H49.9103C45.6683 30.6965 42.2324 27.2607 42.2324 23.0187C42.2324 20.9648 43.0386 19.0454 44.4782 17.5866C45.937 16.147 47.8565 15.3408 49.9103 15.3408H55.6687C56.686 15.3408 57.6457 14.9377 58.3751 14.2083C59.1045 13.4789 59.5076 12.5192 59.5076 11.5019C59.5076 10.4462 59.1045 9.48644 58.3751 8.77623C57.7417 8.162 57.6073 7.20227 58.0488 6.43448C58.4903 5.6667 59.3925 5.302 60.237 5.55153C79.0094 10.9452 92.1385 28.3932 92.1385 47.9717C92.1385 49.3346 92.081 50.6398 91.9658 51.9834C91.8698 52.9815 91.0444 53.7301 90.0463 53.7301ZM65.266 42.2133C64.2487 42.2133 63.289 42.6164 62.5596 43.3458C61.8302 44.0752 61.4271 45.035 61.4271 46.0523C61.4271 48.1637 63.1546 49.8912 65.266 49.8912H88.2612C88.2996 49.2578 88.2996 48.6244 88.2996 47.9717C88.2996 31.5795 78.2224 16.8188 63.3082 10.6765C63.3274 10.9452 63.3465 11.2332 63.3465 11.5019C63.3465 13.5557 62.5404 15.4752 61.1008 16.934C59.642 18.3736 57.7225 19.1797 55.6687 19.1797H49.9103C48.893 19.1797 47.9332 19.5828 47.2038 20.3122C46.4744 21.0416 46.0714 22.0014 46.0714 23.0187C46.0714 25.1301 47.7989 26.8576 49.9103 26.8576H69.1049C73.347 26.8576 76.7828 30.2934 76.7828 34.5355C76.7828 36.5893 75.9766 38.5088 74.537 39.9676C73.0782 41.4072 71.1588 42.2133 69.1049 42.2133H65.266Z" fill="#0BACF0"/>
<path d="M90.0463 53.7295H65.266C61.024 53.7295 57.5882 50.2936 57.5882 46.0516C57.5882 43.9978 58.3943 42.0783 59.8339 40.6195C61.2927 39.1799 63.2122 38.3737 65.266 38.3737H69.1049C70.1223 38.3737 71.082 37.9706 71.8114 37.2412C72.5408 36.5119 72.9439 35.5521 72.9439 34.5348C72.9439 32.4234 71.2164 30.6959 69.1049 30.6959H49.9103C45.6683 30.6959 42.2324 27.26 42.2324 23.018C42.2324 20.9642 43.0386 19.0447 44.4782 17.5859C45.937 16.1463 47.8565 15.3401 49.9103 15.3401H55.6687C56.686 15.3401 57.6457 14.9371 58.3751 14.2077C59.1045 13.4783 59.5076 12.5185 59.5076 11.5012C59.5076 10.4455 59.1045 9.48577 58.3751 8.77557C57.6073 8.04617 57.5882 6.81771 58.3175 6.06912C59.0469 5.30133 60.2754 5.28214 61.024 6.01154C62.5212 7.45114 63.3465 9.40899 63.3465 11.5012C63.3465 13.555 62.5404 15.4745 61.1008 16.9333C59.642 18.3729 57.7225 19.1791 55.6687 19.1791H49.9103C48.893 19.1791 47.9332 19.5822 47.2038 20.3116C46.4744 21.041 46.0714 22.0007 46.0714 23.018C46.0714 25.1294 47.7989 26.8569 49.9103 26.8569H69.1049C73.347 26.8569 76.7828 30.2928 76.7828 34.5348C76.7828 36.5886 75.9766 38.5081 74.537 39.9669C73.0782 41.4065 71.1588 42.2127 69.1049 42.2127H65.266C64.2487 42.2127 63.289 42.6158 62.5596 43.3451C61.8302 44.0745 61.4271 45.0343 61.4271 46.0516C61.4271 48.163 63.1546 49.8905 65.266 49.8905H90.0463C91.102 49.8905 91.9658 50.7543 91.9658 51.81C91.9658 52.8657 91.102 53.7295 90.0463 53.7295Z" fill="#0BACF0"/>
<path d="M35.0322 90.0853C34.3412 90.0853 33.6886 89.7206 33.3431 89.0872C32.8632 88.2235 32.6329 87.3021 32.6329 86.3616C32.6329 84.8068 33.2471 83.348 34.3412 82.2731C35.3777 81.2174 36.8365 80.6032 38.3913 80.6032H44.1497C44.668 80.6032 45.1286 80.4112 45.4741 80.0465C45.8772 79.6626 46.0692 79.202 46.0692 78.6837C46.0692 77.628 45.2054 76.7643 44.1497 76.7643H38.3913C35.2242 76.7643 32.6329 74.173 32.6329 71.0059C32.6329 69.4511 33.2471 67.9923 34.3412 66.9174C35.3777 65.8617 36.8365 65.2475 38.3913 65.2475H44.1497C44.668 65.2475 45.1286 65.0555 45.4741 64.6908C45.8772 64.3069 46.0692 63.8462 46.0692 63.328C46.0692 62.2723 45.2054 61.4085 44.1497 61.4085H28.794C25.6269 61.4085 23.0356 58.8172 23.0356 55.6501C23.0356 54.0954 23.6498 52.6366 24.7439 51.5617C25.7804 50.506 27.2392 49.8917 28.794 49.8917H30.7134C31.2317 49.8917 31.6924 49.6998 32.0379 49.3351C32.441 48.9512 32.6329 48.4905 32.6329 47.9723C32.6329 46.9166 31.7691 46.0528 30.7134 46.0528H5.93314C4.87743 46.0528 4.01367 45.189 4.01367 44.1333C4.01367 43.0776 4.87743 42.2139 5.93314 42.2139H30.7134C33.8806 42.2139 36.4718 44.8051 36.4718 47.9723C36.4718 49.527 35.8576 50.9858 34.7635 52.0607C33.727 53.1164 32.2682 53.7307 30.7134 53.7307H28.794C28.2757 53.7307 27.8151 53.9226 27.4695 54.2873C27.0665 54.6712 26.8745 55.1319 26.8745 55.6501C26.8745 56.7058 27.7383 57.5696 28.794 57.5696H44.1497C47.3168 57.5696 49.9081 60.1609 49.9081 63.328C49.9081 64.8828 49.2939 66.3416 48.1998 67.4165C47.1633 68.4722 45.7045 69.0864 44.1497 69.0864H38.3913C37.8731 69.0864 37.4124 69.2783 37.0669 69.643C36.6638 70.0269 36.4718 70.4876 36.4718 71.0059C36.4718 72.0616 37.3356 72.9253 38.3913 72.9253H44.1497C47.3168 72.9253 49.9081 75.5166 49.9081 78.6837C49.9081 80.2385 49.2939 81.6973 48.1998 82.7722C47.1633 83.8279 45.7045 84.4421 44.1497 84.4421H38.3913C37.8731 84.4421 37.4124 84.6341 37.0669 84.9988C36.6638 85.3827 36.4718 85.8433 36.4718 86.3616C36.4718 86.6495 36.5486 86.9566 36.7214 87.2445C37.2204 88.1851 36.8749 89.3368 35.9536 89.855C35.6465 90.0086 35.3394 90.0853 35.0322 90.0853Z" fill="#0BACF0"/>
<path d="M80.6188 118.992H15.357C14.3013 118.992 13.4375 118.129 13.4375 117.073C13.4375 109.664 19.4646 103.637 26.8738 103.637H69.102C76.5112 103.637 82.5383 109.664 82.5383 117.073C82.5383 118.129 81.6745 118.992 80.6188 118.992ZM17.4684 115.154H78.5074C77.6244 110.777 73.7471 107.476 69.102 107.476H26.8738C22.2478 107.476 18.3513 110.777 17.4684 115.154Z" fill="#0BACF0"/>
<path d="M47.9878 107.476C46.9321 107.476 46.0684 106.612 46.0684 105.556V97.8785C46.0684 96.8227 46.9321 95.959 47.9878 95.959C49.0435 95.959 49.9073 96.8227 49.9073 97.8785V105.556C49.9073 106.612 49.0435 107.476 47.9878 107.476Z" fill="#0BACF0"/>
</svg>
