<svg width="117" height="119" viewBox="0 0 117 119" fill="none" xmlns="http://www.w3.org/2000/svg">
<path d="M104.92 82.4833C101.443 81.6252 97.9712 81.064 94.5138 80.7971C99.5565 78.4543 103.164 72.3283 103.164 65.1597C103.164 56.7863 98.1093 51.5851 89.9711 51.5851C88.3647 51.5851 86.882 51.7905 85.5309 52.1803V42.8311C85.5309 37.1407 81.1276 32.7911 73.4498 30.8982C69.9727 30.0401 66.5008 29.4789 63.0434 29.212C68.0861 26.8692 71.6935 20.7431 71.6935 13.5745C71.6935 5.20116 66.6389 0 58.5007 0C50.3624 0 45.3078 5.20116 45.3078 13.5732C45.3078 20.7288 48.9007 26.8443 53.929 29.1963C50.4334 29.4566 46.9655 30.0244 43.5357 30.9008C35.7553 32.8892 31.4704 37.1263 31.4704 42.8297V52.179C30.1193 51.7892 28.6366 51.5838 27.0303 51.5838C18.8933 51.5838 13.8374 56.785 13.8374 65.1584C13.8374 72.3139 17.4303 78.4294 22.4586 80.7814C18.963 81.0418 15.4951 81.6095 12.0653 82.4859C4.2849 84.4743 0 88.7114 0 94.4149V117.141C0 118.168 0.83672 119 1.86946 119H52.1897C53.2225 119 54.0592 118.168 54.0592 117.141V94.4162C54.0592 88.7258 49.6559 84.3762 41.9781 82.4833C38.5009 81.6252 35.0291 81.064 31.5717 80.7971C36.1566 78.6675 39.5521 73.4088 40.131 67.0813H76.869C77.4466 73.3944 80.829 78.6439 85.3994 80.7814C81.9038 81.0418 78.4359 81.6095 75.0061 82.4859C67.2257 84.4743 62.9408 88.7114 62.9408 94.4149V117.141C62.9408 118.168 63.7775 119 64.8103 119H115.131C116.163 119 117 118.168 117 117.141V94.4162C117.001 88.7271 112.598 84.3775 104.92 82.4833ZM49.0481 13.5732C49.0481 4.99839 54.9696 3.71773 58.5007 3.71773C62.0304 3.71773 67.9532 4.99839 67.9532 13.5732C67.9532 20.7065 63.713 26.5107 58.5007 26.5107C53.2883 26.5107 49.0481 20.7078 49.0481 13.5732ZM50.3203 94.4162V115.284H42.6267V99.6409C42.6267 98.614 41.7899 97.782 40.7572 97.782C39.7245 97.782 38.8877 98.614 38.8877 99.6409V115.284H15.1728V99.6409C15.1728 98.614 14.3361 97.782 13.3033 97.782C12.2706 97.782 11.4339 98.614 11.4339 99.6409V115.284H3.74024V94.4162C3.74024 89.4884 8.77372 87.1678 12.9968 86.0886C22.1415 83.7496 31.5888 83.7509 41.0795 86.0925C44.5303 86.9441 50.3203 89.1574 50.3203 94.4162ZM27.0303 78.0958C21.8179 78.0958 17.5777 72.2916 17.5777 65.1584C17.5777 56.5822 23.4992 55.3028 27.0303 55.3028C30.56 55.3028 36.4828 56.5835 36.4828 65.1584C36.4828 72.2929 32.2413 78.0958 27.0303 78.0958ZM76.8638 63.3636H74.0984V48.0558C74.0984 47.0289 73.2617 46.1969 72.2289 46.1969C71.1962 46.1969 70.3594 47.0289 70.3594 48.0558V63.3636H46.6432V48.0558C46.6432 47.0289 45.8065 46.1969 44.7737 46.1969C43.741 46.1969 42.9043 47.0289 42.9043 48.0558V63.3636H40.1389C39.7534 59.2194 38.0168 55.9896 35.212 53.9698V42.8311C35.212 37.9046 40.2454 35.5827 44.4685 34.5034C53.6132 32.1645 63.0605 32.1658 72.5512 34.5074C76.002 35.359 81.792 37.5723 81.792 42.8311V53.9698C78.9858 55.9896 77.2492 59.2194 76.8638 63.3636ZM80.5185 65.1597C80.5185 56.5835 86.44 55.3041 89.9711 55.3041C93.5008 55.3041 99.4236 56.5848 99.4236 65.1597C99.4236 72.2929 95.1834 78.0971 89.9711 78.0971C84.76 78.0958 80.5185 72.2929 80.5185 65.1597ZM113.261 115.284H105.567V99.6409C105.567 98.614 104.731 97.782 103.698 97.782C102.665 97.782 101.829 98.614 101.829 99.6409V115.284H78.1136V99.6409C78.1136 98.614 77.2769 97.782 76.2441 97.782C75.2114 97.782 74.3746 98.614 74.3746 99.6409V115.284H66.6824V94.4162C66.6824 89.4884 71.7158 87.1678 75.9389 86.0886C85.0836 83.7496 94.5309 83.7509 104.022 86.0925C107.472 86.9441 113.262 89.1574 113.262 94.4162V115.284H113.261Z" fill="#0BACF0"/>
</svg>
