<svg width="71" height="94" viewBox="0 0 71 94" fill="none" xmlns="http://www.w3.org/2000/svg">
<path d="M62.6667 94H7.83333C3.5141 94 0 90.4869 0 86.1667V7.83333C0 3.51314 3.5141 0 7.83333 0H62.6667C66.9859 0 70.5 3.51314 70.5 7.83333V86.1667C70.5 90.4869 66.9859 94 62.6667 94ZM7.83333 3.91667C5.67324 3.91667 3.91667 5.67419 3.91667 7.83333V86.1667C3.91667 88.3258 5.67324 90.0833 7.83333 90.0833H62.6667C64.8268 90.0833 66.5833 88.3258 66.5833 86.1667V7.83333C66.5833 5.67419 64.8268 3.91667 62.6667 3.91667H7.83333Z" fill="#0BACF0"/>
<path d="M56.7917 31.3337H13.7084C11.5483 31.3337 9.79175 29.5761 9.79175 27.417V13.7087C9.79175 11.5495 11.5483 9.79199 13.7084 9.79199H56.7917C58.9518 9.79199 60.7084 11.5495 60.7084 13.7087V27.417C60.7084 29.5761 58.9518 31.3337 56.7917 31.3337ZM13.7084 13.7087V27.417H56.7937L56.7917 13.7087H13.7084Z" fill="#0BACF0"/>
<path d="M17.6243 48.958C14.3846 48.958 11.7493 46.3227 11.7493 43.083C11.7493 39.8433 14.3846 37.208 17.6243 37.208C20.8639 37.208 23.4993 39.8433 23.4993 43.083C23.4993 46.3227 20.8639 48.958 17.6243 48.958ZM17.6243 41.1247C16.5447 41.1247 15.6659 42.0025 15.6659 43.083C15.6659 44.1635 16.5447 45.0413 17.6243 45.0413C18.7038 45.0413 19.5826 44.1635 19.5826 43.083C19.5826 42.0025 18.7038 41.1247 17.6243 41.1247Z" fill="#0BACF0"/>
<path d="M52.8743 48.958C49.6346 48.958 46.9993 46.3227 46.9993 43.083C46.9993 39.8433 49.6346 37.208 52.8743 37.208C56.1139 37.208 58.7493 39.8433 58.7493 43.083C58.7493 46.3227 56.1139 48.958 52.8743 48.958ZM52.8743 41.1247C51.7947 41.1247 50.9159 42.0025 50.9159 43.083C50.9159 44.1635 51.7947 45.0413 52.8743 45.0413C53.9538 45.0413 54.8326 44.1635 54.8326 43.083C54.8326 42.0025 53.9538 41.1247 52.8743 41.1247Z" fill="#0BACF0"/>
<path d="M35.25 48.958C32.0103 48.958 29.375 46.3227 29.375 43.083C29.375 39.8433 32.0103 37.208 35.25 37.208C38.4897 37.208 41.125 39.8433 41.125 43.083C41.125 46.3227 38.4897 48.958 35.25 48.958ZM35.25 41.1247C34.1704 41.1247 33.2917 42.0025 33.2917 43.083C33.2917 44.1635 34.1704 45.0413 35.25 45.0413C36.3296 45.0413 37.2083 44.1635 37.2083 43.083C37.2083 42.0025 36.3296 41.1247 35.25 41.1247Z" fill="#0BACF0"/>
<path d="M17.6243 66.583C14.3846 66.583 11.7493 63.9477 11.7493 60.708C11.7493 57.4683 14.3846 54.833 17.6243 54.833C20.8639 54.833 23.4993 57.4683 23.4993 60.708C23.4993 63.9477 20.8639 66.583 17.6243 66.583ZM17.6243 58.7497C16.5447 58.7497 15.6659 59.6275 15.6659 60.708C15.6659 61.7885 16.5447 62.6663 17.6243 62.6663C18.7038 62.6663 19.5826 61.7885 19.5826 60.708C19.5826 59.6275 18.7038 58.7497 17.6243 58.7497Z" fill="#0BACF0"/>
<path d="M52.8743 66.583C49.6346 66.583 46.9993 63.9477 46.9993 60.708C46.9993 57.4683 49.6346 54.833 52.8743 54.833C56.1139 54.833 58.7493 57.4683 58.7493 60.708C58.7493 63.9477 56.1139 66.583 52.8743 66.583ZM52.8743 58.7497C51.7947 58.7497 50.9159 59.6275 50.9159 60.708C50.9159 61.7885 51.7947 62.6663 52.8743 62.6663C53.9538 62.6663 54.8326 61.7885 54.8326 60.708C54.8326 59.6275 53.9538 58.7497 52.8743 58.7497Z" fill="#0BACF0"/>
<path d="M35.25 66.583C32.0103 66.583 29.375 63.9477 29.375 60.708C29.375 57.4683 32.0103 54.833 35.25 54.833C38.4897 54.833 41.125 57.4683 41.125 60.708C41.125 63.9477 38.4897 66.583 35.25 66.583ZM35.25 58.7497C34.1704 58.7497 33.2917 59.6275 33.2917 60.708C33.2917 61.7885 34.1704 62.6663 35.25 62.6663C36.3296 62.6663 37.2083 61.7885 37.2083 60.708C37.2083 59.6275 36.3296 58.7497 35.25 58.7497Z" fill="#0BACF0"/>
<path d="M17.6243 84.208C14.3846 84.208 11.7493 81.5727 11.7493 78.333C11.7493 75.0933 14.3846 72.458 17.6243 72.458C20.8639 72.458 23.4993 75.0933 23.4993 78.333C23.4993 81.5727 20.8639 84.208 17.6243 84.208ZM17.6243 76.3747C16.5447 76.3747 15.6659 77.2525 15.6659 78.333C15.6659 79.4135 16.5447 80.2913 17.6243 80.2913C18.7038 80.2913 19.5826 79.4135 19.5826 78.333C19.5826 77.2525 18.7038 76.3747 17.6243 76.3747Z" fill="#0BACF0"/>
<path d="M52.8743 84.208C49.6346 84.208 46.9993 81.5727 46.9993 78.333C46.9993 75.0933 49.6346 72.458 52.8743 72.458C56.1139 72.458 58.7493 75.0933 58.7493 78.333C58.7493 81.5727 56.1139 84.208 52.8743 84.208ZM52.8743 76.3747C51.7947 76.3747 50.9159 77.2525 50.9159 78.333C50.9159 79.4135 51.7947 80.2913 52.8743 80.2913C53.9538 80.2913 54.8326 79.4135 54.8326 78.333C54.8326 77.2525 53.9538 76.3747 52.8743 76.3747Z" fill="#0BACF0"/>
<path d="M35.25 84.208C32.0103 84.208 29.375 81.5727 29.375 78.333C29.375 75.0933 32.0103 72.458 35.25 72.458C38.4897 72.458 41.125 75.0933 41.125 78.333C41.125 81.5727 38.4897 84.208 35.25 84.208ZM35.25 76.3747C34.1704 76.3747 33.2917 77.2525 33.2917 78.333C33.2917 79.4135 34.1704 80.2913 35.25 80.2913C36.3296 80.2913 37.2083 79.4135 37.2083 78.333C37.2083 77.2525 36.3296 76.3747 35.25 76.3747Z" fill="#0BACF0"/>
</svg>
