<svg width="110" height="93" viewBox="0 0 110 93" fill="none" xmlns="http://www.w3.org/2000/svg">
<path fill-rule="evenodd" clip-rule="evenodd" d="M62.0966 0.051919C62.83 -0.112289 63.3801 0.113191 63.7468 0.725909C64.0732 1.25652 64.1135 1.7467 63.869 2.19643V2.37902C62.5647 9.85541 61.934 15.1444 61.9743 18.2484C62.0562 20.9039 61.934 22.823 61.6076 24.008C60.4671 28.2565 57.9808 31.7478 54.1511 34.4854C50.973 36.7317 47.51 38.0392 43.761 38.4068C43.1498 38.5294 42.0704 38.4473 40.5217 38.1617H39.9105C39.5034 38.1617 39.1367 37.9988 38.8104 37.6716C38.484 37.386 38.3214 37.0172 38.3214 36.5687C38.3214 36.1606 38.484 35.7918 38.8104 35.4658C39.1367 35.1803 39.5022 35.0369 39.9105 35.0369C40.3591 35.0369 40.7258 35.0577 41.0106 35.0982L43.3331 35.3432C46.6335 34.9756 49.6284 33.8323 52.3176 31.912C55.5361 29.6646 57.6141 26.7248 58.5517 23.0889C58.7962 22.2311 58.8976 20.638 58.8573 18.3097C58.8169 15.4103 59.3462 10.4877 60.4464 3.54319L51.0341 4.46226C44.5152 5.19752 39.3201 7.7305 35.4488 12.06C33.1667 14.6334 31.7206 17.3085 31.1094 20.0866V20.1478C30.8649 21.2924 30.783 22.5583 30.8649 23.9479L30.926 24.1305L30.8649 24.3756L30.926 24.5594V24.8658C31.0079 25.4785 31.1705 26.0912 31.415 26.7039V26.7652C31.7414 27.7455 32.2303 28.8889 32.8818 30.1964L33.4319 31.1768C36.1211 25.6219 40.2772 20.4542 45.9001 15.6762C46.2265 15.4311 46.6128 15.3282 47.0614 15.3699C47.51 15.4103 47.8767 15.5733 48.1615 15.8588C48.406 16.186 48.5074 16.5732 48.4671 17.023C48.4268 17.4727 48.263 17.8403 47.9782 18.1259C41.7441 23.3548 37.445 29.0727 35.0821 35.282C33.4111 39.2438 32.6166 43.6149 32.6985 48.3941V48.7005L32.8207 48.7618C38.6881 50.6808 43.8624 51.8658 48.3449 52.3143C48.1407 51.6207 48.0393 50.6808 48.0393 49.4958C48.0393 45.9004 49.5465 43.6542 52.5621 42.7559C53.2955 42.4704 54.2734 42.2866 55.4958 42.2045C57.1252 42.0415 58.7558 41.9594 60.3852 41.9594C70.5309 41.9594 80.6974 43.7154 90.8835 47.2288C100.378 50.5779 106.673 54.8461 109.769 60.0346C109.973 60.4022 110.034 60.7906 109.952 61.1987C109.83 61.6485 109.586 61.9756 109.219 62.1791C108.812 62.3837 108.404 62.4438 107.997 62.3629C107.59 62.2403 107.284 61.9953 107.08 61.6276C104.35 57.0531 98.5844 53.2322 89.7833 50.1686C80.0043 46.8195 70.2046 45.1443 60.3852 45.1443C58.5113 45.1443 56.9626 45.2056 55.7402 45.3281C54.5985 45.4506 53.8859 45.5732 53.6011 45.6957C51.9717 46.1847 51.1563 47.4518 51.1563 49.4946C51.1563 51.0055 51.4827 52.2114 52.1342 53.1096C52.7454 53.9674 53.54 54.6414 54.5179 55.1316C55.0875 55.4588 55.618 55.7026 56.1069 55.8668C58.1031 56.5604 60.752 57.0518 64.0524 57.3374C66.2123 57.4599 68.6155 58.0726 71.2644 59.1755L72.9146 59.9108C75.6038 61.1767 78.5167 62.9131 81.6546 65.1189C82.0213 65.364 82.245 65.6912 82.3269 66.0992C82.4075 66.549 82.3061 66.957 82.0213 67.3247C81.7768 67.6519 81.4504 67.8565 81.0434 67.9374C80.5948 68.0195 80.2085 67.9374 79.8821 67.6923C76.9069 65.6091 74.1369 63.9547 71.57 62.7293L70.2254 62.1166C67.7806 61.1362 65.6207 60.5639 63.7468 60.4022C60.3241 60.1571 57.4308 59.6461 55.0679 58.8704L53.051 57.89C51.9105 57.3178 50.9326 56.5421 50.1173 55.5617C44.9833 55.3166 38.9118 54.0299 31.9039 51.7016C24.0392 49.2103 18.3967 47.964 14.9741 47.964C12.2849 47.964 9.67753 48.8022 7.15088 50.4762L5.92851 51.4565C7.96621 51.171 10.1653 51.0276 12.5293 51.0276C18.03 51.0276 25.5268 52.764 35.021 56.2357C42.3149 58.8496 49.0172 60.4843 55.129 61.1374C55.5777 61.1779 55.9444 61.3825 56.2292 61.7502C56.514 62.0774 56.6155 62.4438 56.5348 62.8531C56.4944 63.2611 56.3099 63.6079 55.9847 63.8947C55.6583 64.2219 55.2721 64.3444 54.8234 64.2623C48.4268 63.5687 41.4788 61.8727 33.982 59.178C24.7738 55.8289 17.623 54.1525 12.5293 54.1525C9.84011 54.1525 7.1301 54.3976 4.40054 54.889L3.48376 55.0715L3.42265 55.2554V55.3779C3.21851 56.1144 3.11705 56.7675 3.11705 57.3398C3.11705 59.6265 5.66326 62.2624 10.7569 65.2439C18.0105 69.4104 30.03 73.904 46.8169 78.7237L55.9847 81.1745C62.83 82.971 70.938 84.83 80.3099 86.7503C90.8224 88.8335 97.7899 89.8751 101.213 89.8751C103.535 89.8751 104.941 89.8347 105.43 89.7526C106.49 89.5896 107.304 89.4046 107.874 89.2011C108.282 89.0369 108.69 89.0578 109.097 89.2624C109.464 89.4254 109.729 89.7109 109.891 90.1202C110.054 90.5283 110.034 90.9155 109.83 91.2844C109.668 91.6925 109.362 91.9792 108.913 92.1422C107.813 92.5503 106.774 92.7757 105.796 92.8162C105.063 92.9387 103.535 93 101.213 93C97.6273 93 90.4764 91.9375 79.7599 89.8139C71.5296 88.1387 63.3189 86.2797 55.129 84.2381C51.869 83.2578 48.8338 82.4404 46.0224 81.7873C27.7271 76.5583 14.913 71.5953 7.57872 66.8982C2.52665 63.7525 0 60.5664 0 57.3398C0 56.3999 0.122237 55.5017 0.366712 54.6439C0.529287 53.9907 0.693086 53.4589 0.855661 53.0508C1.71132 51.171 3.19895 49.4762 5.31732 47.9652C8.37326 45.8416 11.5918 44.7791 14.9741 44.7791C18.1926 44.7791 23.0625 45.7386 29.5814 47.6589C29.5814 43.0843 30.3552 38.8149 31.9039 34.8531L29.0314 29.2773C22.8376 31.401 17.7244 31.238 13.6906 28.7872C8.51628 25.601 5.43956 18.6773 4.46166 8.01603C4.42132 7.60673 4.52278 7.2391 4.76726 6.91313C5.01173 6.5455 5.3381 6.34086 5.74516 6.30042C16.5839 4.95244 24.4279 8.13857 29.2758 15.8588C30.1315 13.8981 31.415 11.9583 33.1263 10.038C37.5269 5.09581 43.3943 2.21604 50.7285 1.39867L58.4906 0.724684C59.3462 0.603366 60.549 0.37911 62.0966 0.051919ZM18.5801 15.1248C18.9468 14.9606 19.3343 14.9814 19.7413 15.1861C22.9195 16.534 25.6295 18.3305 27.8701 20.578L27.9312 20.0265C24.1822 11.9791 17.4396 8.38488 7.70095 9.24269C8.76075 17.9837 11.307 23.6207 15.3408 26.1537C18.4786 28.0727 22.6958 28.1144 27.9924 26.2762L27.809 25.1746L27.7479 25.1133C25.4657 22.1318 22.3694 19.7618 18.4578 18.0058C18.0911 17.8428 17.8051 17.5573 17.6022 17.148C17.4799 16.7399 17.5007 16.3306 17.6633 15.9225C17.8674 15.5537 18.173 15.2878 18.5801 15.1248Z" fill="#0BACF0"/>
</svg>
