<svg width="36" height="62" viewBox="0 0 36 62" fill="none" xmlns="http://www.w3.org/2000/svg">
<path d="M35.9589 5.29965C36.1061 4.32005 35.8557 3.34044 35.243 2.5486C34.6304 1.74968 33.7382 1.23065 32.7262 1.09336C30.8149 0.834734 29.0068 2.00831 28.5123 3.82316L23.6495 21.7856C23.5534 22.1381 23.229 22.3905 22.8526 22.4047C22.4471 22.4118 22.1077 22.1602 22.0036 21.7927L16.6613 2.68589C16.396 1.73551 15.7612 0.942791 14.8823 0.460959C13.9972 -0.0146736 12.9781 -0.129818 12.0119 0.150956C10.1597 0.676189 9.03045 2.47775 9.39983 4.32802L13.5688 25.5021V25.5083L13.5767 25.5154L13.6137 25.7173C13.6217 25.7244 13.6217 25.7386 13.6217 25.7527L13.2408 25.7421L12.7366 24.7953L12.7286 24.7882V24.7811L12.4404 24.2337C11.9828 23.3763 11.2159 22.7501 10.2708 22.4614C9.32577 22.1735 8.32255 22.2674 7.45156 22.72L5.96876 23.4906C5.07573 23.9591 4.4119 24.7793 4.14655 25.7377C3.98434 26.3355 3.9914 26.9617 4.14655 27.5525C3.8812 27.6384 3.6229 27.7615 3.39369 27.9272L1.51859 29.2664C-0.105259 30.4258 -0.488743 32.6729 0.66964 34.2787L1.70284 35.7189C1.6808 40.2414 2.24853 51.0233 7.65785 58.7007C9.11244 60.768 11.5473 62 14.1815 62H23.7818C26.6962 62 29.4494 60.6962 31.1385 58.5138C32.1646 57.1959 32.9977 55.6476 33.6183 53.9187C35.1531 49.6336 35.5366 45.2404 34.7397 41.2068C34.596 40.4929 34.0926 39.6231 33.3521 38.632C33.3195 38.4956 33.286 38.3433 33.2489 38.167L33.241 38.1599C32.8205 36.136 32.2078 31.4692 33.2331 24.1301C34.2619 16.7511 35.3832 9.1676 35.9589 5.29965ZM6.28701 26.2939C6.3972 25.9051 6.64845 25.5889 7.01077 25.4011L8.49357 24.6305C8.7078 24.5154 8.94317 24.4649 9.18032 24.4649C9.32049 24.4649 9.46859 24.4791 9.61581 24.5225C9.99224 24.6376 10.2946 24.89 10.4789 25.2284L12.4122 28.8652C12.1177 29.1672 11.8735 29.5427 11.7043 29.967C11.4239 30.6871 10.9964 32.5958 13.0769 34.7924C14.3833 36.1679 15.5267 37.1041 16.8844 37.7888C16.8844 37.9544 16.8553 38.1201 16.7962 38.2786C16.634 38.725 16.3016 39.0704 15.8661 39.2653C15.0842 39.5966 14.1612 39.3229 13.7045 38.617L12.9146 37.4C12.9146 37.4 12.9146 37.3929 12.9067 37.3858C12.8106 37.1192 12.6775 36.8606 12.5162 36.6152L7.29905 28.642C7.22499 28.5268 7.14389 28.4258 7.05573 28.3249L6.46508 27.4179C6.24998 27.0787 6.18386 26.6757 6.28701 26.2939ZM2.82596 31.0113L4.70018 29.6721C4.81037 29.6003 4.9144 29.5782 5.00256 29.5782C5.03958 29.5782 5.06868 29.5782 5.09865 29.5852C5.14978 29.5923 5.23177 29.6207 5.31287 29.6862L10.8914 38.3069C11.0907 39.0492 10.8253 39.8561 10.1677 40.3308C9.74012 40.6408 9.21558 40.7631 8.69193 40.6763C8.16828 40.5974 7.71074 40.3158 7.40748 39.8906L3.93145 35.0581L2.95026 33.6968L2.47774 33.0342C2.01403 32.3868 2.16919 31.4798 2.82596 31.0113ZM31.5316 53.2083C30.9859 54.7202 30.2622 56.0745 29.3771 57.2127C28.1006 58.8619 26.0121 59.8415 23.7835 59.8415H14.1832C12.279 59.8415 10.5229 58.9558 9.4827 57.4793C5.47596 51.7894 4.31758 44.0119 4.02225 38.9411L5.60114 41.1377C6.25086 42.0385 7.22499 42.6355 8.3393 42.8082C8.56851 42.8436 8.78978 42.8658 9.01811 42.8658C9.9032 42.8658 10.7601 42.5921 11.4821 42.0668C12.0057 41.6922 12.4122 41.2165 12.6846 40.6913C13.3854 41.2599 14.2714 41.5629 15.1785 41.5629C15.7101 41.5629 16.2479 41.4548 16.7574 41.2387C17.7386 40.8215 18.5064 40.0066 18.8679 39.0279C19.1703 39.8056 19.5388 40.6337 19.9743 41.4761C17.8276 43.763 15.3222 48.0667 18.1565 54.2304C18.4183 54.7991 19.1235 55.0382 19.6886 54.7468C20.2026 54.482 20.415 53.8708 20.1779 53.3527C18.0445 48.6982 19.5158 45.3945 21.1044 43.4574C22.0486 42.298 23.0377 41.6355 23.3189 41.4557C23.348 41.4344 23.3701 41.4203 23.3851 41.4123L22.5661 40.0872L22.5581 40.0731C22.2998 39.5762 22.0786 39.0793 21.8793 38.6037C21.636 38.0279 21.4297 37.4655 21.2517 36.9545C20.2996 36.7525 19.5026 36.5373 18.8018 36.2627C18.4544 36.1334 18.1309 35.989 17.8206 35.8305C16.7803 35.2831 15.8873 34.5559 14.8691 33.4975C14.81 33.4399 14.7589 33.3823 14.6989 33.3248C14.0342 32.6259 13.6807 31.8917 13.6807 31.2646C13.6807 31.0768 13.7098 30.9041 13.7768 30.7393C13.9099 30.3939 14.1823 30.1557 14.4636 30.1273C14.6928 30.1061 15.0974 30.1486 15.629 30.2354C17.2819 30.5091 20.0862 31.2221 22.0415 31.7845L22.2117 31.8199C22.2337 31.8199 24.5505 32.1441 25.9822 33.7216C26.3365 34.1104 26.8082 34.6073 27.3477 35.1688C28.1667 36.0333 29.3401 37.2432 30.3512 38.4097L30.3591 38.4168C30.5884 38.6754 30.7946 38.9208 31.0009 39.1732C31.827 40.174 32.4626 41.0819 32.5648 41.6213C33.2957 45.2785 32.9333 49.2828 31.5316 53.2083ZM31.0371 23.8378C30.3503 28.7854 30.3724 32.5808 30.6095 35.253C30.6148 35.3203 30.6219 35.3823 30.628 35.4487C30.3486 35.1485 30.0629 34.8438 29.7685 34.5329C29.5031 34.2521 29.2369 33.9713 28.9645 33.6906C28.4479 33.1503 27.9833 32.6676 27.636 32.2858C25.8208 30.2841 23.1497 29.7721 22.596 29.6862C21.3786 29.3408 16.2646 27.9139 14.4274 27.9724L14.3675 27.859L14.4345 27.828C14.5376 27.7846 14.6337 27.7341 14.7298 27.6765C15.5488 27.1796 15.9772 26.2505 15.793 25.3072L11.5791 3.91704C11.423 3.16861 11.8806 2.43346 12.6334 2.21823C13.0319 2.11017 13.4454 2.15357 13.8068 2.34754C14.1612 2.54152 14.4195 2.86658 14.5306 3.25452L19.8738 22.3613C20.2423 23.6934 21.5047 24.5862 22.9064 24.565C24.264 24.5296 25.4444 23.6146 25.7917 22.3321L30.6545 4.37762C30.8608 3.61413 31.6286 3.13141 32.4185 3.23238C32.839 3.28995 33.2154 3.50607 33.4737 3.83733C33.725 4.16859 33.8352 4.57956 33.7691 4.98965C33.1916 8.8576 32.0703 16.4562 31.0371 23.8378Z" fill="#0BACF0"/>
</svg>
