<svg width="99" height="98" viewBox="0 0 99 98" fill="none" xmlns="http://www.w3.org/2000/svg">
<path d="M96.8672 0H52.1738C51.3814 0 50.7383 0.643125 50.7383 1.43555V46.1289C50.7383 46.9213 51.3814 47.5645 52.1738 47.5645H96.8672C97.6596 47.5645 98.3027 46.9213 98.3027 46.1289V1.43555C98.3027 0.643125 97.6596 0 96.8672 0ZM70.214 2.87109H78.8273V15.7173L75.1625 13.8849C74.7587 13.6825 74.2823 13.6825 73.8785 13.8849L70.214 15.7173V2.87109ZM95.4316 44.6934H53.6094V2.87109H67.3429V18.0402C67.3429 18.5376 67.5999 18.999 68.0235 19.2613C68.4464 19.5224 68.9747 19.5464 69.4203 19.3241L74.5204 16.7741L79.6207 19.3241C79.8231 19.4257 80.0433 19.4755 80.2626 19.4755C80.5249 19.4755 80.787 19.4037 81.0175 19.2613C81.4411 18.999 81.6984 18.5376 81.6984 18.0402V2.87109H95.4316V44.6934Z" fill="#0BACF0"/>
<path d="M46.1289 0H1.43555C0.643125 0 0 0.643125 0 1.43555V46.1289C0 46.9213 0.643125 47.5645 1.43555 47.5645H46.1289C46.9213 47.5645 47.5645 46.9213 47.5645 46.1289V1.43555C47.5645 0.643125 46.9213 0 46.1289 0ZM19.4755 2.87109H28.0887V15.7173L24.4242 13.8849C24.0205 13.6825 23.544 13.6825 23.1403 13.8849L19.4755 15.7173V2.87109ZM44.6934 44.6934H2.87109V2.87109H16.6041V18.0402C16.6041 18.5376 16.8616 18.999 17.2853 19.2613C17.7081 19.5224 18.2374 19.5464 18.682 19.3241L23.7824 16.7741L28.8824 19.3241C29.0848 19.4257 29.3051 19.4755 29.5245 19.4755C29.7866 19.4755 30.0487 19.4037 30.2792 19.2613C30.7028 18.999 30.9598 18.5376 30.9598 18.0402V2.87109H44.6934V44.6934Z" fill="#0BACF0"/>
<path d="M96.8672 50.4355H52.1738C51.3814 50.4355 50.7383 51.0787 50.7383 51.8711V96.5645C50.7383 97.3569 51.3814 98 52.1738 98H96.8672C97.6596 98 98.3027 97.3569 98.3027 96.5645V51.8711C98.3027 51.0787 97.6596 50.4355 96.8672 50.4355ZM70.214 53.3066H78.8273V66.1528L75.1625 64.3204C74.7587 64.118 74.2823 64.118 73.8785 64.3204L70.214 66.1528V53.3066ZM95.4316 95.1289H53.6094V53.3066H67.3429V68.4755C67.3429 68.9731 67.5999 69.4345 68.0235 69.6969C68.4464 69.958 68.9747 69.982 69.4203 69.7597L74.5204 67.2096L79.6207 69.7597C79.8231 69.8612 80.0433 69.9113 80.2626 69.9113C80.5249 69.9113 80.787 69.8393 81.0175 69.6969C81.4411 69.4345 81.6984 68.9731 81.6984 68.4755V53.3066H95.4316V95.1289Z" fill="#0BACF0"/>
<path d="M46.1289 50.4355H1.43555C0.643125 50.4355 0 51.0787 0 51.8711V96.5645C0 97.3569 0.643125 98 1.43555 98H46.1289C46.9213 98 47.5645 97.3569 47.5645 96.5645V51.8711C47.5645 51.0787 46.9213 50.4355 46.1289 50.4355ZM19.4757 53.3066H28.089V66.1528L24.4242 64.3204C24.0205 64.118 23.544 64.118 23.1403 64.3204L19.4757 66.1528V53.3066ZM44.6934 95.1289H2.87109V53.3066H16.6046V68.4755C16.6046 68.9731 16.8616 69.4345 17.2853 69.6969C17.7081 69.958 18.2364 69.982 18.682 69.7597L23.7821 67.2096L28.8824 69.7597C29.0848 69.8612 29.3051 69.9113 29.5243 69.9113C29.7866 69.9113 30.0487 69.8393 30.2792 69.6969C30.7028 69.4345 30.9601 68.9731 30.9601 68.4755V53.3066H44.6934V95.1289Z" fill="#0BACF0"/>
</svg>
