<svg width="114" height="101" viewBox="0 0 114 101" fill="none" xmlns="http://www.w3.org/2000/svg">
<path d="M112.528 69.0108L86.895 14.0389C86.2438 12.6252 85.0795 11.5513 83.6154 11.0163C82.1417 10.4793 80.549 10.5507 79.1325 11.2154L69.504 15.701C68.6579 10.2298 65.3995 5.33394 60.5201 2.5028C56.2389 0.0247528 51.2515 -0.641649 46.4743 0.631105C41.6935 1.9021 37.6961 4.95882 35.2217 9.23526C33.2664 12.6033 32.4781 16.3553 32.7659 20.0057C32.1908 20.1139 31.6156 20.2227 31.0444 20.3744C25.0048 21.9813 19.9526 25.8436 16.8177 31.2499C12.1815 39.2448 12.6631 49.0045 17.9629 56.4816L0.262737 87.0091C0.00381905 87.4566 -0.0675393 87.9887 0.0656241 88.4876L2.90066 99.1461C3.13287 100.019 3.92112 100.596 4.78366 100.596C4.94939 100.595 5.11784 100.574 5.28532 100.529L15.9439 97.6944C16.4436 97.562 16.8701 97.2354 17.13 96.7882L20.6362 90.7401C20.8951 90.2926 20.9664 89.7613 20.8333 89.2616L20.3326 87.3776L22.2175 86.876C22.7173 86.7426 23.1438 86.417 23.4028 85.9688L23.5702 85.6795C23.8292 85.233 23.9005 84.7007 23.7673 84.202L23.2667 82.317L25.1507 81.8163C25.6513 81.684 26.0779 81.3574 26.3368 80.9092L26.5043 80.6198C26.7632 80.1724 26.8346 79.6411 26.7014 79.1424L26.2007 77.2574L28.0847 76.7557C28.5844 76.6234 29.011 76.2968 29.2709 75.8495L34.8306 66.261C41.2336 66.8833 47.4283 64.8763 52.1592 60.8635L66.0455 90.6882C67.0404 92.8054 69.1613 94.0545 71.3708 94.0545C72.1924 94.0545 73.0273 93.8822 73.8194 93.5166L109.692 76.7901C111.118 76.1266 112.198 74.95 112.731 73.4791C113.264 72.0112 113.191 70.4222 112.528 69.0114V69.0108ZM38.5957 11.1904C40.5493 7.81374 43.7031 5.40218 47.4759 4.39887C51.2495 3.39556 55.1871 3.921 58.5647 5.87537C62.7525 8.30584 65.4257 12.661 65.7879 17.4319L51.0885 24.28C50.3552 23.7321 49.5973 23.211 48.7935 22.7448C45.0608 20.5803 40.8971 19.538 36.6895 19.6111C36.481 16.7544 37.0659 13.8256 38.5957 11.1904ZM34.088 62.2392C33.2997 62.1183 32.5078 62.4944 32.104 63.1883L26.3025 73.1946L23.3142 73.9895C22.2737 74.2666 21.6539 75.3338 21.9309 76.3742L22.4926 78.4877L20.3811 79.0494C19.3406 79.3254 18.7208 80.3937 18.9978 81.434L19.5595 83.5475L17.4461 84.1102C16.4065 84.3872 15.7867 85.4545 16.0638 86.4948L16.8577 89.4821L14.1616 94.1335L6.16775 96.2592L4.04103 88.2653L21.9842 57.3197C22.3868 56.6257 22.322 55.7557 21.8223 55.1273C16.7807 48.7955 16.1398 40.1906 20.1916 33.2049C22.8038 28.7001 27.0136 25.4814 32.0469 24.1429C32.5228 24.0164 33.002 23.9253 33.4813 23.8353C34.2465 26.395 35.5655 28.8099 37.4284 30.8886C37.0266 31.9996 36.963 33.2025 37.2732 34.3684C37.675 35.8783 38.6403 37.1417 39.992 37.9251C40.8955 38.4487 41.8988 38.7162 42.9156 38.7162C43.4202 38.7162 43.9284 38.6505 44.4293 38.5172C45.9392 38.1153 47.2016 37.1501 47.9859 35.7983C49.6024 33.008 48.6484 29.4229 45.8592 27.8044C43.9799 26.7161 41.753 26.8154 39.9967 27.8331C38.9033 26.513 38.0667 25.0507 37.5037 23.4943C40.7512 23.5639 43.9478 24.4424 46.8378 26.1184C51.3425 28.7305 54.5603 32.9403 55.8989 37.9736C57.2376 43.0069 56.5359 48.259 53.9235 52.7647C49.8728 59.7514 42.0817 63.4671 34.0878 62.239L34.088 62.2392ZM41.2394 31.8867C41.6003 31.2642 42.2562 30.9157 42.9292 30.9157C43.2605 30.9157 43.5966 31.0006 43.9041 31.1786C44.8333 31.7175 45.1511 32.913 44.6124 33.8432C44.0725 34.7724 42.877 35.0912 41.9478 34.5515C41.4974 34.2906 41.1757 33.8699 41.0415 33.3663C40.9082 32.8627 40.9778 32.3382 41.2396 31.8869L41.2394 31.8867ZM62.6536 29.8247C63.0145 29.2022 63.6704 28.8538 64.3434 28.8538C64.6756 28.8538 65.0108 28.9386 65.3182 29.1166C66.2484 29.6555 66.5662 30.851 66.0266 31.7812C65.4877 32.7104 64.2948 33.0282 63.3619 32.4895C62.4327 31.9506 62.1149 30.7551 62.6536 29.8249V29.8247ZM109.066 72.1485C108.888 72.6378 108.526 73.0309 108.047 73.2547L72.1803 89.9783C71.1998 90.4267 70.0326 90.0021 69.5775 89.0358L55.0795 57.8959C55.8913 56.9095 56.6396 55.8553 57.2978 54.7202C60.4327 49.3147 61.2744 43.0106 59.6682 36.9713C59.5127 36.3866 59.3181 35.8198 59.121 35.2544C59.4464 35.1019 59.7659 34.9424 60.082 34.7714C60.4661 35.1848 60.8938 35.5656 61.4066 35.8631C62.3272 36.3971 63.3354 36.6504 64.3301 36.6504C66.3492 36.6504 68.3161 35.6061 69.4005 33.7364C70.1841 32.3854 70.3944 30.8089 69.9926 29.2991C69.5908 27.7892 68.6255 26.5268 67.2738 25.7425C64.4844 24.1269 60.8983 25.078 59.2799 27.8692C58.679 28.9064 58.436 30.0534 58.5078 31.1686C58.1843 31.3552 57.8626 31.5414 57.5318 31.7001C56.6209 30.0409 55.5337 28.4927 54.2512 27.1074L80.7853 14.7468C81.2575 14.5232 81.7886 14.4992 82.277 14.6782C82.7578 14.8542 83.1395 15.2056 83.3565 15.6778L108.997 70.664C109.218 71.1342 109.242 71.6616 109.066 72.1481L109.066 72.1485Z" fill="#0BACF0"/>
<path d="M94.3674 48.5085C93.9133 47.5327 92.7509 47.111 91.7761 47.566L62.963 61.0015C62.4947 61.2195 62.1319 61.6155 61.9558 62.1021C61.7788 62.5876 61.8016 63.1235 62.0206 63.5928L71.4672 83.8512C71.7974 84.5605 72.5011 84.9764 73.2349 84.9764C73.511 84.9764 73.7918 84.9183 74.0575 84.7935L102.872 71.358C103.341 71.1401 103.704 70.7441 103.881 70.2574C104.057 69.772 104.034 69.236 103.815 68.7667L94.3674 48.5083V48.5085ZM74.1774 80.4356L66.3787 63.712L91.6569 51.9244L99.4566 68.648L74.1774 80.4356Z" fill="#0BACF0"/>
<path d="M76.405 71.3692C75.4292 71.8242 75.0075 72.9837 75.4625 73.9605C75.7928 74.6698 76.4964 75.0857 77.2303 75.0857C77.5064 75.0857 77.7871 75.0276 78.0538 74.9028L92.7307 68.0588C93.7065 67.6038 94.1282 66.4443 93.6731 65.4675C93.2181 64.4917 92.0557 64.07 91.0818 64.525L76.405 71.369V71.3692Z" fill="#0BACF0"/>
<path d="M90.3763 58.3994C89.9222 57.4236 88.7598 56.999 87.785 57.4569L73.1081 64.3009C72.1323 64.756 71.7106 65.9155 72.1656 66.8923C72.4959 67.6015 73.1996 68.0174 73.9334 68.0174C74.2095 68.0174 74.4902 67.9593 74.757 67.8345L89.4338 60.9906C90.4096 60.5355 90.8313 59.376 90.3763 58.3992V58.3994Z" fill="#0BACF0"/>
</svg>
