<svg width="57" height="67" viewBox="0 0 57 67" fill="none" xmlns="http://www.w3.org/2000/svg">
<path d="M29.7037 23.008C30.3834 22.6942 31.377 22.2236 30.9064 21.2824C30.6449 20.7595 30.0174 20.5503 29.4945 20.8118L28.8147 21.1778C28.5533 21.2824 28.2918 21.2824 28.0304 21.1778L27.3506 20.8118C26.8277 20.5503 26.2002 20.7595 25.9387 21.2824C25.6773 21.8053 25.8864 22.4328 26.4093 22.6942C27.4552 23.1649 28.5533 23.5832 29.7037 23.008Z" fill="#0BACF0"/>
<path d="M26.8278 16.2104C26.8278 15.6352 26.3572 15.1646 25.782 15.1646H23.6903C23.1151 15.1646 22.6445 15.6352 22.6445 16.2104C22.6445 16.7856 23.1151 17.2562 23.6903 17.2562H25.782C26.3572 17.2562 26.8278 16.7856 26.8278 16.2104Z" fill="#0BACF0"/>
<path d="M31.5341 17.2562H33.6257C34.2009 17.2562 34.6715 16.7856 34.6715 16.2104C34.6715 15.6352 34.2009 15.1646 33.6257 15.1646H31.5341C30.9589 15.1646 30.4883 15.6352 30.4883 16.2104C30.4883 16.7856 30.9589 17.2562 31.5341 17.2562Z" fill="#0BACF0"/>
<path d="M31.0118 35.0347H26.3056C25.7304 35.0347 25.2598 35.5053 25.2598 36.0805C25.2598 36.6557 25.7304 37.1263 26.3056 37.1263H31.0118C31.587 37.1263 32.0576 36.6557 32.0576 36.0805C32.0576 35.5053 31.587 35.0347 31.0118 35.0347Z" fill="#0BACF0"/>
<path d="M15.0634 50.7222C15.6386 50.7222 16.1092 50.2515 16.1092 49.6763V45.4931C16.1092 44.9179 15.6386 44.4473 15.0634 44.4473C14.4882 44.4473 14.0176 44.9179 14.0176 45.4931V49.6763C14.0176 50.2515 14.4882 50.7222 15.0634 50.7222Z" fill="#0BACF0"/>
<path d="M42.2528 44.4473C41.6776 44.4473 41.207 44.9179 41.207 45.4931V49.6763C41.207 50.2515 41.6776 50.7222 42.2528 50.7222C42.828 50.7222 43.2987 50.2515 43.2987 49.6763V45.4931C43.2987 44.9179 42.828 44.4473 42.2528 44.4473Z" fill="#0BACF0"/>
<path d="M55.8496 43.1924V35.4011C55.8496 34.8259 55.379 34.3553 54.8038 34.3553C54.7515 34.3553 54.6469 34.3553 54.5946 34.3553L51.6663 34.9828C51.5618 34.8782 38.7505 31.061 38.7505 31.061L35.9791 28.4987C35.6654 28.2373 35.247 28.1327 34.881 28.2896L34.5673 28.4464C33.9921 27.7144 33.626 26.7731 33.626 25.8319C33.626 25.8319 33.626 25.8319 33.626 25.7796C36.8158 23.9494 38.8028 20.5505 38.9074 16.8902C39.8486 16.1058 40.5284 15.0077 40.7899 13.805C41.2082 12.0794 41.3651 8.57592 37.6001 4.1835C31.1161 -3.2418 25.1549 1.15063 22.9064 2.77165C22.645 2.98081 22.4358 3.13768 22.2789 3.24226C21.9652 3.34684 21.6514 3.34684 21.3377 3.34684C19.3506 3.39913 17.1544 3.81746 16.2132 8.36676C14.8536 14.7462 17.3636 17.7791 18.0957 18.4589C18.6186 21.544 20.501 24.2109 23.2201 25.7796C23.2201 25.7796 23.2201 25.7796 23.2201 25.8319C23.1679 26.7731 22.8541 27.7144 22.2789 28.4464L21.9652 28.2896C21.5991 28.1327 21.1808 28.2373 20.8671 28.4987L18.0957 31.061C18.0957 31.061 5.38899 34.8259 5.3367 34.8782L2.82674 34.3553C2.25154 34.2507 1.72863 34.6167 1.57176 35.1396C1.57176 35.1919 1.57176 35.2965 1.57176 35.3488V42.8787C1.3626 42.931 1.20573 43.0356 1.04885 43.1924C0.369074 43.7153 0.00303793 44.552 0.00303793 45.3886V50.1994C-0.0492529 51.2452 0.578237 52.2387 1.51947 52.6571H1.57176V57.3632C1.57176 57.8338 1.88551 58.1999 2.30383 58.3568L28.4492 66.8802C28.6584 66.9324 28.8676 66.9324 29.0767 66.8802L55.2221 58.3568C55.6404 58.1999 55.9542 57.8338 55.9542 57.3632V52.3956C56.634 51.8727 57 51.036 57 50.1994V45.3886C56.8954 44.552 56.5294 43.7153 55.8496 43.1924ZM19.5075 12.55C19.5075 12.6023 19.9781 13.8573 18.8277 15.9489C18.2002 14.7462 17.5205 12.4454 18.2525 8.78509C18.9323 5.43848 20.0827 5.43848 21.39 5.38619C22.0697 5.43848 22.7495 5.2816 23.377 4.96786C23.5862 4.81099 23.8476 4.65411 24.1614 4.44495C25.4687 3.50372 27.4034 2.09187 29.7565 2.09187C31.5867 2.09187 33.6783 2.98081 35.9268 5.59535C39.1166 9.30799 39.012 12.0271 38.6982 13.3344C38.5413 13.9096 38.3322 14.4325 37.9662 14.9031C37.6524 14.0665 37.5478 13.1775 37.6524 12.2363C37.7047 11.6611 37.2864 11.1382 36.7112 11.0859C36.6589 11.0859 36.5543 11.0859 36.502 11.0859C35.6131 11.1905 34.7241 11.0859 33.8875 10.8244C32.5279 10.3538 31.3775 9.36028 30.6454 8.05301C30.3317 7.53011 29.7042 7.37323 29.2336 7.68698C29.129 7.73927 29.0767 7.79156 29.0244 7.84385C28.6584 8.20989 28.2401 8.57592 27.7694 8.83738C27.7694 8.83738 27.7172 8.83738 27.7172 8.88967C26.9328 9.41258 26.1484 9.77861 25.2595 10.0924C23.6908 10.6153 22.0698 10.9813 20.3964 11.0859C20.0304 11.0859 19.769 11.295 19.5598 11.6088C19.4029 11.8702 19.3506 12.2363 19.5075 12.55ZM20.135 17.8837C21.5468 15.7921 21.8083 14.171 21.7037 13.0729C23.1679 12.9161 24.5797 12.55 25.9393 12.0794C26.9328 11.7134 27.9263 11.2428 28.8153 10.6676C29.0244 10.5107 29.2859 10.3538 29.495 10.1969C30.4363 11.3996 31.6913 12.3409 33.1554 12.8638C33.8875 13.1252 34.6718 13.2298 35.4562 13.2821C35.4562 14.4325 35.8222 15.5829 36.4497 16.5764C36.5543 16.681 36.6589 16.8379 36.7635 16.9425C36.7112 21.544 32.8939 25.2567 28.2924 25.2044C24.1614 25.0475 20.6579 21.9624 20.135 17.8837ZM32.5279 29.2308C29.8088 30.0151 26.9851 30.0151 24.266 29.2308C24.7366 28.4464 25.0503 27.6098 25.2072 26.7208C27.2988 27.4006 29.495 27.4006 31.5867 26.7208C31.7435 27.6098 32.0573 28.4464 32.5279 29.2308ZM1.99009 50.1471V45.3363C1.99009 45.1272 2.04238 44.918 2.19925 44.7612L5.9119 45.7547C6.06877 45.9115 6.17335 46.1207 6.12106 46.3299C6.12106 46.3299 6.12106 50.3563 6.12106 51.5067C6.12106 51.6112 6.01648 51.7158 5.9119 51.7158H5.85961C4.97066 51.4544 2.14696 50.67 2.14696 50.67C2.04238 50.5654 1.99009 50.3563 1.99009 50.1471ZM27.6126 64.4225L3.55881 56.5789V53.2323C4.39546 53.4414 5.3367 53.912 6.22564 53.912C7.37604 53.912 8.26498 52.9708 8.26498 51.8204C8.26498 51.7681 8.26498 51.7681 8.26498 51.7158V46.3822C8.31727 45.2318 7.5852 44.186 6.4871 43.8199L3.55881 43.0356V36.6561L27.6126 41.676V64.4225ZM28.6584 39.7935L9.46767 35.7671L18.8277 32.9957C18.9846 32.9434 19.1415 32.8911 19.246 32.7866L21.7037 30.5381L22.0175 30.6949C26.0439 32.3682 30.5932 32.3682 34.6718 30.6949L34.9856 30.5381L37.4432 32.7866C37.5478 32.8911 37.7047 32.9957 37.8616 32.9957L47.4308 35.8194L28.6584 39.7935ZM53.758 56.5789L29.7042 64.4225V41.7283L53.758 36.7084V42.8787L50.3068 43.8199C49.2087 44.186 48.4766 45.2318 48.5289 46.3822V51.7158C48.4766 52.4479 48.8426 53.1277 49.4178 53.546C49.7839 53.7552 50.1499 53.912 50.5682 53.8597C50.9343 53.8597 51.248 53.8075 51.5618 53.6506L53.7057 53.0231V56.5789H53.758ZM54.8038 50.1471C54.8038 50.3563 54.7515 50.5654 54.5946 50.67C54.5946 50.67 51.9801 51.4021 50.9866 51.7158C50.8297 51.7681 50.6728 51.6635 50.6205 51.5067C50.6205 51.5067 50.6205 51.4544 50.6205 51.4021C50.6205 50.1471 50.6205 46.3299 50.6205 46.3299C50.6205 46.1207 50.6728 45.9115 50.8297 45.7547L54.5423 44.7612C54.6992 44.918 54.8038 45.1272 54.7515 45.3363V50.1471H54.8038Z" fill="#0BACF0"/>
</svg>
