<svg width="65" height="65" viewBox="0 0 65 65" fill="none" xmlns="http://www.w3.org/2000/svg">
<path d="M27.6659 23.74C29.2501 23.74 30.7987 23.2703 32.1159 22.3902C33.433 21.51 34.4597 20.2591 35.0659 18.7955C35.6721 17.3319 35.8307 15.7214 35.5217 14.1677C35.2126 12.614 34.4497 11.1868 33.3296 10.0666C32.2094 8.94647 30.7822 8.18363 29.2284 7.87459C27.6747 7.56555 26.0642 7.72419 24.6007 8.33044C23.1371 8.9367 21.8862 9.96334 21.0061 11.2805C20.126 12.5977 19.6562 14.1463 19.6563 15.7305C19.6587 17.854 20.5033 19.8899 22.0049 21.3915C23.5065 22.893 25.5424 23.7377 27.6659 23.74ZM27.6659 9.83177C28.8326 9.83177 29.973 10.1777 30.9431 10.8259C31.9131 11.474 32.6692 12.3953 33.1156 13.4732C33.5621 14.551 33.6789 15.737 33.4513 16.8813C33.2237 18.0255 32.6619 19.0766 31.8369 19.9015C31.012 20.7265 29.9609 21.2883 28.8167 21.5159C27.6725 21.7435 26.4864 21.6267 25.4086 21.1802C24.3307 20.7338 23.4095 19.9777 22.7613 19.0077C22.1131 18.0376 21.7672 16.8972 21.7672 15.7305C21.7689 14.1666 22.391 12.6672 23.4968 11.5614C24.6027 10.4555 26.102 9.83352 27.6659 9.83177Z" fill="#0BACF0"/>
<path d="M54.7416 33.3751C55.1348 31.4977 55.3329 29.5846 55.3328 27.6664C55.3328 12.411 42.9216 0 27.6664 0C12.4112 0 0 12.4112 0 27.6664C0 42.9216 12.4112 55.3328 27.6664 55.3328C29.5846 55.3329 31.4977 55.1348 33.3751 54.7416C34.4115 57.2104 36.0393 59.3863 38.1151 61.0776C40.1908 62.7688 42.6508 63.9234 45.2781 64.4395C47.9054 64.9557 50.6193 64.8175 53.1806 64.0372C55.7419 63.2569 58.0719 61.8585 59.9652 59.9652C61.8585 58.0719 63.2569 55.7419 64.0372 53.1806C64.8175 50.6193 64.9557 47.9054 64.4395 45.2781C63.9234 42.6508 62.7688 40.1908 61.0776 38.1151C59.3863 36.0393 57.2104 34.4115 54.7416 33.3751ZM27.6661 53.222C13.5747 53.222 2.11067 41.7578 2.11067 27.6665C2.11067 13.5753 13.5757 2.11106 27.6661 2.11106C41.7566 2.11106 53.2216 13.5753 53.2216 27.6665C53.2212 29.3498 53.0556 31.029 52.7272 32.68C51.3311 32.2963 49.8898 32.1022 48.4419 32.1029C46.129 32.0924 43.8417 32.5866 41.7396 33.5511V33.0111C41.7396 28.9797 38.4229 25.6439 34.3915 25.6439C34.2241 25.649 34.0601 25.6929 33.9124 25.7722C33.7648 25.8515 33.6377 25.964 33.541 26.1009C32.8674 27.0283 31.9838 27.783 30.9624 28.3032C29.941 28.8234 28.8109 29.0943 27.6646 29.0936C26.5184 29.093 25.3886 28.8209 24.3678 28.2995C23.347 27.7782 22.4642 27.0225 21.7917 26.0943C21.6946 25.9582 21.5672 25.8466 21.4195 25.7685C21.2718 25.6903 21.1079 25.6476 20.9408 25.6439C16.909 25.6439 13.6378 28.9797 13.6378 33.0111V42.5259C13.6367 42.6643 13.663 42.8016 13.7151 42.9299C13.7671 43.0582 13.844 43.175 13.9413 43.2735C14.0385 43.3721 14.1543 43.4504 14.2818 43.5042C14.4094 43.5579 14.5464 43.586 14.6848 43.5868H32.8354C32.3518 45.1546 32.1047 46.7858 32.1021 48.4265C32.1014 49.88 32.2955 51.3271 32.6792 52.7291C31.0283 53.0569 29.3492 53.2219 27.6661 53.222ZM33.6596 41.4758H15.7487V33.0111C15.7495 31.7182 16.2312 30.4718 17.1001 29.5145C17.969 28.5571 19.163 27.9572 20.4498 27.8314C21.9834 29.6678 24.1591 30.8507 26.5342 31.1395C28.9092 31.4284 31.305 30.8014 33.2341 29.3861C33.8517 28.937 34.4128 28.415 34.9054 27.8314C36.1946 27.9561 37.3915 28.555 38.2642 29.512C39.1368 30.469 39.6231 31.716 39.6286 33.0111V34.7044C37.0288 36.3401 34.9562 38.6913 33.6596 41.4758ZM48.4229 62.6344C45.6123 62.6342 42.8649 61.8007 40.5281 60.2391C38.1912 58.6775 36.3699 56.4581 35.2944 53.8614C34.219 51.2648 33.9376 48.4075 34.486 45.6509C35.0344 42.8944 36.3879 40.3623 38.3753 38.375C40.3628 36.3877 42.8949 35.0343 45.6514 34.486C48.408 33.9378 51.2653 34.2192 53.8619 35.2948C56.4585 36.3704 58.6779 38.1918 60.2393 40.5288C61.8008 42.8657 62.6342 45.6131 62.6342 48.4237C62.63 52.1913 61.1314 55.8034 58.4673 58.4674C55.8032 61.1315 52.1912 62.6301 48.4236 62.6344H48.4229Z" fill="#0BACF0"/>
<path d="M52.7422 39.9532C51.3266 39.9532 49.8186 40.4441 48.3441 41.3795C46.852 40.4008 45.3612 39.9053 43.9035 39.9053C40.8702 39.9053 38.5074 42.0287 37.8848 45.3128C37.0141 49.8507 39.7133 55.8489 47.706 59.0207C47.7243 59.0278 47.7427 59.0345 47.7613 59.0407C48.1315 59.1769 48.538 59.1769 48.9082 59.0407C48.9293 59.0337 48.95 59.0261 48.9706 59.0178C56.9596 55.7812 59.656 49.8014 58.7845 45.311L58.7829 45.3035C58.1277 42.0531 55.7565 39.9532 52.7422 39.9532ZM48.3335 56.9974C41.5793 54.2591 39.2565 49.3671 39.9587 45.7084C40.3906 43.4309 41.9023 42.0162 43.9035 42.0162C45.082 42.0162 46.3961 42.5318 47.7031 43.507C47.8835 43.6417 48.1023 43.7151 48.3273 43.7166C48.5524 43.7181 48.7721 43.6476 48.9543 43.5154C50.2627 42.5654 51.5722 42.0641 52.7417 42.0641C54.7352 42.0641 56.2565 43.4638 56.7129 45.7171C57.4126 49.3302 55.0876 54.2018 48.3335 56.9974Z" fill="#0BACF0"/>
</svg>
