<svg width="146" height="146" viewBox="0 0 146 146" fill="none" xmlns="http://www.w3.org/2000/svg">
<path d="M76.5 4C76.5 2.067 74.933 0.5 73 0.5C71.067 0.5 69.5 2.067 69.5 4H76.5ZM69.5 142C69.5 143.933 71.067 145.5 73 145.5C74.933 145.5 76.5 143.933 76.5 142H69.5ZM69.5 4V142H76.5V4H69.5Z" fill="#0BACF0"/>
<path d="M142 76.5C143.933 76.5 145.5 74.933 145.5 73C145.5 71.067 143.933 69.5 142 69.5L142 76.5ZM4 69.5C2.067 69.5 0.5 71.067 0.5 73C0.5 74.933 2.067 76.5 4 76.5L4 69.5ZM142 69.5L4 69.5L4 76.5L142 76.5L142 69.5Z" fill="#0BACF0"/>
</svg>
