<svg width="142" height="109" viewBox="0 0 142 109" fill="none" xmlns="http://www.w3.org/2000/svg">
<path d="M104.113 90.7723L106.474 93.1334C108.635 90.9728 110.64 88.6116 112.4 86.1391L109.682 84.2012C108.011 86.5178 106.14 88.723 104.113 90.7723Z" fill="#0BACF0"/>
<path d="M90.125 100.727L91.5951 103.734C94.335 102.398 96.9857 100.838 99.4805 99.0564L97.5426 96.3389C95.1814 98.0095 92.7089 99.4796 90.125 100.727Z" fill="#0BACF0"/>
<path d="M73.6406 105.562L74.0416 108.881C77.071 108.524 80.1004 107.901 83.0406 107.054L82.1051 103.847C79.343 104.649 76.4918 105.228 73.6406 105.562Z" fill="#0BACF0"/>
<path d="M86.7598 2.47252C83.8864 1.40332 80.9238 0.579148 77.9167 0L77.293 3.27442C80.0996 3.80901 82.9063 4.58864 85.6015 5.59101L86.7598 2.47252Z" fill="#0BACF0"/>
<path d="M114.584 25.4392C113.003 22.8331 111.176 20.3383 109.171 18.0439L106.654 20.2269C108.525 22.3876 110.241 24.7264 111.733 27.1767L114.584 25.4392Z" fill="#0BACF0"/>
<path d="M102.598 11.6282C100.237 9.69024 97.6975 7.90825 95.0691 6.39355L93.3984 9.2893C95.871 10.7149 98.2544 12.3855 100.482 14.2121L102.598 11.6282Z" fill="#0BACF0"/>
<path d="M29.043 86.1157C30.8027 88.5882 32.8074 90.9493 34.9681 93.11L37.3292 90.7488C35.3022 88.7218 33.4311 86.4943 31.7605 84.1777L29.043 86.1157Z" fill="#0BACF0"/>
<path d="M41.9648 99.0564C44.4596 100.838 47.1104 102.42 49.8502 103.734L51.3203 100.727C48.7587 99.4796 46.2639 97.9872 43.925 96.3389L41.9648 99.0564Z" fill="#0BACF0"/>
<path d="M58.4277 107.054C61.368 107.923 64.3751 108.524 67.4268 108.881L67.8278 105.562C64.9766 105.228 62.1477 104.649 59.3856 103.847L58.4277 107.054Z" fill="#0BACF0"/>
<path d="M64.1524 3.27442L63.5287 0C60.5216 0.579148 57.559 1.40332 54.6855 2.47252L55.8438 5.61328C58.5391 4.58864 61.3235 3.80901 64.1524 3.27442Z" fill="#0BACF0"/>
<path d="M34.8166 20.2269L32.2995 18.0439C30.2948 20.3605 28.4682 22.8331 26.8867 25.4392L29.7379 27.1767C31.2081 24.7487 32.9232 22.4098 34.8166 20.2269Z" fill="#0BACF0"/>
<path d="M48.0472 9.2893L46.3766 6.39355C43.7259 7.93053 41.2088 9.69024 38.8477 11.6282L40.986 14.2121C43.1913 12.3855 45.5747 10.7149 48.0472 9.2893Z" fill="#0BACF0"/>
<path d="M139.773 71.882H131.375V70.9241V42.9468V41.1648H139.773C140.686 41.1648 141.444 40.4075 141.444 39.4942C141.444 38.5809 140.686 37.8236 139.773 37.8236H129.705C128.791 37.8236 128.034 38.5809 128.034 39.4942V41.2762H127.388C127.388 41.2762 127.366 41.2762 127.344 41.2762C124.403 41.2762 121.641 40.1402 119.525 38.1131L117.364 36.0193C114.625 33.3686 111.038 31.8984 107.229 31.8984H103.153C98.0297 31.8984 93.5302 34.5714 90.924 38.5809H83.3728C80.0315 38.5809 77.314 41.2985 77.314 44.6397C77.314 45.8426 77.6704 46.934 78.2718 47.8918C76.1557 48.8274 74.6855 50.9435 74.6855 53.416C74.6855 55.8886 76.1557 57.9824 78.2718 58.9402C77.6704 59.8758 77.314 60.9895 77.314 62.1924C77.314 64.8208 79.0069 67.0483 81.368 67.8725C80.8334 68.7857 80.4993 69.8104 80.4993 70.9464C80.4993 74.2877 83.2169 77.0052 86.5581 77.0052H111.662C114.58 77.0052 117.387 76.1588 119.792 74.5327C121.641 73.2853 123.824 72.617 126.052 72.617C126.052 72.617 126.052 72.617 126.074 72.617H128.034V73.5971C128.034 74.5104 128.791 75.2678 129.705 75.2678H139.773C140.686 75.2678 141.444 74.5104 141.444 73.5971C141.444 72.6839 140.686 71.882 139.773 71.882ZM83.3951 41.9222H89.3425C88.8747 43.3478 88.6074 44.8625 88.6074 46.444V47.335H83.3951C81.9026 47.335 80.6775 46.1099 80.6775 44.6174C80.6775 43.125 81.9026 41.9222 83.3951 41.9222ZM80.7666 50.6985H88.6074V52.7255C88.6074 53.9729 88.9638 55.1312 89.5652 56.1336H80.7666C79.2742 56.1336 78.0491 54.9085 78.0491 53.416C78.0491 51.9236 79.2742 50.6985 80.7666 50.6985ZM83.3951 59.4525H95.223C96.7155 59.4525 97.9406 60.6777 97.9406 62.1701C97.9406 63.6625 96.7155 64.8876 95.223 64.8876H83.3951C81.9026 64.8876 80.6775 63.6625 80.6775 62.1701C80.6775 60.6777 81.9026 59.4525 83.3951 59.4525ZM83.8851 70.9241C83.8851 69.4317 85.1102 68.2066 86.6026 68.2066H94.2875C95.7799 68.2066 97.005 69.4317 97.005 70.9241C97.005 72.4166 95.7799 73.6417 94.2875 73.6417H86.6026C85.088 73.6417 83.8851 72.4166 83.8851 70.9241ZM126.096 69.2312C126.074 69.2312 126.074 69.2312 126.096 69.2312C123.178 69.2312 120.371 70.1 117.943 71.7038C116.095 72.9512 113.934 73.6194 111.684 73.6194H99.6558C100.079 72.7952 100.324 71.882 100.324 70.9019C100.324 69.3872 99.7449 68.0284 98.8316 66.9815C100.302 65.8677 101.282 64.1303 101.282 62.1478C101.282 60.4995 100.614 59.0293 99.5667 57.9378C101.104 56.6905 102.106 54.8194 102.106 52.7032V48.3819C102.106 47.8028 102.574 47.3573 103.131 47.3573C103.688 47.3573 104.155 47.825 104.155 48.3819V55.0867C104.155 57.4924 106.115 59.4525 108.521 59.4525H113.823C114.736 59.4525 115.493 58.6952 115.493 57.7819C115.493 56.8687 114.736 56.1113 113.823 56.1113H108.521C107.964 56.1113 107.497 55.6435 107.497 55.0867V48.3819C107.497 45.9762 105.536 44.016 103.131 44.016C100.725 44.016 98.7648 45.9762 98.7648 48.3819V52.7032C98.7648 54.5743 97.2278 56.1113 95.3567 56.1113C93.4856 56.1113 91.9486 54.5743 91.9486 52.7032V46.4663C91.9486 40.2738 96.9828 35.262 103.153 35.262H107.229C110.17 35.262 112.932 36.398 115.048 38.425L117.208 40.5188C119.948 43.1696 123.535 44.6397 127.366 44.6397C127.388 44.6397 127.388 44.6397 127.41 44.6397H128.056V69.2535L126.096 69.2312Z" fill="#0BACF0"/>
<path d="M54.8632 76.9837C58.2044 76.9837 60.922 74.2662 60.922 70.9249C60.922 69.7889 60.5878 68.7643 60.0532 67.851C62.4144 67.0268 64.1073 64.7993 64.1073 62.1709C64.1073 60.968 63.7509 59.8543 63.1495 58.9187C65.2656 57.9832 66.7357 55.8671 66.7357 53.3945C66.7357 50.922 65.2656 48.8282 63.1495 47.8704C63.7509 46.9348 64.1073 45.8211 64.1073 44.6182C64.1073 41.277 61.3897 38.5594 58.0485 38.5594H50.4973C47.9134 34.5499 43.3916 31.877 38.2684 31.877H34.192C30.383 31.877 26.7745 33.3471 24.0569 35.9978L21.8963 38.0917C19.7801 40.141 17.0181 41.2547 14.1 41.2547H14.0778H13.4095V39.4727C13.4095 38.5594 12.6522 37.8021 11.7389 37.8021H1.67062C0.757348 37.8021 0 38.5594 0 39.4727C0 40.386 0.757348 41.1656 1.67062 41.1656H10.0683V42.9476V70.9249V71.8828H1.67062C0.757348 71.8828 0 72.6401 0 73.5534C0 74.4666 0.757348 75.224 1.67062 75.224H11.7389C12.6522 75.224 13.4095 74.4666 13.4095 73.5534V72.5733H15.3697C15.3697 72.5733 15.3697 72.5733 15.392 72.5733C17.6195 72.5733 19.8024 73.2415 21.6512 74.4889C24.0569 76.115 26.8636 76.9614 29.7816 76.9614H54.8632V76.9837ZM54.8632 73.6425H47.1783C45.6859 73.6425 44.4608 72.4174 44.4608 70.9249C44.4608 69.4325 45.6859 68.2074 47.1783 68.2074H54.8632C56.3556 68.2074 57.5807 69.4325 57.5807 70.9249C57.5807 72.4174 56.3556 73.6425 54.8632 73.6425ZM58.0485 64.8661H46.2205C44.7281 64.8661 43.503 63.641 43.503 62.1486C43.503 60.6562 44.7281 59.4311 46.2205 59.4311H58.0485C59.5409 59.4311 60.766 60.6562 60.766 62.1486C60.766 63.641 59.5409 64.8661 58.0485 64.8661ZM60.6769 56.1121H51.8783C52.4798 55.1097 52.8362 53.9514 52.8362 52.704V50.677H58.0485H60.6769C62.1694 50.677 63.3945 51.9021 63.3945 53.3945C63.3945 54.887 62.1694 56.1121 60.6769 56.1121ZM58.0485 41.9229C59.5409 41.9229 60.766 43.1481 60.766 44.6405C60.766 46.1329 59.5409 47.358 58.0485 47.358H52.8362V46.467C52.8362 44.8855 52.5689 43.3708 52.1011 41.9452H58.0485V41.9229ZM15.3697 69.232C15.3697 69.232 15.3474 69.232 15.3697 69.232H13.4095V44.6405H14.0555C14.0778 44.6405 14.0778 44.6405 14.1 44.6405C17.9091 44.6405 21.5176 43.1703 24.2351 40.5196L26.3958 38.4258C28.4897 36.3765 31.274 35.2627 34.2143 35.2627H38.2906C44.4831 35.2627 49.4949 40.2969 49.4949 46.467V52.704C49.4949 54.5751 47.958 56.1121 46.0869 56.1121C44.2158 56.1121 42.6788 54.5751 42.6788 52.704V48.3827C42.6788 45.977 40.7186 44.0168 38.3129 44.0168C35.9072 44.0168 33.947 45.977 33.947 48.3827V55.0874C33.947 55.6666 33.4792 56.1121 32.9224 56.1121H27.6209C26.7077 56.1121 25.9503 56.8694 25.9503 57.7827C25.9503 58.696 26.7077 59.4533 27.6209 59.4533H32.9224C35.3281 59.4533 37.2883 57.4931 37.2883 55.0874V48.3827C37.2883 47.8035 37.756 47.358 38.3129 47.358C38.8698 47.358 39.3375 47.8258 39.3375 48.3827V52.704C39.3375 54.8201 40.3399 56.7135 41.8769 57.9386C40.8077 59.0301 40.1617 60.5225 40.1617 62.1486C40.1617 64.1311 41.1418 65.8685 42.612 66.9823C41.6987 68.0515 41.1195 69.4102 41.1195 70.9026C41.1195 71.8827 41.3646 72.796 41.7878 73.6202H29.7593C27.5096 73.6202 25.3489 72.9519 23.5001 71.7045C21.0944 70.1008 18.2877 69.232 15.3697 69.232Z" fill="#0BACF0"/>
<path d="M70.7234 19.2246C69.8101 19.2246 69.0527 19.982 69.0527 20.8952V27.9787C69.0527 28.8919 69.8101 29.6493 70.7234 29.6493C71.6366 29.6493 72.394 28.8919 72.394 27.9787V20.8952C72.394 19.9597 71.6366 19.2246 70.7234 19.2246Z" fill="#0BACF0"/>
<path d="M55.9585 32.5437C56.2926 33.0115 56.8049 33.2565 57.3395 33.2565C57.6737 33.2565 57.9855 33.1674 58.2974 32.9669C59.0547 32.4323 59.2552 31.4077 58.7206 30.6503L54.3101 24.2797C53.7755 23.5223 52.7509 23.3219 51.9935 23.8565C51.2362 24.3911 51.0357 25.4157 51.5703 26.173L55.9585 32.5437Z" fill="#0BACF0"/>
<path d="M83.1505 32.9669C83.4401 33.1674 83.7742 33.2565 84.1083 33.2565C84.6429 33.2565 85.1553 33.0115 85.4894 32.5437L89.8998 26.173C90.4344 25.4157 90.2339 24.3688 89.4766 23.8565C88.7192 23.3219 87.6723 23.5223 87.16 24.2797L82.7496 30.6503C82.215 31.4077 82.3932 32.4546 83.1505 32.9669Z" fill="#0BACF0"/>
<path d="M70.7234 83.71C69.8101 83.71 69.0527 84.4673 69.0527 85.3806V92.464C69.0527 93.3773 69.8101 94.1346 70.7234 94.1346C71.6366 94.1346 72.394 93.3773 72.394 92.464V85.3806C72.394 84.445 71.6366 83.71 70.7234 83.71Z" fill="#0BACF0"/>
<path d="M89.9022 87.163L85.4918 80.7924C84.9795 80.035 83.9325 79.8345 83.1752 80.3691C82.4178 80.9037 82.2174 81.9284 82.752 82.6857L87.1624 89.0564C87.4965 89.5242 88.0088 89.7692 88.5434 89.7692C88.8776 89.7692 89.1894 89.6801 89.5013 89.4796C90.2363 88.9673 90.4145 87.9204 89.9022 87.163Z" fill="#0BACF0"/>
<path d="M58.2974 80.3691C57.54 79.8345 56.4931 80.035 55.9808 80.7924L51.5703 87.163C51.0357 87.9204 51.2362 88.9673 51.9935 89.4796C52.2831 89.6801 52.6172 89.7692 52.9514 89.7692C53.486 89.7692 53.9983 89.5242 54.3324 89.0564L58.7429 82.6857C59.2329 81.9284 59.0547 80.8815 58.2974 80.3691Z" fill="#0BACF0"/>
</svg>
