<svg width="66" height="72" viewBox="0 0 66 72" fill="none" xmlns="http://www.w3.org/2000/svg">
<path d="M32.8774 0L0 19.4484V52.4584L32.8774 71.9068L65.7548 52.4584V19.4484L32.8774 0ZM63.6679 50.0168L62.7059 51.6403L63.0679 51.8544L33.821 69.1552V39.4145L37.9284 36.9849L40.3956 38.4446L41.3576 36.8211L39.782 35.8887L63.8668 21.6416V50.135L63.6679 50.0168ZM2.08689 50.0168L1.88795 50.1342V21.6416L25.9727 35.8887L24.3972 36.8211L25.3591 38.4446L27.8263 36.9849L31.9338 39.4145V69.1552L2.68772 51.8552L3.04965 51.6411L2.08689 50.0168ZM33.7371 2.7021L62.9568 19.9869L32.8774 37.779L2.79797 19.9869L32.0177 2.7021H33.7371Z" fill="#0BACF0"/>
<path d="M56.3326 47.8741L59.5195 49.7598L60.4805 48.1357L57.2935 46.25L56.3326 47.8741Z" fill="#0BACF0"/>
<path d="M49.9595 44.1041L53.1465 45.9897L54.1074 44.3657L50.9204 42.48L49.9595 44.1041Z" fill="#0BACF0"/>
<path d="M43.5848 40.3342L46.7715 42.2188L47.732 40.5945L44.5454 38.71L43.5848 40.3342Z" fill="#0BACF0"/>
<path d="M30.7715 33.0489L31.7342 34.6732L32.8768 33.9965L34.0193 34.6732L34.982 33.0489L33.8203 32.3618V29.126H31.9332V32.3618L30.7715 33.0489Z" fill="#0BACF0"/>
<path d="M22.1709 40.3252L21.209 38.7017L18.0231 40.5892L18.985 42.2127L22.1709 40.3252Z" fill="#0BACF0"/>
<path d="M15.7959 44.0957L14.834 42.4722L11.6488 44.3593L12.6107 45.9828L15.7959 44.0957Z" fill="#0BACF0"/>
<path d="M9.42282 47.8667L8.46094 46.2432L5.27507 48.1307L6.23696 49.7542L9.42282 47.8667Z" fill="#0BACF0"/>
<path d="M33.8207 21.5767H31.9336V25.3518H33.8207V21.5767Z" fill="#0BACF0"/>
<path d="M33.8207 14.0264H31.9336V17.8015H33.8207V14.0264Z" fill="#0BACF0"/>
<path d="M33.8207 6.47754H31.9336V10.2526H33.8207V6.47754Z" fill="#0BACF0"/>
</svg>
